<svg version="1.1" id="Layer_1" xmlns="http://www.w3.org/2000/svg" xmlns:xlink="http://www.w3.org/1999/xlink" x="0px" y="0px"
	 width="100%" viewBox="0 0 256 256" enable-background="new 0 0 256 256" xml:space="preserve">
<path fill="#000000" opacity="1.000000" stroke="none" 
	d="
M168.000000,257.000000 
	C112.000000,257.000000 56.500008,257.000000 1.000007,257.000000 
	C1.000005,171.666672 1.000005,86.333351 1.000003,1.000019 
	C86.333321,1.000013 171.666641,1.000013 257.000000,1.000006 
	C257.000000,86.333313 257.000000,171.666626 257.000000,256.999969 
	C227.500000,257.000000 198.000000,257.000000 168.000000,257.000000 
M120.926399,139.990097 
	C130.153992,139.993729 139.381805,140.032715 148.609024,139.976089 
	C150.906250,139.962006 152.945877,140.027512 152.863419,143.669876 
	C146.562729,156.240234 140.259033,168.809097 133.964447,181.382507 
	C132.959549,183.389801 131.209152,185.393478 131.146484,187.439987 
	C130.847702,197.194580 131.012680,206.963379 131.012680,216.997757 
	C141.969162,216.997757 152.483307,217.655472 162.871414,216.793823 
	C171.493774,216.078659 177.663284,210.597595 177.901901,202.952911 
	C178.234039,192.313141 177.888947,181.652222 177.992279,170.571625 
	C177.992279,170.571625 178.044388,170.117508 178.802734,170.006790 
	C195.972076,165.653946 196.144623,152.341827 194.645523,137.307465 
	C196.773010,140.826248 198.162201,143.123917 199.551392,145.421585 
	C200.101135,145.390900 200.650864,145.360199 201.200592,145.329514 
	C203.124878,140.654877 205.168701,136.025314 206.952393,131.297638 
	C214.022919,112.557159 220.890793,93.739037 228.118607,75.059914 
	C229.876938,70.515816 228.134598,69.946991 224.321365,69.964066 
	C208.321793,70.035751 192.320267,70.112396 176.322708,69.919083 
	C171.729324,69.863579 169.631790,70.945549 172.031708,75.882263 
	C141.269928,75.882263 110.950867,75.882263 80.631813,75.882263 
	C80.956573,75.525536 81.281326,75.168800 81.606087,74.812073 
	C80.309441,73.539246 79.029945,71.179619 77.713547,71.158852 
	C61.550987,70.903946 45.383011,70.978592 29.216482,71.002106 
	C26.328197,71.006302 25.397686,72.267372 26.533733,75.129013 
	C28.779442,80.785828 30.874710,86.503319 32.973991,92.217110 
	C38.995476,108.606270 44.964844,125.014664 51.046932,141.381226 
	C51.426788,142.403381 52.589165,143.798538 53.407848,143.812347 
	C54.274666,143.826965 55.449207,142.551483 55.986115,141.565460 
	C57.035870,139.637665 57.735523,137.519226 58.994072,134.480057 
	C58.994072,140.797073 59.427513,146.006424 58.903652,151.117676 
	C57.820084,161.689880 67.959358,169.896164 76.990868,170.835861 
	C77.048271,171.889969 77.105675,172.944061 77.004799,174.740906 
	C77.058052,175.494736 77.111313,176.248550 77.011810,177.928345 
	C77.007889,185.255432 76.999580,192.582535 77.001198,199.909622 
	C77.003128,208.647247 80.248787,214.748550 88.921402,215.667892 
	C101.752388,217.028076 114.834473,216.019547 128.000214,216.019547 
	C128.000214,210.747299 127.622063,205.071152 128.087936,199.465118 
	C128.805313,190.832611 126.847900,183.141815 122.418518,175.701675 
	C118.572769,169.241867 115.441269,162.341980 112.223663,155.528168 
	C109.987839,150.793427 108.140976,145.875000 106.873466,140.671341 
	C111.249161,140.392578 115.624847,140.113815 120.926399,139.990097 
z"/>
<path fill="#FFFFFF" opacity="1.000000" stroke="none" 
	d="
M106.120338,141.038635 
	C108.140976,145.875000 109.987839,150.793427 112.223663,155.528168 
	C115.441269,162.341980 118.572769,169.241867 122.418518,175.701675 
	C126.847900,183.141815 128.805313,190.832611 128.087936,199.465118 
	C127.622063,205.071152 128.000214,210.747299 128.000214,216.019547 
	C114.834473,216.019547 101.752388,217.028076 88.921402,215.667892 
	C80.248787,214.748550 77.003128,208.647247 77.001198,199.909622 
	C76.999580,192.582535 77.007889,185.255432 77.404694,177.408020 
	C77.586075,175.924515 77.374580,174.961334 77.163078,173.998169 
	C77.105675,172.944061 77.048271,171.889969 77.258476,170.305695 
	C78.187180,168.849777 79.342819,167.965302 79.424133,166.991180 
	C79.784431,162.674850 79.836258,158.332764 79.998016,153.661835 
	C79.664230,152.549118 79.332130,151.774567 79.000015,150.600006 
	C79.000397,149.133347 79.000809,148.066666 79.388214,146.955856 
	C84.284012,146.274460 88.798775,145.675735 93.298607,144.980423 
	C95.023010,144.713989 97.624985,144.777283 98.251457,143.739319 
	C100.283577,140.372482 103.218292,141.051865 106.120338,141.038635 
z"/>
<path fill="#FFFFFF" opacity="1.000000" stroke="none" 
	d="
M177.833710,171.000366 
	C177.888947,181.652222 178.234039,192.313141 177.901901,202.952911 
	C177.663284,210.597595 171.493774,216.078659 162.871414,216.793823 
	C152.483307,217.655472 141.969162,216.997757 131.012680,216.997757 
	C131.012680,206.963379 130.847702,197.194580 131.146484,187.439987 
	C131.209152,185.393478 132.959549,183.389801 133.964447,181.382507 
	C140.259033,168.809097 146.562729,156.240234 153.433380,143.335083 
	C157.578110,143.984589 161.106766,145.211319 164.737381,145.901886 
	C171.959564,147.275635 172.073639,147.155060 171.967041,154.514175 
	C171.899506,159.176743 173.444550,162.993530 176.999512,166.333328 
	C176.999756,167.111099 176.999878,167.555557 176.748886,168.189774 
	C176.943085,169.253143 177.388397,170.126755 177.833710,171.000366 
z"/>
<path fill="#FEFDF9" opacity="1.000000" stroke="none" 
	d="
M177.000000,168.000000 
	C176.999878,167.555557 176.999756,167.111099 177.125519,166.100159 
	C177.539642,165.336716 177.827896,165.139786 178.306519,164.949249 
	C178.496887,164.955627 178.876343,164.924225 179.103561,164.869598 
	C179.625610,164.674149 179.838791,164.454163 180.287415,164.088913 
	C181.035751,164.000519 181.467026,163.978241 182.118103,163.898239 
	C182.623474,163.704895 182.834991,163.494751 183.268585,163.061401 
	C185.011795,161.596619 186.458893,160.280533 188.149872,158.862259 
	C188.580017,158.469498 188.766281,158.178940 188.976868,157.534943 
	C189.399277,156.106888 189.797348,155.032257 190.407608,153.766174 
	C190.480667,152.731003 190.341522,151.887299 190.132904,150.622833 
	C190.106659,148.784592 190.149918,147.367096 190.449020,145.631622 
	C191.048416,139.236359 191.468231,133.161484 191.659332,127.079445 
	C191.690628,126.083855 190.714249,125.056602 190.132370,123.713791 
	C190.004013,122.936989 189.946899,122.490372 190.174423,121.865189 
	C191.581787,121.125664 192.704483,120.564713 193.897278,120.224831 
	C193.967346,120.445908 194.038330,120.904274 194.099884,121.123886 
	C194.301041,121.628014 194.513901,121.838478 194.869415,122.293678 
	C194.970840,123.046326 195.002853,123.480171 195.097870,124.131836 
	C195.301514,124.631653 195.514572,124.839363 195.874268,125.203804 
	C195.948456,125.434822 196.034180,125.912460 196.099915,126.132050 
	C196.310516,126.635231 196.527649,126.843483 196.888550,127.289413 
	C196.990967,128.029434 197.021866,128.456436 197.037323,129.258286 
	C197.623352,130.755051 198.224838,131.876968 199.028488,133.297897 
	C199.830521,133.143539 200.749908,132.815002 200.982971,132.218369 
	C205.391754,120.931290 209.730804,109.616875 214.060074,98.298859 
	C216.979294,90.667076 219.860901,83.020905 222.753693,75.396057 
	C207.308517,75.396057 192.287109,75.396057 176.625443,75.396057 
	C177.674759,77.048195 178.348557,78.109100 179.109589,79.342453 
	C179.351913,79.731194 179.554092,79.886078 179.876740,80.210510 
	C179.950150,80.441483 180.035385,80.918655 180.024017,81.283730 
	C180.028488,82.135323 180.044327,82.621841 180.050598,83.302467 
	C180.041031,83.496574 180.071884,83.884041 180.050262,84.281693 
	C180.957596,86.787193 181.886536,88.895042 182.884918,91.227295 
	C182.954376,91.451698 183.029099,91.915527 183.093201,92.132812 
	C183.298035,92.631485 183.510757,92.839142 183.874573,93.203918 
	C183.953674,93.434769 184.029785,93.916847 184.094574,94.134933 
	C184.302536,94.634674 184.517395,94.842056 184.876648,95.288872 
	C184.980927,96.030800 185.012512,96.459023 185.105530,97.110733 
	C185.308212,97.624367 185.525284,97.837112 185.886475,98.288704 
	C185.984344,99.035255 186.013947,99.465584 186.106339,100.118576 
	C186.312683,100.629303 186.530716,100.840446 186.894684,101.201218 
	C186.966141,101.427773 187.039429,101.897194 187.101593,102.118423 
	C187.304474,102.626793 187.519958,102.837440 187.883392,103.286316 
	C187.986679,104.030800 188.016769,104.460571 188.106781,105.112762 
	C188.306000,105.623886 188.520538,105.836739 188.890869,106.346481 
	C190.003464,109.471191 191.035522,112.223167 191.789490,115.155975 
	C190.401779,115.889420 189.292206,116.442039 188.102417,116.781136 
	C188.022217,116.567619 187.942993,116.118393 187.960358,115.714554 
	C186.958755,113.217651 185.939789,111.124588 184.636719,108.857315 
	C184.224365,107.810478 184.096130,106.937836 183.903656,105.851364 
	C183.697845,105.361916 183.486847,105.158180 183.136612,104.705872 
	C183.034683,103.949326 183.002594,103.513214 182.905777,102.860764 
	C182.699127,102.364883 182.486176,102.158676 182.130417,101.789497 
	C182.058655,101.553185 181.977524,101.065964 181.909943,100.851410 
	C181.697830,100.360237 181.483795,100.156738 181.129959,99.704407 
	C181.030350,98.944061 181.001022,98.505661 180.971527,97.782181 
	C180.722626,97.012253 180.473923,96.527412 180.144485,95.801987 
	C180.034851,95.394722 180.005951,95.228035 179.910889,94.848183 
	C179.702209,94.360199 179.490692,94.157295 179.137238,93.787605 
	C179.064285,93.548904 178.980972,93.056709 178.912872,92.844292 
	C178.700684,92.358261 178.488327,92.156471 178.137848,91.706879 
	C178.035461,90.952232 178.002930,90.517204 177.906830,89.865463 
	C177.703094,89.368340 177.491608,89.160538 177.123947,88.651237 
	C175.017395,86.035187 176.367157,81.090698 171.737717,81.042595 
	C158.641708,80.906517 145.543381,80.994972 132.241577,80.994972 
	C132.902328,84.587639 133.486343,87.763100 133.720444,90.906708 
	C132.407730,89.677261 131.444931,88.479668 130.176102,86.901436 
	C128.056671,88.270073 125.991745,89.603500 123.952972,90.530838 
	C124.547852,87.198196 125.116585,84.271652 125.752274,81.000526 
	C110.055634,81.000526 94.828491,80.947495 79.604134,81.128883 
	C78.665062,81.140068 77.748001,82.999077 76.462952,84.087646 
	C75.750748,85.815094 75.396294,87.453247 75.025223,89.410812 
	C74.946304,90.150703 74.883995,90.571182 74.474838,90.984909 
	C73.055603,89.975227 71.983223,88.972290 70.953613,87.636749 
	C71.052567,86.861595 71.108749,86.419044 71.358711,85.842484 
	C71.784645,85.474205 71.909943,85.192406 71.941895,84.573059 
	C71.948334,83.896049 71.941269,83.509071 71.957184,82.760178 
	C71.979691,81.914749 71.979218,81.431252 72.081818,80.676598 
	C72.523674,79.939545 72.862442,79.473648 73.440521,78.988434 
	C73.795448,78.365395 73.911064,77.761673 74.262794,76.888763 
	C60.629574,76.619576 46.760235,76.619576 32.404079,76.619576 
	C39.295208,95.458076 46.268078,114.520027 53.668259,134.750137 
	C56.418797,126.795296 58.801960,119.902946 61.530804,113.016586 
	C62.939457,114.023315 64.002434,115.024040 65.028831,116.359177 
	C64.932526,117.137100 64.872795,117.580612 64.625305,118.150024 
	C64.211632,118.496193 64.082359,118.763275 64.034492,119.037292 
	C64.019241,118.997429 64.080368,119.057037 63.711987,119.097900 
	C63.498688,122.409073 63.653767,125.679390 63.873619,129.297974 
	C63.893242,130.114243 63.848091,130.582260 63.567066,131.311996 
	C63.491020,133.366318 63.650845,135.158920 63.880486,137.334946 
	C63.905327,138.493607 63.860359,139.268829 63.586922,140.267670 
	C63.506214,141.995605 63.653984,143.499924 63.869915,145.375244 
	C63.891357,146.496094 63.844635,147.245941 63.461338,148.075684 
	C63.354336,150.092926 63.583904,152.030289 63.887321,154.295975 
	C64.009872,155.070160 64.058578,155.515991 63.844902,156.145660 
	C64.413811,157.542038 65.245102,158.754623 66.342682,160.069641 
	C67.089989,160.747116 67.570992,161.322144 68.096100,162.270142 
	C69.460205,163.078903 70.780197,163.514709 72.335876,163.987396 
	C72.571571,164.024277 73.026688,164.167480 73.155533,164.360626 
	C73.510994,164.785980 73.785919,164.916245 74.529259,164.955933 
	C75.635231,164.116547 76.810974,163.321564 76.915375,162.404587 
	C77.231590,159.627167 77.132736,156.802490 77.546120,153.996704 
	C78.597656,153.998123 79.298676,153.999069 79.999695,154.000000 
	C79.836258,158.332764 79.784431,162.674850 79.424133,166.991180 
	C79.342819,167.965302 78.187180,168.849777 77.207718,169.911774 
	C67.959358,169.896164 57.820084,161.689880 58.903652,151.117676 
	C59.427513,146.006424 58.994072,140.797073 58.994072,134.480057 
	C57.735523,137.519226 57.035870,139.637665 55.986115,141.565460 
	C55.449207,142.551483 54.274666,143.826965 53.407848,143.812347 
	C52.589165,143.798538 51.426788,142.403381 51.046932,141.381226 
	C44.964844,125.014664 38.995476,108.606270 32.973991,92.217110 
	C30.874710,86.503319 28.779442,80.785828 26.533733,75.129013 
	C25.397686,72.267372 26.328197,71.006302 29.216482,71.002106 
	C45.383011,70.978592 61.550987,70.903946 77.713547,71.158852 
	C79.029945,71.179619 80.309441,73.539246 81.606087,74.812073 
	C81.281326,75.168800 80.956573,75.525536 80.631813,75.882263 
	C110.950867,75.882263 141.269928,75.882263 172.031708,75.882263 
	C169.631790,70.945549 171.729324,69.863579 176.322708,69.919083 
	C192.320267,70.112396 208.321793,70.035751 224.321365,69.964066 
	C228.134598,69.946991 229.876938,70.515816 228.118607,75.059914 
	C220.890793,93.739037 214.022919,112.557159 206.952393,131.297638 
	C205.168701,136.025314 203.124878,140.654877 201.200592,145.329514 
	C200.650864,145.360199 200.101135,145.390900 199.551392,145.421585 
	C198.162201,143.123917 196.773010,140.826248 194.645523,137.307465 
	C196.144623,152.341827 195.972076,165.653946 178.393555,169.750458 
	C177.656265,168.996078 177.328140,168.498032 177.000000,168.000000 
z"/>
<path fill="#FEFEFE" opacity="1.000000" stroke="none" 
	d="
M178.116150,164.942871 
	C177.827896,165.139786 177.539642,165.336716 177.125397,165.766815 
	C173.444550,162.993530 171.899506,159.176743 171.967041,154.514175 
	C172.073639,147.155060 171.959564,147.275635 164.737381,145.901886 
	C161.106766,145.211319 157.578110,143.984589 153.584229,143.000610 
	C152.945877,140.027512 150.906250,139.962006 148.609024,139.976089 
	C139.381805,140.032715 130.153992,139.993729 120.463379,139.511169 
	C120.358406,137.487061 121.035187,135.934036 120.997536,134.398544 
	C120.945061,132.258820 120.358170,130.132217 120.155647,127.642807 
	C120.872856,123.599724 121.688896,119.923729 121.833000,116.221588 
	C121.873528,115.180298 119.941650,114.062225 118.953850,112.607300 
	C119.062950,111.492004 119.132690,110.748772 119.577530,110.003067 
	C126.113831,108.131531 127.414413,101.571068 122.960953,94.596840 
	C123.061554,93.470589 123.132927,92.720856 123.388977,91.844254 
	C123.793816,91.496674 123.922058,91.231491 123.961578,90.943863 
	C123.964760,90.965881 123.926826,90.936928 123.926826,90.936928 
	C125.991745,89.603500 128.056671,88.270073 130.176102,86.901436 
	C131.444931,88.479668 132.407730,89.677261 133.702148,90.919777 
	C134.033768,90.964706 134.040619,90.924232 134.102203,91.139114 
	C134.301163,91.632492 134.510315,91.837952 134.868896,92.339981 
	C134.986771,93.463768 135.026947,94.217972 134.771530,95.211960 
	C134.013184,98.154793 132.886261,100.955208 133.264435,103.534973 
	C133.688278,106.426170 133.800858,110.601028 138.869293,110.372139 
	C138.981857,111.484261 139.025574,112.229462 138.753159,113.131241 
	C136.420288,118.350288 138.805496,131.683228 142.341858,134.780426 
	C144.579758,136.740402 145.523407,135.429794 146.460602,133.120178 
	C150.944946,133.100723 154.970840,133.151016 159.047119,133.555237 
	C161.425735,140.308914 161.885010,140.421341 166.427444,135.689560 
	C166.650818,135.456863 166.829041,135.180847 167.363983,134.959106 
	C168.142761,135.062546 168.585846,135.131897 169.156418,135.387482 
	C169.504776,135.795624 169.770203,135.928482 170.308868,136.043732 
	C170.826050,136.299652 170.994415,136.561447 171.017761,137.306061 
	C169.075836,138.962967 167.158722,140.214340 164.787872,141.761887 
	C168.563995,143.062271 172.073257,144.270767 173.939346,144.913391 
	C175.380539,151.996948 176.597855,157.980103 177.903198,164.204239 
	C178.032852,164.611099 178.074509,164.776993 178.116150,164.942871 
M130.093842,96.703262 
	C130.093842,94.956444 130.093842,93.209625 130.093842,91.462807 
	C129.471893,91.506088 128.849945,91.549370 128.228012,91.592651 
	C128.099152,93.400139 124.502693,95.461357 130.093842,96.703262 
z"/>
<path fill="#FDFEFE" opacity="1.000000" stroke="none" 
	d="
M120.000000,128.000000 
	C120.358170,130.132217 120.945061,132.258820 120.997536,134.398544 
	C121.035187,135.934036 120.358406,137.487061 120.000443,139.433655 
	C115.624847,140.113815 111.249161,140.392578 106.496902,140.854980 
	C103.218292,141.051865 100.283577,140.372482 98.251457,143.739319 
	C97.624985,144.777283 95.023010,144.713989 93.298607,144.980423 
	C88.798775,145.675735 84.284012,146.274460 79.394135,146.568268 
	C79.326042,144.465042 79.639023,142.705261 79.957268,140.962921 
	C79.962532,140.980362 79.938110,140.960724 80.315506,140.978180 
	C83.122520,141.831604 85.552139,142.667557 89.507858,144.028595 
	C88.061981,141.053635 87.214638,139.310196 86.382416,137.597855 
	C90.264832,131.756744 92.654587,141.099350 96.339035,138.452301 
	C96.140686,137.430374 95.935150,136.371445 95.854012,135.953430 
	C100.929344,135.704285 105.766151,134.650757 110.256874,135.477356 
	C114.692352,136.293808 116.319351,134.903473 117.509323,131.178452 
	C117.893318,129.976425 119.145164,129.051620 120.000000,128.000000 
z"/>
<path fill="#FEFEFE" opacity="1.000000" stroke="none" 
	d="
M176.748886,168.189774 
	C177.328140,168.498032 177.656265,168.996078 178.014389,169.805817 
	C178.044388,170.117508 177.992279,170.571625 177.912994,170.785995 
	C177.388397,170.126755 176.943085,169.253143 176.748886,168.189774 
z"/>
<path fill="#FEFDF9" opacity="1.000000" stroke="none" 
	d="
M77.083939,174.369537 
	C77.374580,174.961334 77.586075,175.924515 77.481079,176.945038 
	C77.111313,176.248550 77.058052,175.494736 77.083939,174.369537 
z"/>
<path fill="#FEFDF9" opacity="1.000000" stroke="none" 
	d="
M79.952003,140.945496 
	C79.639023,142.705261 79.326042,144.465042 79.007141,146.612396 
	C79.000809,148.066666 79.000397,149.133347 78.700439,150.600616 
	C78.001442,151.002319 77.601997,151.003418 77.127594,150.589630 
	C78.019081,147.098328 78.985542,144.021912 79.952003,140.945496 
z"/>
<path fill="#FDFEFE" opacity="1.000000" stroke="none" 
	d="
M77.202560,151.004517 
	C77.601997,151.003418 78.001442,151.002319 78.700455,151.000610 
	C79.332130,151.774567 79.664230,152.549118 79.998016,153.661835 
	C79.298676,153.999069 78.597656,153.998123 77.474625,153.625916 
	C77.102592,152.504608 77.152580,151.754562 77.202560,151.004517 
z"/>
<path fill="#B67B5A" opacity="1.000000" stroke="none" 
	d="
M77.127594,150.589630 
	C77.152580,151.754562 77.102592,152.504608 77.124107,153.625427 
	C77.132736,156.802490 77.231590,159.627167 76.915375,162.404587 
	C76.810974,163.321564 75.635231,164.116547 74.432434,164.721710 
	C73.619247,164.373245 73.322968,164.270355 73.026688,164.167480 
	C73.026688,164.167480 72.571571,164.024277 72.163239,163.697220 
	C70.520599,162.879166 69.286301,162.388168 68.051994,161.897171 
	C67.570992,161.322144 67.089989,160.747116 66.301743,159.736237 
	C65.365425,158.187546 64.736351,157.074692 64.107277,155.961838 
	C64.058578,155.515991 64.009872,155.070160 63.959396,153.874191 
	C63.904385,151.414642 63.851151,149.705215 63.797913,147.995789 
	C63.844635,147.245941 63.891357,146.496094 63.947906,144.966461 
	C63.910286,142.805801 63.862843,141.424942 63.815399,140.044067 
	C63.860359,139.268829 63.905327,138.493607 63.955528,136.918396 
	C63.908150,134.429047 63.855541,132.739670 63.802940,131.050278 
	C63.848091,130.582260 63.893242,130.114243 63.951729,128.855042 
	C64.003502,125.061584 64.041939,122.059311 64.080368,119.057037 
	C64.080368,119.057037 64.019241,118.997429 64.268982,118.949394 
	C64.616844,118.608948 64.714951,118.316544 64.813065,118.024132 
	C64.872795,117.580612 64.932526,117.137100 65.335861,116.164078 
	C68.726868,107.420265 71.774284,99.205963 74.821693,90.991653 
	C74.883995,90.571182 74.946304,90.150703 75.317490,89.210464 
	C76.024490,87.126579 76.422600,85.562469 76.820702,83.998352 
	C77.748001,82.999077 78.665062,81.140068 79.604134,81.128883 
	C94.828491,80.947495 110.055634,81.000526 125.752274,81.000526 
	C125.116585,84.271652 124.547852,87.198196 123.952972,90.530838 
	C123.926826,90.936928 123.964760,90.965881 123.728745,91.031815 
	C123.156654,91.309647 123.060509,91.600769 123.204300,91.971115 
	C123.132927,92.720856 123.061554,93.470589 122.643219,94.824280 
	C121.264992,100.287338 120.233711,105.146446 119.202438,110.005547 
	C119.132690,110.748772 119.062950,111.492004 118.638519,112.826019 
	C116.800476,119.880180 115.317131,126.343559 113.782944,133.028442 
	C107.065376,133.028442 100.766335,132.727783 94.509979,133.115555 
	C88.609657,133.481262 82.853470,134.753860 79.938110,140.960724 
	C79.938110,140.960724 79.962532,140.980362 79.957268,140.962921 
	C78.985542,144.021912 78.019081,147.098328 77.127594,150.589630 
z"/>
<path fill="#B67B5A" opacity="1.000000" stroke="none" 
	d="
M158.996750,133.201294 
	C154.970840,133.151016 150.944946,133.100723 146.083527,133.017944 
	C144.490036,131.297791 143.519043,129.671188 143.014694,127.910873 
	C141.596725,122.961601 140.370895,117.957275 139.069305,112.974663 
	C139.025574,112.229462 138.981857,111.484261 138.926514,109.981026 
	C137.632309,104.472717 136.349731,99.722443 135.067139,94.972168 
	C135.026947,94.217972 134.986771,93.463768 134.885254,92.093338 
	C134.656708,91.159821 134.395599,90.975525 134.040619,90.924232 
	C134.040619,90.924232 134.033768,90.964706 134.052063,90.951630 
	C133.486343,87.763100 132.902328,84.587639 132.241577,80.994972 
	C145.543381,80.994972 158.641708,80.906517 171.737717,81.042595 
	C176.367157,81.090698 175.017395,86.035187 177.107941,88.900757 
	C177.441315,89.710327 177.705856,89.896255 177.970398,90.082184 
	C178.002930,90.517204 178.035461,90.952232 178.122375,91.955261 
	C178.353882,92.838173 178.621948,93.015984 178.980972,93.056709 
	C178.980972,93.056709 179.064285,93.548904 179.120987,94.035919 
	C179.350769,94.840996 179.617218,95.020462 179.977036,95.061340 
	C180.005951,95.228035 180.034851,95.394722 180.079819,96.100204 
	C180.387833,97.115089 180.679764,97.591179 180.971710,98.067261 
	C181.001022,98.505661 181.030350,98.944061 181.116577,99.953781 
	C181.350159,100.841141 181.618164,101.021431 181.977524,101.065964 
	C181.977524,101.065964 182.058655,101.553185 182.113770,102.038864 
	C182.436081,102.708725 182.703293,102.892914 182.970490,103.077103 
	C183.002594,103.513214 183.034683,103.949326 183.122223,104.952286 
	C183.354309,105.826706 183.617722,106.008728 183.967896,106.065193 
	C184.096130,106.937836 184.224365,107.810478 184.681259,109.221741 
	C185.987610,111.879707 186.965302,113.999046 187.942993,116.118393 
	C187.942993,116.118393 188.022217,116.567619 188.045425,117.132996 
	C188.675674,119.146843 189.282730,120.595299 189.889771,122.043762 
	C189.946899,122.490372 190.004013,122.936989 190.053772,124.173027 
	C190.095337,131.958176 190.144257,138.953903 190.193176,145.949615 
	C190.149918,147.367096 190.106659,148.784592 190.056595,150.983063 
	C190.098328,152.495255 190.146881,153.226456 190.195435,153.957642 
	C189.797348,155.032257 189.399277,156.106888 188.734436,157.638916 
	C188.280472,158.385727 188.093231,158.675095 187.905991,158.964462 
	C186.458893,160.280533 185.011795,161.596619 183.020081,163.045807 
	C182.156967,163.344238 181.964569,163.603271 181.898300,163.955963 
	C181.467026,163.978241 181.035751,164.000519 180.033783,164.075836 
	C179.267502,164.394012 179.071930,164.659119 178.876343,164.924225 
	C178.876343,164.924225 178.496887,164.955627 178.306519,164.949249 
	C178.074509,164.776993 178.032852,164.611099 177.973877,163.743622 
	C177.964722,158.094742 178.247681,153.128204 177.902679,148.205688 
	C177.567337,143.421310 176.208618,138.915115 171.042603,136.900558 
	C170.994415,136.561447 170.826050,136.299652 170.222534,135.808746 
	C169.614685,135.401978 169.321808,135.301605 169.028915,135.201233 
	C168.585846,135.131897 168.142761,135.062546 167.152267,134.645966 
	C164.068817,133.932922 161.532776,133.567108 158.996750,133.201294 
z"/>
<path fill="#B47C5B" opacity="1.000000" stroke="none" 
	d="
M180.035400,80.918655 
	C180.035385,80.918655 179.950150,80.441483 179.895813,79.970322 
	C179.664459,79.150497 179.391434,79.040779 179.022369,79.170006 
	C178.348557,78.109100 177.674759,77.048195 176.625443,75.396057 
	C192.287109,75.396057 207.308517,75.396057 222.753693,75.396057 
	C219.860901,83.020905 216.979294,90.667076 214.060074,98.298859 
	C209.730804,109.616875 205.391754,120.931290 200.982971,132.218369 
	C200.749908,132.815002 199.830521,133.143539 199.087616,132.959534 
	C198.313980,131.175949 197.683365,130.029694 197.052765,128.883438 
	C197.021866,128.456436 196.990967,128.029434 196.900299,127.037498 
	C196.571732,126.285866 196.302948,126.099167 196.034180,125.912460 
	C196.034180,125.912460 195.948456,125.434822 195.888733,124.954941 
	C195.650162,124.166534 195.385437,123.979523 195.034866,123.914024 
	C195.002853,123.480171 194.970840,123.046326 194.884979,122.043419 
	C194.566849,121.284332 194.302597,121.094307 194.038330,120.904274 
	C194.038330,120.904274 193.967346,120.445908 193.951477,119.873459 
	C193.312958,117.859055 192.690277,116.417099 192.067596,114.975143 
	C191.035522,112.223167 190.003464,109.471191 188.905121,106.094765 
	C188.574844,105.276985 188.310837,105.083664 188.046844,104.890335 
	C188.016769,104.460571 187.986679,104.030800 187.893372,103.036163 
	C187.566589,102.279922 187.303009,102.088562 187.039429,101.897202 
	C187.039429,101.897194 186.966141,101.427773 186.906982,100.948006 
	C186.579712,100.277466 186.311615,100.086693 186.043533,99.895920 
	C186.013947,99.465584 185.984344,99.035255 185.898529,98.036133 
	C185.576233,97.273964 185.310150,97.080597 185.044083,96.887238 
	C185.012512,96.459023 184.980927,96.030800 184.888428,95.038811 
	C184.561600,94.288971 184.295700,94.102913 184.029785,93.916847 
	C184.029785,93.916847 183.953674,93.434769 183.884460,92.955795 
	C183.643890,92.162743 183.381836,91.975639 183.029099,91.915527 
	C183.029099,91.915527 182.954376,91.451698 182.941818,90.864197 
	C181.976807,88.145813 181.024353,86.014923 180.071884,83.884041 
	C180.071884,83.884041 180.041031,83.496574 180.317551,83.161110 
	C180.407837,82.189980 180.221619,81.554314 180.035400,80.918655 
z"/>
<path fill="#B47C5B" opacity="1.000000" stroke="none" 
	d="
M73.201218,79.007744 
	C72.862442,79.473648 72.523674,79.939545 71.807846,80.800545 
	C71.598595,81.837791 71.766396,82.479942 71.934204,83.122093 
	C71.941269,83.509071 71.948334,83.896049 71.709335,84.677582 
	C71.363823,85.373596 71.264374,85.675049 71.164932,85.976494 
	C71.108749,86.419044 71.052567,86.861595 70.646255,87.839546 
	C67.259125,96.586823 64.222122,104.798706 61.185120,113.010590 
	C58.801960,119.902946 56.418797,126.795296 53.668259,134.750137 
	C46.268078,114.520027 39.295208,95.458076 32.404079,76.619576 
	C46.760235,76.619576 60.629574,76.619576 73.956375,76.934830 
	C73.342964,77.835976 73.272087,78.421860 73.201218,79.007744 
z"/>
<path fill="#FEF9EE" opacity="1.000000" stroke="none" 
	d="
M61.530800,113.016586 
	C64.222122,104.798706 67.259125,96.586823 70.603485,88.172150 
	C71.983223,88.972290 73.055603,89.975227 74.474838,90.984909 
	C71.774284,99.205963 68.726868,107.420265 65.372437,115.829674 
	C64.002434,115.024040 62.939457,114.023315 61.530800,113.016586 
z"/>
<path fill="#FEF9F0" opacity="1.000000" stroke="none" 
	d="
M191.789490,115.155975 
	C192.690277,116.417099 193.312958,117.859055 193.881409,119.652382 
	C192.704483,120.564713 191.581787,121.125664 190.174423,121.865189 
	C189.282730,120.595299 188.675674,119.146843 188.125626,117.346512 
	C189.292206,116.442039 190.401779,115.889420 191.789490,115.155975 
z"/>
<path fill="#FEF9F0" opacity="1.000000" stroke="none" 
	d="
M190.449020,145.631622 
	C190.144257,138.953903 190.095337,131.958176 190.125000,124.503220 
	C190.714249,125.056602 191.690628,126.083855 191.659332,127.079445 
	C191.468231,133.161484 191.048416,139.236359 190.449020,145.631622 
z"/>
<path fill="#FEF9EE" opacity="1.000000" stroke="none" 
	d="
M63.711990,119.097900 
	C64.041939,122.059311 64.003502,125.061584 63.886955,128.506775 
	C63.653767,125.679390 63.498688,122.409073 63.711990,119.097900 
z"/>
<path fill="#FEF9EE" opacity="1.000000" stroke="none" 
	d="
M63.461338,148.075684 
	C63.851151,149.705215 63.904385,151.414642 63.885544,153.545853 
	C63.583904,152.030289 63.354336,150.092926 63.461338,148.075684 
z"/>
<path fill="#FEF9F0" opacity="1.000000" stroke="none" 
	d="
M180.050262,84.281693 
	C181.024353,86.014923 181.976807,88.145813 182.872375,90.639793 
	C181.886536,88.895042 180.957596,86.787193 180.050262,84.281693 
z"/>
<path fill="#FEF9F0" opacity="1.000000" stroke="none" 
	d="
M187.960358,115.714554 
	C186.965302,113.999046 185.987610,111.879707 184.965378,109.395935 
	C185.939789,111.124588 186.958755,113.217651 187.960358,115.714554 
z"/>
<path fill="#FEF9EE" opacity="1.000000" stroke="none" 
	d="
M63.844902,156.145660 
	C64.736351,157.074692 65.365425,158.187546 66.035446,159.633789 
	C65.245102,158.754623 64.413811,157.542038 63.844902,156.145660 
z"/>
<path fill="#FEF9EE" opacity="1.000000" stroke="none" 
	d="
M63.586922,140.267670 
	C63.862843,141.424942 63.910286,142.805801 63.879738,144.595459 
	C63.653984,143.499924 63.506214,141.995605 63.586922,140.267670 
z"/>
<path fill="#FEF9EE" opacity="1.000000" stroke="none" 
	d="
M76.462959,84.087654 
	C76.422600,85.562469 76.024490,87.126579 75.334106,88.891037 
	C75.396294,87.453247 75.750748,85.815094 76.462959,84.087654 
z"/>
<path fill="#FEF9EE" opacity="1.000000" stroke="none" 
	d="
M68.096100,162.270142 
	C69.286301,162.388168 70.520599,162.879166 71.927551,163.660339 
	C70.780197,163.514709 69.460205,163.078903 68.096100,162.270142 
z"/>
<path fill="#FEF9EE" opacity="1.000000" stroke="none" 
	d="
M63.567062,131.311996 
	C63.855541,132.739670 63.908150,134.429047 63.885715,136.534973 
	C63.650845,135.158920 63.491020,133.366318 63.567062,131.311996 
z"/>
<path fill="#FEF9F0" opacity="1.000000" stroke="none" 
	d="
M197.037323,129.258286 
	C197.683365,130.029694 198.313980,131.175949 198.885452,132.660553 
	C198.224838,131.876968 197.623352,130.755051 197.037323,129.258286 
z"/>
<path fill="#FEF9F0" opacity="1.000000" stroke="none" 
	d="
M190.407623,153.766174 
	C190.146881,153.226456 190.098328,152.495255 190.126068,151.403839 
	C190.341522,151.887299 190.480667,152.731003 190.407623,153.766174 
z"/>
<path fill="#FEF9EE" opacity="1.000000" stroke="none" 
	d="
M73.440521,78.988434 
	C73.272087,78.421860 73.342964,77.835976 73.720261,77.204025 
	C73.911064,77.761673 73.795448,78.365395 73.440521,78.988434 
z"/>
<path fill="#FEF9EE" opacity="1.000000" stroke="none" 
	d="
M71.957184,82.760178 
	C71.766396,82.479942 71.598595,81.837791 71.704758,81.071693 
	C71.979218,81.431252 71.979691,81.914749 71.957184,82.760178 
z"/>
<path fill="#FEF9F0" opacity="1.000000" stroke="none" 
	d="
M180.024017,81.283730 
	C180.221619,81.554314 180.407837,82.189980 180.327118,82.967003 
	C180.044327,82.621841 180.028488,82.135323 180.024017,81.283730 
z"/>
<path fill="#FEF9F0" opacity="1.000000" stroke="none" 
	d="
M180.971527,97.782181 
	C180.679764,97.591179 180.387833,97.115089 180.160553,96.340790 
	C180.473923,96.527412 180.722626,97.012253 180.971527,97.782181 
z"/>
<path fill="#FEF9F0" opacity="1.000000" stroke="none" 
	d="
M178.912872,92.844292 
	C178.621948,93.015984 178.353882,92.838173 178.192230,92.274887 
	C178.488327,92.156471 178.700684,92.358261 178.912872,92.844292 
z"/>
<path fill="#FEF9F0" opacity="1.000000" stroke="none" 
	d="
M179.109589,79.342453 
	C179.391434,79.040779 179.664459,79.150497 179.822388,79.739349 
	C179.554092,79.886078 179.351913,79.731194 179.109589,79.342453 
z"/>
<path fill="#FEF9F0" opacity="1.000000" stroke="none" 
	d="
M179.910889,94.848183 
	C179.617218,95.020462 179.350769,94.840996 179.193939,94.274612 
	C179.490692,94.157295 179.702209,94.360199 179.910889,94.848183 
z"/>
<path fill="#FEF9F0" opacity="1.000000" stroke="none" 
	d="
M183.093201,92.132812 
	C183.381836,91.975639 183.643890,92.162743 183.805359,92.724945 
	C183.510757,92.839142 183.298035,92.631485 183.093201,92.132812 
z"/>
<path fill="#FEF9F0" opacity="1.000000" stroke="none" 
	d="
M184.094574,94.134933 
	C184.295700,94.102913 184.561600,94.288971 184.815735,94.725098 
	C184.517395,94.842056 184.302536,94.634674 184.094574,94.134933 
z"/>
<path fill="#FEF9F0" opacity="1.000000" stroke="none" 
	d="
M188.149872,158.862259 
	C188.093231,158.675095 188.280472,158.385727 188.710114,157.992371 
	C188.766281,158.178940 188.580017,158.469498 188.149872,158.862259 
z"/>
<path fill="#FEF9F0" opacity="1.000000" stroke="none" 
	d="
M182.118103,163.898254 
	C181.964569,163.603271 182.156967,163.344238 182.723984,163.194504 
	C182.834991,163.494751 182.623474,163.704895 182.118103,163.898254 
z"/>
<path fill="#FEF9EE" opacity="1.000000" stroke="none" 
	d="
M73.155533,164.360626 
	C73.322968,164.270355 73.619247,164.373245 74.012344,164.710358 
	C73.785919,164.916245 73.510994,164.785980 73.155533,164.360626 
z"/>
<path fill="#FEF9F0" opacity="1.000000" stroke="none" 
	d="
M179.103561,164.869598 
	C179.071930,164.659119 179.267502,164.394012 179.716721,164.141968 
	C179.838791,164.454163 179.625610,164.674149 179.103561,164.869598 
z"/>
<path fill="#FEF9F0" opacity="1.000000" stroke="none" 
	d="
M177.906830,89.865471 
	C177.705856,89.896255 177.441315,89.710327 177.192780,89.274872 
	C177.491608,89.160538 177.703094,89.368340 177.906830,89.865471 
z"/>
<path fill="#FEF9EE" opacity="1.000000" stroke="none" 
	d="
M64.625305,118.150024 
	C64.714951,118.316544 64.616844,118.608948 64.284241,118.989258 
	C64.082359,118.763275 64.211632,118.496193 64.625305,118.150024 
z"/>
<path fill="#FEF9F0" opacity="1.000000" stroke="none" 
	d="
M185.105530,97.110733 
	C185.310150,97.080597 185.576233,97.273964 185.830261,97.719910 
	C185.525284,97.837112 185.308212,97.624367 185.105530,97.110733 
z"/>
<path fill="#FEF9F0" opacity="1.000000" stroke="none" 
	d="
M181.909943,100.851410 
	C181.618164,101.021431 181.350159,100.841141 181.186890,100.275726 
	C181.483795,100.156738 181.697830,100.360237 181.909943,100.851410 
z"/>
<path fill="#FEF9F0" opacity="1.000000" stroke="none" 
	d="
M186.106339,100.118576 
	C186.311615,100.086693 186.579712,100.277466 186.835526,100.721451 
	C186.530716,100.840446 186.312683,100.629303 186.106339,100.118576 
z"/>
<path fill="#FEF9F0" opacity="1.000000" stroke="none" 
	d="
M182.905762,102.860764 
	C182.703293,102.892914 182.436081,102.708725 182.185532,102.275177 
	C182.486176,102.158676 182.699127,102.364883 182.905762,102.860764 
z"/>
<path fill="#FEF9F0" opacity="1.000000" stroke="none" 
	d="
M187.101593,102.118431 
	C187.303009,102.088562 187.566589,102.279922 187.820190,102.721451 
	C187.519958,102.837440 187.304474,102.626793 187.101593,102.118431 
z"/>
<path fill="#FEF9F0" opacity="1.000000" stroke="none" 
	d="
M183.903656,105.851364 
	C183.617722,106.008728 183.354309,105.826706 183.192062,105.272720 
	C183.486847,105.158180 183.697845,105.361916 183.903656,105.851364 
z"/>
<path fill="#FEF9F0" opacity="1.000000" stroke="none" 
	d="
M196.099915,126.132050 
	C196.302948,126.099167 196.571732,126.285866 196.828781,126.724472 
	C196.527649,126.843483 196.310516,126.635231 196.099915,126.132050 
z"/>
<path fill="#FEF9F0" opacity="1.000000" stroke="none" 
	d="
M195.097870,124.131836 
	C195.385437,123.979523 195.650162,124.166534 195.814545,124.723923 
	C195.514572,124.839363 195.301514,124.631653 195.097870,124.131836 
z"/>
<path fill="#FEF9F0" opacity="1.000000" stroke="none" 
	d="
M188.106781,105.112762 
	C188.310837,105.083664 188.574844,105.276985 188.824585,105.722031 
	C188.520538,105.836739 188.306000,105.623886 188.106781,105.112762 
z"/>
<path fill="#FEF9F0" opacity="1.000000" stroke="none" 
	d="
M194.099884,121.123886 
	C194.302597,121.094307 194.566849,121.284332 194.815552,121.724625 
	C194.513901,121.838478 194.301041,121.628014 194.099884,121.123886 
z"/>
<path fill="#FEF9EE" opacity="1.000000" stroke="none" 
	d="
M71.358719,85.842484 
	C71.264374,85.675049 71.363823,85.373596 71.695831,84.967621 
	C71.909943,85.192406 71.784645,85.474205 71.358719,85.842484 
z"/>
<path fill="#FEFDF9" opacity="1.000000" stroke="none" 
	d="
M80.315506,140.978180 
	C82.853470,134.753860 88.609657,133.481262 94.509979,133.115555 
	C100.766335,132.727783 107.065376,133.028442 113.782944,133.028442 
	C115.317131,126.343559 116.800476,119.880180 118.599159,113.198082 
	C119.941650,114.062225 121.873528,115.180298 121.833000,116.221588 
	C121.688896,119.923729 120.872856,123.599724 120.155655,127.642807 
	C119.145164,129.051620 117.893318,129.976425 117.509323,131.178452 
	C116.319351,134.903473 114.692352,136.293808 110.256874,135.477356 
	C105.766151,134.650757 100.929344,135.704285 95.854012,135.953430 
	C95.935150,136.371445 96.140686,137.430374 96.339035,138.452301 
	C92.654587,141.099350 90.264832,131.756744 86.382416,137.597855 
	C87.214638,139.310196 88.061981,141.053635 89.507858,144.028595 
	C85.552139,142.667557 83.122520,141.831604 80.315506,140.978180 
z"/>
<path fill="#FEFDF9" opacity="1.000000" stroke="none" 
	d="
M171.017761,137.306061 
	C176.208618,138.915115 177.567337,143.421310 177.902679,148.205688 
	C178.247681,153.128204 177.964722,158.094742 177.885864,163.502625 
	C176.597855,157.980103 175.380539,151.996948 173.939346,144.913391 
	C172.073257,144.270767 168.563995,143.062271 164.787872,141.761887 
	C167.158722,140.214340 169.075836,138.962967 171.017761,137.306061 
z"/>
<path fill="#FEFDF9" opacity="1.000000" stroke="none" 
	d="
M138.753143,113.131241 
	C140.370895,117.957275 141.596725,122.961601 143.014694,127.910873 
	C143.519043,129.671188 144.490036,131.297791 145.625076,133.087677 
	C145.523407,135.429794 144.579758,136.740402 142.341858,134.780426 
	C138.805496,131.683228 136.420288,118.350288 138.753143,113.131241 
z"/>
<path fill="#FEFDF9" opacity="1.000000" stroke="none" 
	d="
M119.577538,110.003067 
	C120.233711,105.146446 121.264992,100.287338 122.613991,95.200790 
	C127.414413,101.571068 126.113831,108.131531 119.577538,110.003067 
z"/>
<path fill="#FEFDF9" opacity="1.000000" stroke="none" 
	d="
M134.771530,95.211960 
	C136.349731,99.722443 137.632309,104.472717 138.857666,109.614105 
	C133.800858,110.601028 133.688278,106.426170 133.264435,103.534973 
	C132.886261,100.955208 134.013184,98.154793 134.771530,95.211960 
z"/>
<path fill="#FEFDF9" opacity="1.000000" stroke="none" 
	d="
M159.047119,133.555237 
	C161.532776,133.567108 164.068817,133.932922 166.816559,134.611877 
	C166.829041,135.180847 166.650818,135.456863 166.427444,135.689560 
	C161.885010,140.421341 161.425735,140.308914 159.047119,133.555237 
z"/>
<path fill="#FEFDF9" opacity="1.000000" stroke="none" 
	d="
M129.732788,96.803207 
	C124.502693,95.461357 128.099152,93.400139 128.228012,91.592651 
	C128.849945,91.549370 129.471893,91.506088 130.093842,91.462807 
	C130.093842,93.209625 130.093842,94.956444 129.732788,96.803207 
z"/>
<path fill="#FEFDF9" opacity="1.000000" stroke="none" 
	d="
M134.102203,91.139114 
	C134.395599,90.975525 134.656708,91.159821 134.807556,91.723747 
	C134.510315,91.837952 134.301163,91.632492 134.102203,91.139114 
z"/>
<path fill="#FEFDF9" opacity="1.000000" stroke="none" 
	d="
M123.388977,91.844254 
	C123.060509,91.600769 123.156654,91.309647 123.725563,91.009796 
	C123.922058,91.231491 123.793816,91.496674 123.388977,91.844254 
z"/>
<path fill="#FEFDF9" opacity="1.000000" stroke="none" 
	d="
M169.156418,135.387482 
	C169.321808,135.301605 169.614685,135.401978 169.993896,135.737335 
	C169.770203,135.928482 169.504776,135.795624 169.156418,135.387482 
z"/>
</svg>