<svg version="1.1" id="Layer_1" xmlns="http://www.w3.org/2000/svg" xmlns:xlink="http://www.w3.org/1999/xlink" x="0px" y="0px"
	 width="100%" viewBox="0 0 256 256" enable-background="new 0 0 256 256" xml:space="preserve">
<path fill="#010101" opacity="1.000000" stroke="none" 
	d="
M115.000000,1.000001 
	C123.354233,1.000000 131.708466,1.000000 140.685944,1.380483 
	C201.664780,9.006915 245.323868,50.700520 255.446854,110.702942 
	C255.696152,112.180580 256.470520,113.569633 257.000000,115.000000 
	C257.000000,124.020897 257.000000,133.041794 256.617004,142.650024 
	C256.090332,143.880508 255.896240,144.516983 255.810074,145.167725 
	C248.274719,202.085327 205.233719,244.643814 152.820633,254.552795 
	C148.867493,255.300171 144.939621,256.181152 141.000000,257.000000 
	C132.645767,257.000000 124.291534,257.000000 115.350403,256.616699 
	C114.121277,256.088318 113.485596,255.897354 112.835899,255.804642 
	C77.968025,250.828415 49.605541,234.568130 27.706566,206.949356 
	C25.761906,204.496765 23.056690,202.647232 20.950241,200.739929 
	C19.716812,197.491440 18.806015,194.018555 17.158575,190.939819 
	C10.039198,177.635254 5.058500,163.649017 2.767197,148.708282 
	C2.518505,147.086655 1.605088,145.566971 1.000000,144.000000 
	C1.000000,134.645767 1.000000,125.291542 1.382739,115.349541 
	C2.138743,112.807785 2.575193,110.863480 2.876066,108.898415 
	C11.193819,54.573616 54.696178,11.182856 109.195961,2.795822 
	C111.175873,2.491130 113.067322,1.611622 115.000000,1.000001 
M65.201485,165.718918 
	C68.467300,167.090424 71.733116,168.461945 75.615387,169.989761 
	C76.038925,170.007126 76.462471,170.024490 76.993484,170.968414 
	C76.996284,180.790176 77.112831,190.613586 76.971680,200.433289 
	C76.812653,211.496597 85.164146,216.741714 93.095825,216.867813 
	C116.063026,217.232971 139.042145,217.184723 162.011490,216.895569 
	C170.019913,216.794739 178.792587,210.215866 178.117584,200.328918 
	C177.540634,191.878311 178.114197,183.354660 177.941193,174.868164 
	C177.873993,171.572311 178.393143,169.845764 182.185989,168.753830 
	C189.847092,166.548264 194.906235,159.505402 194.980469,152.476028 
	C195.020859,148.652390 194.887772,144.826920 194.988907,140.285095 
	C195.019012,139.658142 195.049103,139.031189 195.103333,137.901321 
	C196.750885,140.727142 198.104828,143.049377 199.458771,145.371628 
	C200.009613,145.373016 200.560440,145.374390 201.111282,145.375778 
	C203.053848,140.732529 205.137802,136.142654 206.914169,131.436676 
	C214.098831,112.402977 221.127579,93.310204 228.371658,74.299362 
	C229.634216,70.986000 228.553680,69.990433 225.481583,70.001495 
	C212.653839,70.047699 199.826141,70.110374 186.181183,70.014534 
	C182.886780,70.010406 179.576904,70.206596 176.301682,69.953979 
	C171.688110,69.598129 169.633438,70.972145 172.105087,76.001816 
	C169.788330,76.001816 167.971329,75.998741 166.154327,76.002281 
	C138.102875,76.056969 110.051407,76.112503 81.270737,76.008255 
	C80.421249,73.853569 81.482224,70.781982 77.007729,70.874825 
	C61.352890,71.199638 45.687172,71.011505 30.025621,70.992142 
	C26.522205,70.987808 25.353312,71.744049 26.852785,75.726761 
	C35.144550,97.750313 43.097961,119.901268 51.066990,142.546524 
	C51.364925,142.736816 51.662861,142.927124 52.280869,143.788727 
	C53.555370,142.997330 55.233963,142.482712 56.009899,141.349838 
	C57.181408,139.639404 57.723145,137.497635 58.838322,134.799286 
	C58.978195,137.441437 59.072330,139.219666 59.010056,141.740524 
	C59.062016,142.493942 59.113972,143.247375 59.013271,144.917160 
	C59.009327,146.715652 59.106560,148.521133 58.982903,150.311356 
	C58.574665,156.221344 59.959663,161.373383 64.985909,165.014618 
	C64.985909,165.014618 64.904953,165.060516 65.201485,165.718918 
z"/>
<path fill="#FDFDFD" opacity="1.000000" stroke="none" 
	d="
M257.000000,114.531342 
	C256.470520,113.569633 255.696152,112.180580 255.446854,110.702942 
	C245.323868,50.700520 201.664780,9.006915 141.154587,1.380483 
	C179.592987,1.000000 218.185974,1.000000 257.000000,1.000000 
	C257.000000,38.687271 257.000000,76.374977 257.000000,114.531342 
z"/>
<path fill="#FDFDFD" opacity="1.000000" stroke="none" 
	d="
M141.468658,257.000000 
	C144.939621,256.181152 148.867493,255.300171 152.820633,254.552795 
	C205.233719,244.643814 248.274719,202.085327 255.810074,145.167725 
	C255.896240,144.516983 256.090332,143.880508 256.617004,143.118683 
	C257.000000,180.927597 257.000000,218.855179 257.000000,257.000000 
	C218.646042,257.000000 180.291687,257.000000 141.468658,257.000000 
z"/>
<path fill="#FDFDFD" opacity="1.000000" stroke="none" 
	d="
M114.531342,1.000001 
	C113.067322,1.611622 111.175873,2.491130 109.195961,2.795822 
	C54.696178,11.182856 11.193819,54.573616 2.876066,108.898415 
	C2.575193,110.863480 2.138743,112.807785 1.382739,114.880882 
	C1.000000,77.073044 1.000000,39.146091 1.000000,1.000000 
	C38.687279,1.000000 76.374977,1.000000 114.531342,1.000001 
z"/>
<path fill="#FDFDFD" opacity="1.000000" stroke="none" 
	d="
M1.000000,144.468658 
	C1.605088,145.566971 2.518505,147.086655 2.767197,148.708282 
	C5.058500,163.649017 10.039198,177.635254 17.158575,190.939819 
	C18.806015,194.018555 19.716812,197.491440 20.950241,200.739929 
	C23.056690,202.647232 25.761906,204.496765 27.706566,206.949356 
	C49.605541,234.568130 77.968025,250.828415 112.835899,255.804642 
	C113.485596,255.897354 114.121277,256.088318 114.881744,256.616699 
	C77.073364,257.000000 39.146732,257.000000 1.000000,257.000000 
	C1.000000,219.646057 1.000000,182.291687 1.000000,144.468658 
z"/>
<path fill="#FFFFFF" opacity="1.000000" stroke="none" 
	d="
M194.832916,141.002274 
	C194.887772,144.826920 195.020859,148.652390 194.980469,152.476028 
	C194.906235,159.505402 189.847092,166.548264 182.185989,168.753830 
	C178.393143,169.845764 177.873993,171.572311 177.941193,174.868164 
	C178.114197,183.354660 177.540634,191.878311 178.117584,200.328918 
	C178.792587,210.215866 170.019913,216.794739 162.011490,216.895569 
	C139.042145,217.184723 116.063026,217.232971 93.095825,216.867813 
	C85.164146,216.741714 76.812653,211.496597 76.971680,200.433289 
	C77.112831,190.613586 76.996284,180.790176 77.294891,170.441467 
	C80.115646,167.852356 79.038269,166.319229 76.918121,164.485229 
	C77.044296,158.006714 77.118011,151.990189 77.381088,145.840500 
	C77.794640,145.476593 77.924026,145.201279 77.994408,144.655151 
	C78.030205,144.428940 78.196907,144.002304 78.528023,143.932770 
	C79.223175,142.885727 79.587204,141.908234 79.970253,140.965820 
	C79.989265,141.000931 79.924889,140.953659 80.283737,140.937225 
	C83.429474,138.681778 86.216377,136.442749 89.314079,134.129089 
	C90.049995,134.023956 90.475113,133.993439 91.119560,133.900055 
	C91.623718,133.698059 91.834991,133.485748 92.437988,133.128738 
	C99.603050,133.094574 106.302834,133.131912 113.071915,133.505692 
	C114.373344,133.597641 116.550117,133.606491 116.693954,133.070145 
	C118.460815,126.481682 123.182297,120.154877 118.977951,112.508911 
	C119.397606,110.400307 119.798409,108.684334 120.482819,106.799973 
	C124.918098,103.378159 126.215492,99.597649 122.954102,94.639542 
	C123.051224,93.874329 123.114388,93.438591 123.531883,92.947090 
	C126.770988,91.360779 126.597076,89.295692 124.957047,86.639267 
	C125.056572,85.875389 125.120392,85.440384 125.542076,84.997704 
	C128.204529,84.995247 130.509109,85.000465 132.887878,85.327957 
	C133.000381,86.089401 133.038712,86.528572 132.793350,87.197281 
	C131.653320,89.960594 131.384079,92.250832 134.895630,93.325790 
	C135.005585,94.088478 135.042725,94.528244 134.832184,95.133888 
	C131.144806,100.433784 133.631058,103.933525 137.979340,107.314980 
	C138.450623,109.408585 138.745102,111.155739 138.986816,113.286255 
	C138.291458,115.325310 136.837677,117.157524 137.152649,118.604790 
	C138.264557,123.713837 139.945297,128.703445 141.612106,133.670624 
	C141.675858,133.860565 143.821594,133.351837 145.459915,133.102005 
	C150.946594,133.085541 155.970490,133.135742 161.002594,133.545273 
	C162.158646,139.378326 164.798843,136.154495 167.434235,134.964996 
	C168.867966,135.613007 169.960373,136.244186 171.004364,137.245422 
	C169.792206,141.948242 171.995697,144.972351 177.872894,147.438248 
	C177.896988,149.913010 177.846451,151.955521 177.471405,154.071503 
	C177.362915,155.430679 177.578888,156.716354 177.868164,158.430847 
	C177.992020,160.887390 178.042572,162.915100 177.839600,165.129059 
	C177.914993,166.063690 178.243881,166.812119 178.572769,167.560532 
	C180.376938,164.610641 186.376740,166.331589 186.070496,160.652466 
	C186.752045,159.915436 187.330856,159.443817 188.150681,158.870911 
	C188.581558,158.485245 188.771439,158.200882 188.971283,157.954926 
	C188.981277,157.993317 188.916183,157.947922 189.251617,157.922134 
	C189.701538,156.921326 189.816010,155.946304 189.964188,154.557159 
	C190.062622,152.762558 190.127335,151.382065 190.504913,149.942169 
	C190.607117,148.921417 190.396469,147.960098 190.115204,146.574860 
	C190.094772,144.435486 190.144989,142.719986 190.581665,141.003708 
	C192.256393,141.002701 193.544662,141.002487 194.832916,141.002274 
M152.629211,143.892548 
	C153.582642,141.360550 152.620499,140.024658 150.002045,140.017868 
	C136.362762,139.982452 122.723228,139.970428 109.084076,140.024658 
	C106.166664,140.036270 105.266258,141.473022 106.640533,144.201935 
	C108.801239,148.492462 110.871170,152.828613 113.013779,157.128403 
	C117.447121,166.025208 121.851166,174.937531 126.407249,183.771271 
	C127.066833,185.050125 128.500137,185.929947 129.575394,186.994415 
	C130.630890,185.889862 132.063171,184.962234 132.678879,183.651138 
	C135.923615,176.741745 138.768097,169.640244 142.129898,162.791138 
	C145.188507,156.559753 148.731430,150.566101 152.629211,143.892548 
M87.296165,141.432098 
	C87.010681,141.704590 86.725197,141.977081 86.439713,142.249557 
	C86.552704,142.367706 86.757713,142.594772 86.765411,142.588272 
	C87.066513,142.333954 87.349640,142.058365 87.296165,141.432098 
z"/>
<path fill="#FEFDFA" opacity="1.000000" stroke="none" 
	d="
M194.910919,140.643677 
	C193.544662,141.002487 192.256393,141.002701 190.504608,140.540497 
	C190.288696,129.844086 190.048004,119.833260 185.249084,110.245193 
	C182.067596,103.888649 180.317184,96.815826 178.283051,90.042007 
	C179.445648,89.638527 180.251343,89.256699 181.425613,88.942406 
	C184.168350,94.649124 186.665695,100.240250 188.888779,105.938377 
	C192.525101,115.258881 195.982910,124.649040 200.022537,135.351776 
	C207.947937,114.421501 215.326126,94.936348 222.945084,74.815353 
	C209.909119,74.815353 197.952271,74.815353 186.000977,74.470726 
	C186.337173,72.806404 186.667801,71.486702 186.998428,70.167007 
	C199.826141,70.110374 212.653839,70.047699 225.481583,70.001495 
	C228.553680,69.990433 229.634216,70.986000 228.371658,74.299362 
	C221.127579,93.310204 214.098831,112.402977 206.914169,131.436676 
	C205.137802,136.142654 203.053848,140.732529 201.111282,145.375778 
	C200.560440,145.374390 200.009613,145.373016 199.458771,145.371628 
	C198.104828,143.049377 196.750885,140.727142 195.103333,137.901321 
	C195.049103,139.031189 195.019012,139.658142 194.910919,140.643677 
z"/>
<path fill="#FEFFFE" opacity="1.000000" stroke="none" 
	d="
M51.167316,142.008560 
	C43.097961,119.901268 35.144550,97.750313 26.852785,75.726761 
	C25.353312,71.744049 26.522205,70.987808 30.025621,70.992142 
	C45.687172,71.011505 61.352890,71.199638 77.007729,70.874825 
	C81.482224,70.781982 80.421249,73.853569 81.635361,76.475113 
	C82.000175,78.232224 82.000359,79.522469 81.620468,80.885040 
	C80.090088,81.314949 78.939796,81.672539 77.605042,82.157257 
	C77.201454,82.504204 77.069237,82.767654 77.004364,83.396988 
	C76.923668,84.143768 76.862534,84.568314 76.456406,84.989502 
	C74.786652,84.658569 73.461884,84.330986 72.065857,83.788567 
	C71.994598,83.573723 71.944649,83.123772 71.963364,82.757965 
	C71.978760,81.903824 71.975433,81.415489 72.046150,80.697037 
	C72.307861,80.174644 72.574326,80.009460 73.280479,79.926987 
	C74.069901,78.877464 74.498428,77.872330 74.935379,76.684784 
	C74.943794,76.502388 74.924042,76.137741 74.916977,75.835968 
	C74.548653,75.155960 74.187393,74.777733 73.826134,74.399506 
	C73.551895,74.883446 73.277664,75.367386 72.661987,75.911430 
	C71.863876,75.916267 71.407211,75.860992 70.707260,75.575974 
	C68.993095,75.494232 67.522217,75.642227 65.588242,75.865295 
	C60.416859,75.894630 55.708565,75.848900 50.889549,75.424225 
	C45.527363,74.784882 40.276783,74.496010 35.022297,74.332932 
	C34.697739,74.322853 34.342426,75.303650 33.718849,75.905426 
	C32.982071,76.278282 32.527863,76.569153 32.126526,77.088303 
	C32.315136,77.614311 32.530838,77.833267 32.892090,78.292633 
	C32.980625,79.045631 33.003578,79.479477 33.092842,80.130348 
	C33.300838,80.628822 33.514309,80.836479 33.884171,81.192612 
	C33.968784,81.414879 34.043346,81.884651 34.104572,82.107124 
	C34.304344,82.619049 34.518150,82.833466 34.878803,83.301445 
	C34.990963,84.076546 35.031528,84.523048 34.803600,85.168541 
	C35.062023,86.228836 35.588936,87.090126 36.376907,88.088791 
	C36.766491,88.791725 36.895023,89.357292 37.088413,90.135742 
	C37.290047,90.625351 37.497051,90.831573 37.860493,91.283112 
	C37.974812,92.034523 38.002914,92.470123 38.097919,93.125458 
	C38.309113,93.629791 38.526043,93.839104 38.891922,94.299538 
	C39.010941,95.070724 39.053642,95.515526 38.825180,96.156799 
	C39.068333,97.222824 39.582649,98.092369 40.384495,99.125175 
	C40.794804,100.154182 40.917587,101.019920 41.103477,102.108612 
	C41.307529,102.621429 41.523876,102.834892 41.891819,103.196632 
	C41.968010,103.421318 42.038631,103.890549 42.101044,104.111588 
	C42.302151,104.620102 42.515106,104.833458 42.873837,105.301888 
	C42.984608,106.078461 43.023861,106.525856 42.796783,107.171471 
	C43.051010,108.225945 43.571571,109.082199 44.059906,109.973389 
	C44.027683,110.008331 44.063900,109.920609 44.044086,110.337097 
	C45.401535,116.074593 44.732967,122.210869 50.047707,125.977272 
	C50.015415,126.004601 50.053658,125.929237 50.036095,126.342972 
	C50.309269,129.130753 48.843525,132.298172 52.919987,133.205383 
	C53.001789,133.411575 53.065331,133.850662 53.088547,134.181671 
	C53.531700,134.801956 53.951633,135.091232 54.371571,135.380508 
	C54.565845,134.216324 54.760120,133.052155 54.974220,131.565643 
	C55.062294,130.819565 55.130550,130.395782 55.385788,129.842773 
	C55.794769,129.489914 55.927643,129.222046 56.011398,128.666870 
	C56.051411,128.423798 56.210609,127.957550 56.421703,127.760979 
	C56.740322,127.006706 56.847851,126.449005 56.985664,125.663589 
	C57.015957,125.435867 57.172058,125.003746 57.550686,124.994431 
	C59.457283,124.745979 60.985256,124.506851 63.424088,124.125160 
	C62.629848,126.601372 61.555351,128.304352 61.705391,129.891571 
	C61.902405,131.975662 63.064186,133.968567 63.882835,136.371826 
	C63.908756,137.494354 63.862904,138.245728 63.495216,139.037231 
	C61.837742,139.717529 60.502106,140.357712 59.166466,140.997910 
	C59.072330,139.219666 58.978195,137.441437 58.838322,134.799286 
	C57.723145,137.497635 57.181408,139.639404 56.009899,141.349838 
	C55.233963,142.482712 53.555370,142.997330 52.054016,143.226715 
	C51.680626,142.372192 51.460678,142.153473 51.167316,142.008560 
z"/>
<path fill="#FFFFFF" opacity="1.000000" stroke="none" 
	d="
M82.000542,80.812714 
	C82.000359,79.522469 82.000175,78.232224 81.999969,76.554916 
	C110.051407,76.112503 138.102875,76.056969 166.154327,76.002281 
	C167.971329,75.998741 169.788330,76.001816 172.105087,76.001816 
	C169.633438,70.972145 171.688110,69.598129 176.301682,69.953979 
	C179.576904,70.206596 182.886780,70.010406 186.589813,70.090775 
	C186.667801,71.486702 186.337173,72.806404 185.560760,74.540321 
	C182.322006,74.954544 179.529053,74.954544 177.171585,74.954544 
	C178.496994,79.703041 179.777008,84.288963 181.057037,88.874878 
	C180.251343,89.256699 179.445648,89.638527 178.302002,90.028221 
	C177.964020,90.036087 177.958817,90.079437 177.896393,89.863075 
	C177.694824,89.366493 177.483612,89.159996 177.112610,88.665070 
	C176.337479,86.239258 175.650070,84.175613 174.863602,81.865379 
	C174.477997,81.422363 174.191467,81.225937 173.442444,81.014236 
	C159.366959,81.020943 145.753952,81.042931 131.758514,81.079834 
	C129.634491,81.396561 127.892891,81.698372 125.882050,81.655579 
	C123.805626,81.204948 121.998978,81.017921 120.191170,81.005913 
	C107.461090,80.921341 94.730782,80.872780 82.000542,80.812714 
z"/>
<path fill="#FEFDFA" opacity="1.000000" stroke="none" 
	d="
M59.088261,141.369217 
	C60.502106,140.357712 61.837742,139.717529 63.572083,139.499664 
	C63.978649,143.375717 63.988354,146.829407 63.994003,150.283112 
	C64.008659,159.239960 67.796402,163.556091 76.865669,164.947205 
	C79.038269,166.319229 80.115646,167.852356 77.241150,169.978180 
	C76.462471,170.024490 76.038925,170.007126 75.300842,169.549576 
	C72.831902,164.756790 68.283020,166.366272 64.904953,165.060516 
	C64.904953,165.060516 64.985909,165.014618 64.979385,164.645248 
	C63.957073,158.318924 63.041332,152.341400 61.823891,146.425949 
	C61.628281,145.475479 60.085793,144.802200 59.165928,144.000793 
	C59.113972,143.247375 59.062016,142.493942 59.088261,141.369217 
z"/>
<path fill="#FEFFFE" opacity="1.000000" stroke="none" 
	d="
M59.089600,144.458984 
	C60.085793,144.802200 61.628281,145.475479 61.823891,146.425949 
	C63.041332,152.341400 63.957073,158.318924 64.956406,164.685715 
	C59.959663,161.373383 58.574665,156.221344 58.982903,150.311356 
	C59.106560,148.521133 59.009327,146.715652 59.089600,144.458984 
z"/>
<path fill="#FEFFFE" opacity="1.000000" stroke="none" 
	d="
M65.053223,165.389709 
	C68.283020,166.366272 72.831902,164.756790 74.992615,169.471436 
	C71.733116,168.461945 68.467300,167.090424 65.053223,165.389709 
z"/>
<path fill="#FEFDFA" opacity="1.000000" stroke="none" 
	d="
M51.117153,142.277542 
	C51.460678,142.153473 51.680626,142.372192 51.893982,142.891068 
	C51.662861,142.927124 51.364925,142.736816 51.117153,142.277542 
z"/>
<path fill="#B77B59" opacity="1.000000" stroke="none" 
	d="
M76.918121,164.485229 
	C67.796402,163.556091 64.008659,159.239960 63.994003,150.283112 
	C63.988354,146.829407 63.978649,143.375717 63.893917,139.459564 
	C63.862904,138.245728 63.908756,137.494354 63.957016,135.909149 
	C64.708160,127.895309 64.543625,120.465263 66.424561,113.595238 
	C69.094070,103.844971 73.269485,94.507004 76.801399,84.992851 
	C76.862534,84.568314 76.923668,84.143768 77.233398,83.305679 
	C77.814224,82.686745 77.916725,82.399406 77.789497,82.030136 
	C78.939796,81.672539 80.090088,81.314949 81.620468,80.885040 
	C94.730782,80.872780 107.461090,80.921341 120.191170,81.005913 
	C121.998978,81.017921 123.805626,81.204948 125.733429,81.953537 
	C125.630775,83.399193 125.407494,84.202286 125.184219,85.005379 
	C125.120392,85.440384 125.056572,85.875389 124.652451,86.839523 
	C123.933945,89.246719 123.555740,91.124779 123.177544,93.002846 
	C123.114388,93.438591 123.051224,93.874329 122.635841,94.865204 
	C121.588814,99.269669 120.894012,103.119019 120.199203,106.968361 
	C119.798409,108.684334 119.397606,110.400307 118.655563,112.729950 
	C116.543755,119.952171 114.773186,126.560707 113.002625,133.169250 
	C106.302834,133.131912 99.603050,133.094574 92.186722,133.112183 
	C91.280205,133.432388 91.090210,133.697662 90.900223,133.962921 
	C90.475113,133.993439 90.049995,134.023956 88.958229,134.070724 
	C85.502678,136.375870 82.713783,138.664764 79.924889,140.953659 
	C79.924889,140.953659 79.989265,141.000931 79.670380,141.098053 
	C78.966629,142.130890 78.581772,143.066605 78.196907,144.002304 
	C78.196907,144.002304 78.030205,144.428940 77.759483,144.752365 
	C77.389748,145.375076 77.290733,145.674362 77.191727,145.973663 
	C77.118011,151.990189 77.044296,158.006714 76.918121,164.485229 
z"/>
<path fill="#B77B59" opacity="1.000000" stroke="none" 
	d="
M174.962662,82.111969 
	C175.650070,84.175613 176.337479,86.239258 177.097198,88.913971 
	C177.334198,89.849937 177.597305,90.034729 177.958817,90.079437 
	C177.958817,90.079437 177.964020,90.036087 177.945068,90.049866 
	C180.317184,96.815826 182.067596,103.888649 185.249084,110.245193 
	C190.048004,119.833260 190.288696,129.844086 190.118149,140.541290 
	C190.144989,142.719986 190.094772,144.435486 190.040222,146.946671 
	C190.087936,148.495438 190.139999,149.248505 190.192047,150.001572 
	C190.127335,151.382065 190.062622,152.762558 189.667526,154.720062 
	C189.196838,156.180695 189.056503,157.064316 188.916183,157.947922 
	C188.916183,157.947922 188.981277,157.993317 188.724976,158.049423 
	C188.282349,158.394424 188.096008,158.683319 187.909668,158.972198 
	C187.330856,159.443817 186.752045,159.915436 185.755707,160.797821 
	C182.923172,162.453323 180.508133,163.698074 178.093109,164.942825 
	C178.042572,162.915100 177.992020,160.887390 177.942749,158.034515 
	C177.894669,156.138931 177.845291,155.068466 177.795898,153.998016 
	C177.846451,151.955521 177.896988,149.913010 177.933929,147.070114 
	C175.631134,143.138275 173.341949,140.006821 171.052765,136.875381 
	C169.960373,136.244186 168.867966,135.613007 167.231720,134.657013 
	C164.790039,133.950134 162.892212,133.568039 160.994400,133.185928 
	C155.970490,133.135742 150.946594,133.085541 145.145096,132.874146 
	C142.591537,126.109604 140.815567,119.506248 139.039597,112.902885 
	C138.745102,111.155739 138.450623,109.408585 138.050751,106.919586 
	C136.990204,102.441154 136.035034,98.704575 135.079865,94.968002 
	C135.042725,94.528244 135.005585,94.088478 134.951599,92.958862 
	C134.315506,90.501923 133.696289,88.734833 133.077057,86.967743 
	C133.038712,86.528572 133.000381,86.089401 132.947235,84.985138 
	C132.668594,83.235001 132.404770,82.149963 132.140945,81.064919 
	C145.753952,81.042931 159.366959,81.020943 173.541718,81.260323 
	C174.389862,81.718445 174.676254,81.915207 174.962662,82.111969 
z"/>
<path fill="#000000" opacity="1.000000" stroke="none" 
	d="
M152.345047,144.180099 
	C148.731430,150.566101 145.188507,156.559753 142.129898,162.791138 
	C138.768097,169.640244 135.923615,176.741745 132.678879,183.651138 
	C132.063171,184.962234 130.630890,185.889862 129.575394,186.994415 
	C128.500137,185.929947 127.066833,185.050125 126.407249,183.771271 
	C121.851166,174.937531 117.447121,166.025208 113.013779,157.128403 
	C110.871170,152.828613 108.801239,148.492462 106.640533,144.201935 
	C105.266258,141.473022 106.166664,140.036270 109.084076,140.024658 
	C122.723228,139.970428 136.362762,139.982452 150.002045,140.017868 
	C152.620499,140.024658 153.582642,141.360550 152.345047,144.180099 
z"/>
<path fill="#FEFDFA" opacity="1.000000" stroke="none" 
	d="
M138.986816,113.286255 
	C140.815567,119.506248 142.591537,126.109604 144.682327,132.940826 
	C143.821594,133.351837 141.675858,133.860565 141.612106,133.670624 
	C139.945297,128.703445 138.264557,123.713837 137.152649,118.604790 
	C136.837677,117.157524 138.291458,115.325310 138.986816,113.286255 
z"/>
<path fill="#FEFDFA" opacity="1.000000" stroke="none" 
	d="
M113.071915,133.505692 
	C114.773186,126.560707 116.543755,119.952171 118.636711,113.122589 
	C123.182297,120.154877 118.460815,126.481682 116.693954,133.070145 
	C116.550117,133.606491 114.373344,133.597641 113.071915,133.505692 
z"/>
<path fill="#FEFDFA" opacity="1.000000" stroke="none" 
	d="
M171.004364,137.245422 
	C173.341949,140.006821 175.631134,143.138275 177.859299,146.637848 
	C171.995697,144.972351 169.792206,141.948242 171.004364,137.245422 
z"/>
<path fill="#FEFDFA" opacity="1.000000" stroke="none" 
	d="
M134.832184,95.133888 
	C136.035034,98.704575 136.990204,102.441154 137.873962,106.573120 
	C133.631058,103.933525 131.144806,100.433784 134.832184,95.133888 
z"/>
<path fill="#FEFDFA" opacity="1.000000" stroke="none" 
	d="
M120.482819,106.799973 
	C120.894012,103.119019 121.588814,99.269669 122.601883,95.194664 
	C126.215492,99.597649 124.918098,103.378159 120.482819,106.799973 
z"/>
<path fill="#FEFDFA" opacity="1.000000" stroke="none" 
	d="
M80.283737,140.937225 
	C82.713783,138.664764 85.502678,136.375870 88.647423,134.145355 
	C86.216377,136.442749 83.429474,138.681778 80.283737,140.937225 
z"/>
<path fill="#FEFDFA" opacity="1.000000" stroke="none" 
	d="
M177.839600,165.129059 
	C180.508133,163.698074 182.923172,162.453323 185.652985,161.063232 
	C186.376740,166.331589 180.376938,164.610641 178.572769,167.560532 
	C178.243881,166.812119 177.914993,166.063690 177.839600,165.129059 
z"/>
<path fill="#FEFDFA" opacity="1.000000" stroke="none" 
	d="
M131.758514,81.079834 
	C132.404770,82.149963 132.668594,83.235001 132.873062,84.662857 
	C130.509109,85.000465 128.204529,84.995247 125.542068,84.997704 
	C125.407494,84.202286 125.630775,83.399193 126.002670,82.298141 
	C127.892891,81.698372 129.634491,81.396561 131.758514,81.079834 
z"/>
<path fill="#FEFDFA" opacity="1.000000" stroke="none" 
	d="
M161.002594,133.545273 
	C162.892212,133.568039 164.790039,133.950134 166.890366,134.640213 
	C164.798843,136.154495 162.158646,139.378326 161.002594,133.545273 
z"/>
<path fill="#FEFDFA" opacity="1.000000" stroke="none" 
	d="
M123.531883,92.947090 
	C123.555740,91.124779 123.933945,89.246719 124.616753,87.168396 
	C126.597076,89.295692 126.770988,91.360779 123.531883,92.947090 
z"/>
<path fill="#FEFDFA" opacity="1.000000" stroke="none" 
	d="
M132.793350,87.197281 
	C133.696289,88.734833 134.315506,90.501923 134.878754,92.635933 
	C131.384079,92.250832 131.653320,89.960594 132.793350,87.197281 
z"/>
<path fill="#FEFDFA" opacity="1.000000" stroke="none" 
	d="
M177.471405,154.071503 
	C177.845291,155.068466 177.894669,156.138931 177.869446,157.605713 
	C177.578888,156.716354 177.362915,155.430679 177.471405,154.071503 
z"/>
<path fill="#FEFDFA" opacity="1.000000" stroke="none" 
	d="
M190.504913,149.942169 
	C190.139999,149.248505 190.087936,148.495438 190.110840,147.370575 
	C190.396469,147.960098 190.607117,148.921417 190.504913,149.942169 
z"/>
<path fill="#FEFDFA" opacity="1.000000" stroke="none" 
	d="
M189.251617,157.922134 
	C189.056503,157.064316 189.196838,156.180695 189.633820,155.134186 
	C189.816010,155.946304 189.701538,156.921326 189.251617,157.922134 
z"/>
<path fill="#FEFDFA" opacity="1.000000" stroke="none" 
	d="
M78.528023,143.932770 
	C78.581772,143.066605 78.966629,142.130890 79.651367,141.062958 
	C79.587204,141.908234 79.223175,142.885727 78.528023,143.932770 
z"/>
<path fill="#FEFDFA" opacity="1.000000" stroke="none" 
	d="
M87.465637,141.608826 
	C87.349640,142.058365 87.066513,142.333954 86.765411,142.588272 
	C86.757713,142.594772 86.552704,142.367706 86.439713,142.249557 
	C86.725197,141.977081 87.010681,141.704590 87.465637,141.608826 
z"/>
<path fill="#FEFDFA" opacity="1.000000" stroke="none" 
	d="
M188.150681,158.870911 
	C188.096008,158.683319 188.282349,158.394424 188.714996,158.011017 
	C188.771439,158.200882 188.581558,158.485245 188.150681,158.870911 
z"/>
<path fill="#FEFDFA" opacity="1.000000" stroke="none" 
	d="
M77.381088,145.840500 
	C77.290733,145.674362 77.389748,145.375076 77.723686,144.978577 
	C77.924026,145.201279 77.794640,145.476593 77.381088,145.840500 
z"/>
<path fill="#FEFDFA" opacity="1.000000" stroke="none" 
	d="
M91.119560,133.900055 
	C91.090210,133.697662 91.280205,133.432388 91.721451,133.183685 
	C91.834991,133.485748 91.623718,133.698059 91.119560,133.900055 
z"/>
<path fill="#B67B5A" opacity="1.000000" stroke="none" 
	d="
M181.425613,88.942413 
	C179.777008,84.288963 178.496994,79.703041 177.171585,74.954544 
	C179.529053,74.954544 182.322006,74.954544 185.555191,74.884949 
	C197.952271,74.815353 209.909119,74.815353 222.945084,74.815353 
	C215.326126,94.936348 207.947937,114.421501 200.022537,135.351776 
	C195.982910,124.649040 192.525101,115.258881 188.888779,105.938377 
	C186.665695,100.240250 184.168350,94.649124 181.425613,88.942413 
z"/>
<path fill="#B67B5A" opacity="1.000000" stroke="none" 
	d="
M74.924042,76.137741 
	C74.924042,76.137741 74.943794,76.502388 74.576920,76.745346 
	C73.779900,77.982658 73.349747,78.977020 72.919586,79.971375 
	C72.574326,80.009460 72.307861,80.174644 71.773071,80.826050 
	C71.598854,81.831375 71.771751,82.477570 71.944649,83.123772 
	C71.944649,83.123772 71.994598,83.573723 71.887054,84.120850 
	C71.306808,85.869553 70.803146,87.059982 70.366196,88.274422 
	C65.961891,100.515274 61.568512,112.760063 57.172058,125.003746 
	C57.172058,125.003746 57.015957,125.435867 56.717171,125.815872 
	C56.349125,126.783096 56.279869,127.370323 56.210609,127.957550 
	C56.210609,127.957550 56.051411,128.423798 55.777901,128.758698 
	C55.402527,129.386398 55.300667,129.679214 55.198807,129.972015 
	C55.130550,130.395782 55.062294,130.819565 54.711952,131.698120 
	C53.975018,132.718811 53.520172,133.284729 53.065331,133.850662 
	C53.065331,133.850662 53.001789,133.411575 52.970863,132.843842 
	C51.977844,130.160477 51.015751,128.044861 50.053658,125.929237 
	C50.053658,125.929237 50.015415,126.004601 50.015030,125.593964 
	C48.031063,120.095757 46.047482,115.008186 44.063900,109.920609 
	C44.063900,109.920609 44.027683,110.008331 44.028549,109.638306 
	C43.707317,108.503273 43.385216,107.738258 43.063114,106.973244 
	C43.023861,106.525856 42.984608,106.078461 42.889263,105.049606 
	C42.568325,104.275604 42.303478,104.083076 42.038631,103.890549 
	C42.038631,103.890549 41.968010,103.421318 41.905258,102.943390 
	C41.575127,102.272202 41.307747,102.078934 41.040367,101.885666 
	C40.917587,101.019920 40.794804,100.154182 40.348221,98.788742 
	C39.715057,97.512810 39.405701,96.736565 39.096344,95.960320 
	C39.053642,95.515526 39.010941,95.070724 38.902462,94.046936 
	C38.568134,93.280533 38.299576,93.093124 38.031021,92.905724 
	C38.002914,92.470123 37.974812,92.034523 37.871265,91.039230 
	C37.624260,90.174889 37.366837,89.989326 37.023552,89.922852 
	C36.895023,89.357292 36.766491,88.791725 36.338093,87.751907 
	C35.716179,86.508278 35.394135,85.738907 35.072094,84.969543 
	C35.031528,84.523048 34.990963,84.076546 34.893600,83.048729 
	C34.572319,82.273155 34.307831,82.078903 34.043346,81.884651 
	C34.043346,81.884651 33.968784,81.414879 33.892151,80.944664 
	C33.637783,80.167557 33.374786,79.980515 33.026535,79.913315 
	C33.003578,79.479477 32.980625,79.045631 32.911041,78.037674 
	C32.600830,77.262383 32.337242,77.061195 32.073654,76.860016 
	C32.527863,76.569153 32.982071,76.278282 34.181564,75.976379 
	C40.284657,75.911278 45.642464,75.857224 51.000271,75.803169 
	C55.708565,75.848900 60.416859,75.894630 65.992058,75.938667 
	C68.222824,75.893211 69.586685,75.849464 70.950546,75.805710 
	C71.407211,75.860992 71.863876,75.916267 72.976875,75.990059 
	C74.063484,76.051636 74.493767,76.094688 74.924042,76.137741 
z"/>
<path fill="#FEFDFA" opacity="1.000000" stroke="none" 
	d="
M57.550686,124.994431 
	C61.568512,112.760063 65.961891,100.515274 70.366196,88.274422 
	C70.803146,87.059982 71.306808,85.869553 71.958313,84.335693 
	C73.461884,84.330986 74.786652,84.658569 76.456406,84.989502 
	C73.269485,94.507004 69.094070,103.844971 66.424561,113.595238 
	C64.543625,120.465263 64.708160,127.895309 63.885239,135.537994 
	C63.064186,133.968567 61.902405,131.975662 61.705391,129.891571 
	C61.555351,128.304352 62.629848,126.601372 63.424088,124.125160 
	C60.985256,124.506851 59.457283,124.745979 57.550686,124.994431 
z"/>
<path fill="#FEFDFA" opacity="1.000000" stroke="none" 
	d="
M50.889549,75.424225 
	C45.642464,75.857224 40.284657,75.911278 34.464134,75.894386 
	C34.342426,75.303650 34.697739,74.322853 35.022297,74.332932 
	C40.276783,74.496010 45.527363,74.784882 50.889549,75.424225 
z"/>
<path fill="#FEFDFA" opacity="1.000000" stroke="none" 
	d="
M44.044086,110.337097 
	C46.047482,115.008186 48.031063,120.095757 50.047318,125.566635 
	C44.732967,122.210869 45.401535,116.074593 44.044086,110.337097 
z"/>
<path fill="#FEFDFA" opacity="1.000000" stroke="none" 
	d="
M50.036095,126.342972 
	C51.015751,128.044861 51.977844,130.160477 52.889061,132.637650 
	C48.843525,132.298172 50.309269,129.130753 50.036095,126.342972 
z"/>
<path fill="#FEFDFA" opacity="1.000000" stroke="none" 
	d="
M42.796783,107.171471 
	C43.385216,107.738258 43.707317,108.503273 44.060772,109.603363 
	C43.571571,109.082199 43.051010,108.225945 42.796783,107.171471 
z"/>
<path fill="#FEFDFA" opacity="1.000000" stroke="none" 
	d="
M73.280479,79.926987 
	C73.349747,78.977020 73.779900,77.982658 74.568504,76.927750 
	C74.498428,77.872330 74.069901,78.877464 73.280479,79.926987 
z"/>
<path fill="#FEFDFA" opacity="1.000000" stroke="none" 
	d="
M53.088547,134.181671 
	C53.520172,133.284729 53.975018,132.718811 54.692131,132.020432 
	C54.760120,133.052155 54.565845,134.216324 54.371571,135.380508 
	C53.951633,135.091232 53.531700,134.801956 53.088547,134.181671 
z"/>
<path fill="#FEFDFA" opacity="1.000000" stroke="none" 
	d="
M34.803600,85.168541 
	C35.394135,85.738907 35.716179,86.508278 36.077034,87.614532 
	C35.588936,87.090126 35.062023,86.228836 34.803600,85.168541 
z"/>
<path fill="#FEFDFA" opacity="1.000000" stroke="none" 
	d="
M38.825180,96.156799 
	C39.405701,96.736565 39.715057,97.512810 40.060692,98.625488 
	C39.582649,98.092369 39.068333,97.222824 38.825180,96.156799 
z"/>
<path fill="#FEFDFA" opacity="1.000000" stroke="none" 
	d="
M70.707260,75.575974 
	C69.586685,75.849464 68.222824,75.893211 66.455154,75.863602 
	C67.522217,75.642227 68.993095,75.494232 70.707260,75.575974 
z"/>
<path fill="#FEFDFA" opacity="1.000000" stroke="none" 
	d="
M74.916977,75.835968 
	C74.493767,76.094688 74.063484,76.051636 73.318314,75.929955 
	C73.277664,75.367386 73.551895,74.883446 73.826134,74.399506 
	C74.187393,74.777733 74.548653,75.155960 74.916977,75.835968 
z"/>
<path fill="#FEFDFA" opacity="1.000000" stroke="none" 
	d="
M71.963364,82.757965 
	C71.771751,82.477570 71.598854,81.831375 71.699036,81.056168 
	C71.975433,81.415489 71.978760,81.903824 71.963364,82.757965 
z"/>
<path fill="#FEFDFA" opacity="1.000000" stroke="none" 
	d="
M56.421707,127.760979 
	C56.279869,127.370323 56.349125,126.783096 56.686882,126.043587 
	C56.847851,126.449005 56.740322,127.006706 56.421707,127.760979 
z"/>
<path fill="#FEFDFA" opacity="1.000000" stroke="none" 
	d="
M38.097919,93.125458 
	C38.299576,93.093124 38.568134,93.280533 38.826149,93.720535 
	C38.526043,93.839104 38.309113,93.629791 38.097919,93.125458 
z"/>
<path fill="#FEFDFA" opacity="1.000000" stroke="none" 
	d="
M34.104572,82.107124 
	C34.307831,82.078903 34.572319,82.273155 34.822006,82.720123 
	C34.518150,82.833466 34.304344,82.619049 34.104572,82.107124 
z"/>
<path fill="#FEFDFA" opacity="1.000000" stroke="none" 
	d="
M41.103477,102.108612 
	C41.307747,102.078934 41.575127,102.272202 41.829067,102.718704 
	C41.523876,102.834892 41.307529,102.621429 41.103477,102.108612 
z"/>
<path fill="#FEFDFA" opacity="1.000000" stroke="none" 
	d="
M42.101044,104.111588 
	C42.303478,104.083076 42.568325,104.275604 42.817745,104.720421 
	C42.515106,104.833458 42.302151,104.620102 42.101044,104.111588 
z"/>
<path fill="#FEFDFA" opacity="1.000000" stroke="none" 
	d="
M37.088413,90.135742 
	C37.366837,89.989326 37.624260,90.174889 37.785053,90.723419 
	C37.497051,90.831573 37.290047,90.625351 37.088413,90.135742 
z"/>
<path fill="#FEFDFA" opacity="1.000000" stroke="none" 
	d="
M32.126526,77.088303 
	C32.337242,77.061195 32.600830,77.262383 32.845459,77.718513 
	C32.530838,77.833267 32.315136,77.614311 32.126526,77.088303 
z"/>
<path fill="#FEFDFA" opacity="1.000000" stroke="none" 
	d="
M33.092842,80.130348 
	C33.374786,79.980515 33.637783,80.167557 33.807537,80.722397 
	C33.514309,80.836479 33.300838,80.628822 33.092842,80.130348 
z"/>
<path fill="#FEFDFA" opacity="1.000000" stroke="none" 
	d="
M55.385788,129.842773 
	C55.300667,129.679214 55.402527,129.386398 55.737885,129.001770 
	C55.927643,129.222046 55.794769,129.489914 55.385788,129.842773 
z"/>
<path fill="#FEFDFA" opacity="1.000000" stroke="none" 
	d="
M77.605042,82.157257 
	C77.916725,82.399406 77.814224,82.686745 77.252960,82.983437 
	C77.069237,82.767654 77.201454,82.504204 77.605042,82.157257 
z"/>
<path fill="#FEFDFA" opacity="1.000000" stroke="none" 
	d="
M177.896393,89.863075 
	C177.597305,90.034729 177.334198,89.849937 177.184906,89.276138 
	C177.483612,89.159996 177.694824,89.366493 177.896393,89.863075 
z"/>
<path fill="#FEFDFA" opacity="1.000000" stroke="none" 
	d="
M174.863602,81.865379 
	C174.676254,81.915207 174.389862,81.718445 174.004181,81.275597 
	C174.191467,81.225937 174.477997,81.422363 174.863602,81.865379 
z"/>
</svg>