<svg version="1.1" id="Layer_1" xmlns="http://www.w3.org/2000/svg" xmlns:xlink="http://www.w3.org/1999/xlink" x="0px" y="0px"
	 width="100%" viewBox="0 0 89 90" enable-background="new 0 0 89 90" xml:space="preserve">
<path fill="#FFFFFF" opacity="1.000000" stroke="none" 
	d="
M69.000000,1.000000 
	C71.700012,1.000000 74.400032,1.000000 77.260933,1.308297 
	C81.548340,4.550226 83.132729,8.445387 83.082886,13.587763 
	C82.883507,34.158237 83.023399,54.731850 82.961159,75.304070 
	C82.955940,77.029350 82.496399,78.783974 82.045395,80.470818 
	C81.101898,83.999695 80.023186,87.492424 79.000000,91.000000 
	C74.975456,91.000000 70.950912,91.000000 66.750961,90.706924 
	C65.511383,89.215668 64.447220,88.017479 63.624607,87.091270 
	C61.255238,87.818802 59.271954,88.298576 57.410305,89.071381 
	C56.781666,89.332336 56.461269,90.335846 56.000000,91.000000 
	C49.312355,91.000000 42.624710,91.000000 35.764221,90.669174 
	C35.260914,89.966980 34.975647,89.328362 34.593315,89.263718 
	C26.938061,87.969154 21.203625,83.446106 16.413120,77.820091 
	C10.177267,70.496643 9.032950,60.527500 14.591245,51.920559 
	C21.369553,41.424431 31.530283,36.383072 43.650715,36.197239 
	C50.375160,36.094139 57.130325,37.994450 63.999752,39.010719 
	C63.999752,31.711214 64.068207,23.890846 63.976559,16.072359 
	C63.911507,10.522879 62.895237,4.694425 69.487488,1.741503 
	C69.324989,1.494336 69.162491,1.247169 69.000000,1.000000 
M53.004227,71.466599 
	C55.352043,62.421719 53.798378,53.787910 49.810349,45.591774 
	C48.013802,41.899540 44.056519,41.984993 42.113945,45.657635 
	C37.943684,53.541981 37.067165,62.101372 38.442387,70.748146 
	C39.050083,74.569046 40.484241,78.510834 42.528202,81.782341 
	C44.716980,85.285645 48.026112,84.925018 49.854336,81.325554 
	C51.278107,78.522377 51.978474,75.351776 53.004227,71.466599 
z"/>
<path fill="#000000" opacity="1.000000" stroke="none" 
	d="
M68.531342,1.000000 
	C69.162491,1.247169 69.324989,1.494336 69.487488,1.741503 
	C62.895237,4.694425 63.911507,10.522879 63.976559,16.072359 
	C64.068207,23.890846 63.999752,31.711214 63.999752,39.010719 
	C57.130325,37.994450 50.375160,36.094139 43.650715,36.197239 
	C31.530283,36.383072 21.369553,41.424431 14.591245,51.920559 
	C9.032950,60.527500 10.177267,70.496643 16.413120,77.820091 
	C21.203625,83.446106 26.938061,87.969154 34.593315,89.263718 
	C34.975647,89.328362 35.260914,89.966980 35.295689,90.669174 
	C23.692545,91.000000 12.385092,91.000000 1.038819,91.000000 
	C1.038819,61.094425 1.038819,31.188787 1.038819,1.000000 
	C23.353432,1.000000 45.708057,1.000000 68.531342,1.000000 
z"/>
<path fill="#000000" opacity="1.000000" stroke="none" 
	d="
M79.482956,91.000000 
	C80.023186,87.492424 81.101898,83.999695 82.045395,80.470818 
	C82.496399,78.783974 82.955940,77.029350 82.961159,75.304070 
	C83.023399,54.731850 82.883507,34.158237 83.082886,13.587763 
	C83.132729,8.445387 81.548340,4.550226 77.710907,1.308297 
	C81.983437,1.000000 85.966866,1.000000 89.956276,1.000007 
	C89.962250,31.000015 89.962250,61.000019 89.962250,91.000000 
	C86.604973,91.000000 83.285439,91.000000 79.482956,91.000000 
z"/>
<path fill="#000000" opacity="1.000000" stroke="none" 
	d="
M56.454109,91.000000 
	C56.461269,90.335846 56.781666,89.332336 57.410305,89.071381 
	C59.271954,88.298576 61.255238,87.818802 63.624607,87.091270 
	C64.447220,88.017479 65.511383,89.215668 66.287773,90.706924 
	C62.969406,91.000000 59.938812,91.000000 56.454109,91.000000 
z"/>
<path fill="#000000" opacity="1.000000" stroke="none" 
	d="
M53.002281,71.905533 
	C51.978474,75.351776 51.278107,78.522377 49.854336,81.325554 
	C48.026112,84.925018 44.716980,85.285645 42.528202,81.782341 
	C40.484241,78.510834 39.050083,74.569046 38.442387,70.748146 
	C37.067165,62.101372 37.943684,53.541981 42.113945,45.657635 
	C44.056519,41.984993 48.013802,41.899540 49.810349,45.591774 
	C53.798378,53.787910 55.352043,62.421719 53.002281,71.905533 
z"/>
</svg>