<svg version="1.1" id="Layer_1" xmlns="http://www.w3.org/2000/svg" xmlns:xlink="http://www.w3.org/1999/xlink" x="0px" y="0px"
	 width="100%" viewBox="0 0 720 960" enable-background="new 0 0 720 960" xml:space="preserve">
<path fill="#000000" opacity="1.000000" stroke="none" 
	d="
M599.640381,831.750610 
	C578.017456,841.756348 555.707092,846.857666 532.209900,847.500977 
	C514.554932,847.984436 497.342194,846.401978 480.620667,840.516602 
	C472.970245,837.823914 466.049225,833.901794 460.318268,828.152649 
	C458.352936,826.181152 456.690247,825.886902 454.183533,826.914429 
	C430.611145,836.576965 406.054596,842.495361 380.751862,844.909241 
	C359.857330,846.902527 338.917938,847.242859 317.964355,844.643616 
	C298.403046,842.217102 279.307220,838.223938 260.739502,831.469116 
	C229.587830,820.136353 201.967850,803.238159 178.451050,779.874084 
	C137.748062,739.435608 113.786934,690.144714 101.410828,634.559387 
	C95.844116,609.557373 93.268753,584.288513 93.085342,558.836121 
	C92.928482,537.067505 94.888176,515.348755 98.747726,493.831818 
	C105.786270,454.591858 118.862442,417.598358 139.734436,383.575989 
	C162.550674,346.384430 192.258865,316.215973 231.243668,295.799194 
	C258.366241,281.594757 287.017456,272.719330 317.577271,269.482147 
	C359.731354,265.016724 400.981201,268.160126 441.282135,281.729919 
	C446.319214,283.425934 446.731110,283.068695 446.695374,277.205658 
	C446.430328,233.724442 446.498077,190.236435 445.665314,146.765793 
	C445.335327,129.540375 452.889648,117.509148 466.175812,108.092186 
	C483.055817,96.128014 502.401367,90.638779 522.522949,87.966148 
	C545.380066,84.930161 568.080933,86.110191 590.088806,93.738708 
	C606.835205,99.543457 620.780762,108.938530 628.924072,125.371140 
	C633.013245,133.622787 634.318420,142.518173 634.221008,151.550812 
	C633.092102,256.188324 633.378845,360.831451 632.881348,465.471252 
	C632.570801,530.787537 632.627563,596.108215 631.830261,661.418457 
	C631.346252,701.074829 631.639954,740.730408 631.083740,780.382263 
	C630.995056,786.701538 630.806396,793.038147 630.227173,799.326477 
	C629.675720,805.311951 626.774658,810.427246 622.793335,814.836060 
	C616.350098,821.971313 608.603516,827.389465 599.640381,831.750610 
M335.096405,292.714783 
	C327.152100,293.561798 319.167419,294.135345 311.270020,295.300323 
	C261.128418,302.696991 219.374176,325.968689 185.656097,363.390472 
	C150.864288,402.003937 132.100189,448.494507 122.606972,498.894196 
	C117.767387,524.587585 116.137428,550.670471 118.098518,576.906006 
	C119.290688,592.854919 121.025452,608.676025 124.206169,624.366699 
	C130.036194,653.126648 139.707657,680.507568 153.722076,706.248596 
	C168.707230,733.772766 188.274292,757.618713 213.158127,776.845825 
	C231.890625,791.319946 252.510941,802.461426 274.941498,810.042664 
	C308.817474,821.492188 343.586243,823.463074 378.993073,820.020386 
	C411.325623,816.876465 441.443268,807.161438 469.903717,791.818909 
	C471.343597,791.042725 472.747498,790.012634 474.708618,790.905273 
	C475.883087,794.392639 475.363983,798.092651 475.255310,801.689819 
	C475.085022,807.328430 477.601471,811.219116 482.138367,814.123596 
	C484.817657,815.838867 487.641327,817.195862 490.708099,818.123718 
	C510.414001,824.086304 530.435486,823.918884 550.586975,821.298706 
	C565.315918,819.383484 579.897278,816.906860 593.390442,810.189026 
	C602.407471,805.699646 606.764038,799.041321 606.830078,788.421570 
	C607.143921,737.933105 606.964233,687.443726 607.482056,636.953613 
	C608.263062,560.804993 607.569153,484.647949 608.455322,408.492188 
	C609.180542,346.167816 608.553955,283.828461 608.706604,221.496201 
	C608.764526,197.839249 608.392273,174.177612 609.526428,150.522583 
	C610.054688,139.504181 605.968689,130.411469 596.285278,124.195541 
	C591.051147,120.835693 585.564758,118.176292 579.660889,116.303650 
	C562.005737,110.703606 543.933777,110.475990 525.789246,112.566185 
	C512.359131,114.113289 499.260162,117.175812 486.826294,122.802254 
	C475.910187,127.741882 470.507904,134.937790 470.764038,147.920532 
	C471.861755,203.564178 470.794678,259.234924 472.156494,314.885223 
	C472.206055,316.910217 472.958282,319.252991 470.296387,321.256073 
	C428.446533,298.985474 383.358459,290.399628 335.096405,292.714783 
z"/>
<path fill="#000000" opacity="1.000000" stroke="none" 
	d="
M84.841202,944.679443 
	C93.267105,944.742310 101.280388,944.871155 109.315948,944.446655 
	C116.582062,944.062744 123.901245,944.315735 131.180588,944.648071 
	C139.425308,945.024475 147.670746,945.155640 155.883408,944.560547 
	C160.430222,944.231140 163.551102,944.706726 162.930023,951.102234 
	C169.167603,940.426147 177.157181,945.188599 184.734100,946.626831 
	C186.282471,947.150024 186.130203,944.664246 188.079102,945.073059 
	C189.760162,948.165283 189.760162,948.165283 189.192917,952.747742 
	C165.148285,953.478577 141.069778,953.712830 115.179398,952.322021 
	C112.214790,954.407837 93.566353,954.219360 91.533615,951.712280 
	C75.547798,953.826782 60.198463,953.015808 44.152813,953.185364 
	C45.643284,950.579285 47.119980,948.975891 47.215561,946.719604 
	C47.257545,945.728455 48.030075,944.886230 49.224697,944.860840 
	C55.280460,944.731995 61.336243,944.584656 67.392807,944.528503 
	C68.739014,944.515991 69.315681,945.690247 69.991196,947.057007 
	C73.997231,941.001892 79.833237,947.172119 84.841202,944.679443 
z"/>
<path fill="#000000" opacity="1.000000" stroke="none" 
	d="
M41.421486,944.576416 
	C45.582920,945.174683 43.627338,947.722656 43.324169,949.547852 
	C42.993210,951.540405 42.361889,953.491882 39.637997,953.375427 
	C37.159027,953.269409 34.620090,953.453247 33.119068,950.984558 
	C28.122187,954.334900 24.944279,954.144348 21.351660,950.109985 
	C20.233158,954.430847 16.698284,953.922913 14.035607,953.174744 
	C10.432950,952.162415 11.952462,948.159973 10.097716,945.287109 
	C20.958570,943.729858 31.053650,945.468933 41.421486,944.576416 
z"/>
<path fill="#000000" opacity="1.000000" stroke="none" 
	d="
M699.408569,950.560486 
	C695.368713,954.485107 691.199097,954.311829 686.717773,949.796814 
	C684.803894,949.835693 685.502197,952.511414 683.441284,952.761963 
	C681.613281,950.948303 682.383423,948.534546 682.674377,946.437683 
	C682.999146,944.097046 685.942871,944.117676 686.529907,944.966003 
	C689.353882,949.047363 693.139832,946.038635 696.360046,946.643311 
	C698.522949,947.049500 700.918701,945.997803 703.206543,946.018311 
	C705.492004,946.038696 707.772766,946.581848 710.455078,946.950806 
	C709.189941,948.925171 712.755493,952.337280 708.979492,952.964844 
	C705.941162,953.469849 701.690430,955.563965 699.408569,950.560486 
z"/>
<path fill="#000000" opacity="1.000000" stroke="none" 
	d="
M671.904968,953.065430 
	C669.998840,952.951050 668.451416,952.398376 666.896667,953.353210 
	C665.855103,950.411072 666.617737,948.015747 666.798401,945.032959 
	C669.101868,945.032959 671.322937,945.090027 673.539673,945.016113 
	C675.563599,944.948547 678.221252,943.476074 679.177185,946.145325 
	C679.816406,947.930298 680.838745,950.366394 679.247437,952.282349 
	C677.581604,954.288025 675.292847,953.185242 673.224060,952.992737 
	C672.898987,952.962463 672.567688,952.998840 671.904968,953.065430 
z"/>
<path fill="#000000" opacity="1.000000" stroke="none" 
	d="
M650.473572,946.454529 
	C655.107910,946.348877 659.325928,946.348877 663.931091,946.348877 
	C662.861023,949.212402 660.652649,947.349731 659.784302,948.993774 
	C660.774658,950.121338 661.806213,951.295898 663.179688,952.859680 
	C657.419617,953.344360 652.064270,954.493652 647.363586,950.507507 
	C646.960938,951.044434 646.385925,951.811157 645.791687,952.603455 
	C644.271545,951.489746 644.604309,950.050537 644.819641,948.840271 
	C645.395935,945.601562 648.195496,947.081482 650.473572,946.454529 
z"/>
<path fill="#000000" opacity="1.000000" stroke="none" 
	d="
M643.052246,952.346924 
	C639.526672,954.415283 637.484070,952.880249 636.180298,950.108887 
	C634.074036,950.057251 634.668762,952.994751 632.308655,952.606323 
	C631.143066,950.301697 631.170288,947.713928 632.449402,945.340637 
	C632.956543,944.399597 634.589783,944.459534 635.697449,944.969971 
	C637.020203,945.579712 635.392151,946.646484 635.761047,947.473206 
	C643.238037,945.853027 644.217896,946.465088 643.052246,952.346924 
z"/>
<path fill="#000000" opacity="1.000000" stroke="none" 
	d="
M249.975952,597.799438 
	C245.288284,579.346985 243.471741,560.964478 244.894608,542.448059 
	C247.609192,507.122345 258.032104,474.883331 284.699829,449.798462 
	C303.172821,432.421997 325.255554,423.590637 350.560303,422.657623 
	C367.859253,422.019775 384.775024,423.651154 400.949890,430.425323 
	C427.864014,441.697235 447.027405,460.890808 459.357880,487.145508 
	C472.473175,515.071228 475.411530,544.484741 472.504578,574.852722 
	C469.987793,601.145203 461.712524,625.323181 445.731659,646.378418 
	C424.260803,674.666870 395.748322,689.280579 359.826904,689.416321 
	C313.505341,689.591309 281.857330,666.991516 260.906708,627.141052 
	C256.076080,617.952576 252.796814,608.181213 249.975952,597.799438 
M306.947540,646.541870 
	C312.469482,650.860291 318.270905,654.844543 324.660767,657.664307 
	C361.364105,673.860779 402.154602,662.799438 425.423065,630.084900 
	C441.848663,606.991211 449.185883,581.157043 449.044952,552.679016 
	C448.919861,527.411316 442.036804,504.512817 427.528076,484.293976 
	C407.115570,455.847809 379.063965,442.496643 343.950195,447.600128 
	C313.704865,451.996094 293.569946,470.457733 281.192047,497.613953 
	C270.817657,520.374573 267.542358,544.445312 270.344666,569.287720 
	C273.689301,598.938110 283.401245,625.647827 306.947540,646.541870 
z"/>
</svg>