<?xml version="1.0" encoding="UTF-8"?>
<!DOCTYPE svg PUBLIC "-//W3C//DTD SVG 1.1//EN" "http://www.w3.org/Graphics/SVG/1.1/DTD/svg11.dtd">
<svg xmlns="http://www.w3.org/2000/svg" version="1.1" width="500px" height="500px" style="shape-rendering:geometricPrecision; text-rendering:geometricPrecision; image-rendering:optimizeQuality; fill-rule:evenodd; clip-rule:evenodd" xmlns:xlink="http://www.w3.org/1999/xlink">
<g><path style="opacity:0.685" fill="#fe5656" d="M 247.5,32.5 C 246.136,34.1911 244.803,35.8577 243.5,37.5C 243.369,34.6333 244.703,32.9666 247.5,32.5 Z"/></g>
<g><path style="opacity:1" fill="#fefffe" d="M 247.5,32.5 C 250.561,32.4443 252.728,33.7776 254,36.5C 254.667,49.1667 254.667,61.8333 254,74.5C 253.126,76.7765 251.459,78.1098 249,78.5C 246.657,77.3207 244.824,75.6541 243.5,73.5C 243.5,61.5 243.5,49.5 243.5,37.5C 244.803,35.8577 246.136,34.1911 247.5,32.5 Z"/></g>
<g><path style="opacity:0.272" fill="#fe5656" d="M 247.5,32.5 C 250.783,31.0449 253.283,32.0449 255,35.5C 255.667,48.8333 255.667,62.1667 255,75.5C 251.74,80.2852 248.073,80.6185 244,76.5C 243.517,75.552 243.351,74.552 243.5,73.5C 244.824,75.6541 246.657,77.3207 249,78.5C 251.459,78.1098 253.126,76.7765 254,74.5C 254.667,61.8333 254.667,49.1667 254,36.5C 252.728,33.7776 250.561,32.4443 247.5,32.5 Z"/></g>
<g><path style="opacity:0.63" fill="#fe5959" d="M 188.5,40.5 C 186.321,40.84 184.488,41.84 183,43.5C 182.744,47.2463 183.244,50.913 184.5,54.5C 181.871,50.9732 181.038,46.9732 182,42.5C 183.897,40.095 186.064,39.4284 188.5,40.5 Z"/></g>
<g><path style="opacity:1" fill="#fefffe" d="M 188.5,40.5 C 191.225,42.9899 193.225,45.9899 194.5,49.5C 195.065,53.5368 196.399,57.2034 198.5,60.5C 199.065,64.5368 200.399,68.2034 202.5,71.5C 203.189,75.0693 204.189,78.5693 205.5,82C 204.956,83.585 204.289,85.085 203.5,86.5C 201.473,86.6621 199.473,86.4955 197.5,86C 195.723,82.7907 194.057,79.624 192.5,76.5C 191.935,72.4632 190.601,68.7966 188.5,65.5C 187.935,61.4632 186.601,57.7966 184.5,54.5C 183.244,50.913 182.744,47.2463 183,43.5C 184.488,41.84 186.321,40.84 188.5,40.5 Z"/></g>
<g><path style="opacity:1" fill="#fefffe" d="M 313.5,58.5 C 311.399,61.7966 310.065,65.4632 309.5,69.5C 307.399,72.7966 306.065,76.4632 305.5,80.5C 304.122,83.4202 302.455,86.2535 300.5,89C 296.167,90.4894 293.833,88.9894 293.5,84.5C 294.172,81.4877 294.839,78.4877 295.5,75.5C 297.601,72.2034 298.935,68.5368 299.5,64.5C 302.224,58.7039 304.724,52.7039 307,46.5C 310.941,42.8362 314.107,43.6695 316.5,49C 314.998,52.0047 313.998,55.1714 313.5,58.5 Z"/></g>
<g><path style="opacity:0.661" fill="#fe514f" d="M 188.5,40.5 C 189.822,40.33 190.989,40.6634 192,41.5C 193.341,44.022 194.174,46.6887 194.5,49.5C 193.225,45.9899 191.225,42.9899 188.5,40.5 Z"/></g>
<g><path style="opacity:0.65" fill="#fe5655" d="M 313.5,58.5 C 313.998,55.1714 314.998,52.0047 316.5,49C 314.107,43.6695 310.941,42.8362 307,46.5C 304.724,52.7039 302.224,58.7039 299.5,64.5C 300.827,58.6861 302.66,53.0194 305,47.5C 309.893,40.6734 314.059,41.1734 317.5,49C 316.629,52.4714 315.296,55.6381 313.5,58.5 Z"/></g>
<g><path style="opacity:0.587" fill="#fe514f" d="M 194.5,49.5 C 196.601,52.7966 197.935,56.4632 198.5,60.5C 196.399,57.2034 195.065,53.5368 194.5,49.5 Z"/></g>
<g><path style="opacity:0.609" fill="#fe5959" d="M 184.5,54.5 C 186.601,57.7966 187.935,61.4632 188.5,65.5C 186.399,62.2034 185.065,58.5368 184.5,54.5 Z"/></g>
<g><path style="opacity:0.544" fill="#fe5352" d="M 198.5,60.5 C 200.601,63.7966 201.935,67.4632 202.5,71.5C 200.399,68.2034 199.065,64.5368 198.5,60.5 Z"/></g>
<g><path style="opacity:0.601" fill="#fe5756" d="M 313.5,58.5 C 312.935,62.5368 311.601,66.2034 309.5,69.5C 310.065,65.4632 311.399,61.7966 313.5,58.5 Z"/></g>
<g><path style="opacity:0.608" fill="#fe5959" d="M 188.5,65.5 C 190.601,68.7966 191.935,72.4632 192.5,76.5C 190.399,73.2034 189.065,69.5368 188.5,65.5 Z"/></g>
<g><path style="opacity:0.601" fill="#fe5554" d="M 299.5,64.5 C 298.935,68.5368 297.601,72.2034 295.5,75.5C 296.065,71.4632 297.399,67.7966 299.5,64.5 Z"/></g>
<g><path style="opacity:0.536" fill="#fe5857" d="M 135.5,72.5 C 131.807,69.5934 128.474,69.9267 125.5,73.5C 125.956,70.7144 127.623,69.381 130.5,69.5C 133.048,69.2649 134.714,70.2649 135.5,72.5 Z"/></g>
<g><path style="opacity:1" fill="#fefffe" d="M 135.5,72.5 C 136.419,75.0892 138.086,77.0892 140.5,78.5C 143.456,83.3988 147.123,87.7322 151.5,91.5C 152.419,94.0892 154.086,96.0892 156.5,97.5C 156.685,99.1958 157.519,100.529 159,101.5C 159.996,107.334 157.496,109.667 151.5,108.5C 149.883,105.216 147.55,102.549 144.5,100.5C 143.581,97.9108 141.914,95.9108 139.5,94.5C 138.581,91.9108 136.914,89.9108 134.5,88.5C 133.581,85.9108 131.914,83.9108 129.5,82.5C 127.371,79.9045 126.038,76.9045 125.5,73.5C 128.474,69.9267 131.807,69.5934 135.5,72.5 Z"/></g>
<g><path style="opacity:0.551" fill="#fe5858" d="M 309.5,69.5 C 308.935,73.5368 307.601,77.2034 305.5,80.5C 306.065,76.4632 307.399,72.7966 309.5,69.5 Z"/></g>
<g><path style="opacity:0.455" fill="#fe5655" d="M 202.5,71.5 C 205.569,75.7116 206.569,80.3783 205.5,85.5C 205.043,86.2975 204.376,86.6309 203.5,86.5C 204.289,85.085 204.956,83.585 205.5,82C 204.189,78.5693 203.189,75.0693 202.5,71.5 Z"/></g>
<g><path style="opacity:1" fill="#fffdfc" d="M 372.5,74.5 C 374.226,76.8201 374.893,79.4867 374.5,82.5C 370.692,86.1216 367.359,90.1216 364.5,94.5C 362.086,95.9108 360.419,97.9108 359.5,100.5C 357.086,101.911 355.419,103.911 354.5,106.5C 352.026,109.31 349.026,111.31 345.5,112.5C 341.945,110.384 340.945,107.384 342.5,103.5C 346.877,99.7322 350.544,95.3988 353.5,90.5C 355.914,89.0892 357.581,87.0892 358.5,84.5C 360.914,83.0892 362.581,81.0892 363.5,78.5C 365.167,77.5 366.5,76.1667 367.5,74.5C 369.167,73.1667 370.833,73.1667 372.5,74.5 Z"/></g>
<g><path style="opacity:0.57" fill="#fe5454" d="M 135.5,72.5 C 137.914,73.9108 139.581,75.9108 140.5,78.5C 138.086,77.0892 136.419,75.0892 135.5,72.5 Z"/></g>
<g><path style="opacity:0.427" fill="#fe5757" d="M 367.5,74.5 C 366.5,76.1667 365.167,77.5 363.5,78.5C 363.833,76.1667 365.167,74.8333 367.5,74.5 Z"/></g>
<g><path style="opacity:0.693" fill="#fe5555" d="M 372.5,74.5 C 373.496,74.4142 374.329,74.7476 375,75.5C 375.796,78.0385 375.629,80.3718 374.5,82.5C 374.893,79.4867 374.226,76.8201 372.5,74.5 Z"/></g>
<g><path style="opacity:0.687" fill="#fe5656" d="M 125.5,73.5 C 126.038,76.9045 127.371,79.9045 129.5,82.5C 125.602,80.3926 124.269,77.3926 125.5,73.5 Z"/></g>
<g><path style="opacity:0.643" fill="#fe5757" d="M 363.5,78.5 C 362.581,81.0892 360.914,83.0892 358.5,84.5C 359.419,81.9108 361.086,79.9108 363.5,78.5 Z"/></g>
<g><path style="opacity:0.69" fill="#fe5656" d="M 192.5,76.5 C 194.057,79.624 195.723,82.7907 197.5,86C 199.473,86.4955 201.473,86.6621 203.5,86.5C 201.372,87.6291 199.039,87.7958 196.5,87C 194.278,83.8323 192.944,80.3323 192.5,76.5 Z"/></g>
<g><path style="opacity:0.705" fill="#fe5554" d="M 295.5,75.5 C 294.839,78.4877 294.172,81.4877 293.5,84.5C 293.833,88.9894 296.167,90.4894 300.5,89C 302.455,86.2535 304.122,83.4202 305.5,80.5C 305.575,88.2702 301.908,91.4369 294.5,90C 291.814,84.9819 292.147,80.1485 295.5,75.5 Z"/></g>
<g><path style="opacity:0.656" fill="#fe5555" d="M 129.5,82.5 C 131.914,83.9108 133.581,85.9108 134.5,88.5C 132.086,87.0892 130.419,85.0892 129.5,82.5 Z"/></g>
<g><path style="opacity:0.608" fill="#fe5756" d="M 140.5,78.5 C 144.877,82.2678 148.544,86.6012 151.5,91.5C 147.123,87.7322 143.456,83.3988 140.5,78.5 Z"/></g>
<g><path style="opacity:0.609" fill="#fe5757" d="M 358.5,84.5 C 357.581,87.0892 355.914,89.0892 353.5,90.5C 354.419,87.9108 356.086,85.9108 358.5,84.5 Z"/></g>
<g><path style="opacity:0.632" fill="#fe5757" d="M 134.5,88.5 C 136.914,89.9108 138.581,91.9108 139.5,94.5C 137.086,93.0892 135.419,91.0892 134.5,88.5 Z"/></g>
<g><path style="opacity:0.588" fill="#fe5353" d="M 151.5,91.5 C 153.914,92.9108 155.581,94.9108 156.5,97.5C 154.086,96.0892 152.419,94.0892 151.5,91.5 Z"/></g>
<g><path style="opacity:0.18" fill="#fe5555" d="M 374.5,82.5 C 372.118,87.2476 368.784,91.2476 364.5,94.5C 367.359,90.1216 370.692,86.1216 374.5,82.5 Z"/></g>
<g><path style="opacity:0.581" fill="#fe5554" d="M 353.5,90.5 C 350.544,95.3988 346.877,99.7322 342.5,103.5C 345.456,98.6012 349.123,94.2678 353.5,90.5 Z"/></g>
<g><path style="opacity:0.573" fill="#fe5555" d="M 139.5,94.5 C 141.914,95.9108 143.581,97.9108 144.5,100.5C 142.086,99.0892 140.419,97.0892 139.5,94.5 Z"/></g>
<g><path style="opacity:0.169" fill="#fe5656" d="M 364.5,94.5 C 363.581,97.0892 361.914,99.0892 359.5,100.5C 360.419,97.9108 362.086,95.9108 364.5,94.5 Z"/></g>
<g><path style="opacity:0.626" fill="#fe5757" d="M 156.5,97.5 C 160.252,99.7943 161.419,103.128 160,107.5C 157.302,109.673 154.469,110.006 151.5,108.5C 157.496,109.667 159.996,107.334 159,101.5C 157.519,100.529 156.685,99.1958 156.5,97.5 Z"/></g>
<g><path style="opacity:0.646" fill="#fe5553" d="M 144.5,100.5 C 147.55,102.549 149.883,105.216 151.5,108.5C 148.48,106.477 146.146,103.81 144.5,100.5 Z"/></g>
<g><path style="opacity:0.637" fill="#fe5454" d="M 359.5,100.5 C 358.581,103.089 356.914,105.089 354.5,106.5C 355.419,103.911 357.086,101.911 359.5,100.5 Z"/></g>
<g><path style="opacity:0.702" fill="#fe5453" d="M 342.5,103.5 C 340.945,107.384 341.945,110.384 345.5,112.5C 341.216,111.615 339.716,108.949 341,104.5C 341.383,103.944 341.883,103.611 342.5,103.5 Z"/></g>
<g><path style="opacity:0.441" fill="#fe5858" d="M 354.5,106.5 C 352.907,111.159 349.907,113.159 345.5,112.5C 349.026,111.31 352.026,109.31 354.5,106.5 Z"/></g>
<g><path style="opacity:1" fill="#fffcfc" d="M 105.5,116.5 C 107.336,118.588 109.669,119.921 112.5,120.5C 114.336,122.588 116.669,123.921 119.5,124.5C 123.1,126.92 126.6,129.586 130,132.5C 130.667,133.833 130.667,135.167 130,136.5C 128.955,137.373 128.122,138.373 127.5,139.5C 125.32,140.794 123.32,140.461 121.5,138.5C 115.666,134.079 109.332,130.412 102.5,127.5C 100.664,125.412 98.3311,124.079 95.5,123.5C 93.178,121.336 90.5113,119.669 87.5,118.5C 86.8505,116.565 86.5172,114.565 86.5,112.5C 87.973,111.26 89.6396,110.26 91.5,109.5C 96.2003,111.892 100.867,114.225 105.5,116.5 Z"/></g>
<g><path style="opacity:0.562" fill="#fe5656" d="M 233.5,109.5 C 229.057,110.801 224.391,111.468 219.5,111.5C 223.919,110.028 228.586,109.362 233.5,109.5 Z"/></g>
<g><path style="opacity:1" fill="#fff8f7" d="M 279.5,111.5 C 284.573,113.435 289.906,114.768 295.5,115.5C 297.786,115.595 299.786,116.262 301.5,117.5C 303.792,119.267 306.458,120.267 309.5,120.5C 315.849,124.341 322.516,127.675 329.5,130.5C 336.315,135.743 343.315,140.743 350.5,145.5C 353.887,148.883 356.887,152.55 359.5,156.5C 358.833,159.167 357.167,160.833 354.5,161.5C 352.489,160.481 350.489,159.481 348.5,158.5C 347.833,158.5 347.5,158.167 347.5,157.5C 345.761,154.757 343.427,152.757 340.5,151.5C 339.738,149.738 338.404,148.738 336.5,148.5C 333.197,144.844 329.197,142.178 324.5,140.5C 322.664,138.412 320.331,137.079 317.5,136.5C 315.181,136.008 313.181,135.008 311.5,133.5C 308.017,130.763 304.017,129.097 299.5,128.5C 297.898,126.926 295.898,126.259 293.5,126.5C 291.485,125.076 289.152,124.41 286.5,124.5C 284.901,124.768 283.568,124.434 282.5,123.5C 276.804,121.439 270.804,120.439 264.5,120.5C 254.5,120.5 244.5,120.5 234.5,120.5C 228.196,120.439 222.196,121.439 216.5,123.5C 215.432,124.434 214.099,124.768 212.5,124.5C 209.848,124.41 207.515,125.076 205.5,126.5C 204.791,127.404 203.791,127.737 202.5,127.5C 196.957,128.343 191.957,130.343 187.5,133.5C 185.819,135.008 183.819,136.008 181.5,136.5C 178.669,137.079 176.336,138.412 174.5,140.5C 169.803,142.178 165.803,144.844 162.5,148.5C 157.957,150.372 154.29,153.372 151.5,157.5C 151.5,158.167 151.167,158.5 150.5,158.5C 148.511,159.481 146.511,160.481 144.5,161.5C 141.833,160.833 140.167,159.167 139.5,156.5C 142.113,152.55 145.113,148.883 148.5,145.5C 155.685,140.743 162.685,135.743 169.5,130.5C 176.484,127.675 183.151,124.341 189.5,120.5C 192.542,120.267 195.208,119.267 197.5,117.5C 198.209,116.596 199.209,116.263 200.5,116.5C 207.054,115.279 213.388,113.613 219.5,111.5C 224.391,111.468 229.057,110.801 233.5,109.5C 243.992,108.341 254.659,108.175 265.5,109C 270.389,109.354 275.056,110.187 279.5,111.5 Z"/></g>
<g><path style="opacity:0.533" fill="#fe5656" d="M 219.5,111.5 C 213.388,113.613 207.054,115.279 200.5,116.5C 206.448,113.762 212.781,112.095 219.5,111.5 Z"/></g>
<g><path style="opacity:0.582" fill="#fe5656" d="M 279.5,111.5 C 285.17,111.917 290.503,113.251 295.5,115.5C 289.906,114.768 284.573,113.435 279.5,111.5 Z"/></g>
<g><path style="opacity:0.551" fill="#fe5453" d="M 105.5,116.5 C 100.867,114.225 96.2003,111.892 91.5,109.5C 89.6396,110.26 87.973,111.26 86.5,112.5C 87.1081,110.01 88.7748,108.676 91.5,108.5C 96.8442,110.166 101.511,112.833 105.5,116.5 Z"/></g>
<g><path style="opacity:0.422" fill="#fe5656" d="M 86.5,112.5 C 86.5172,114.565 86.8505,116.565 87.5,118.5C 86.0532,117.866 85.3866,116.699 85.5,115C 85.528,113.93 85.8614,113.097 86.5,112.5 Z"/></g>
<g><path style="opacity:0.597" fill="#fe5555" d="M 105.5,116.5 C 108.331,117.079 110.664,118.412 112.5,120.5C 109.669,119.921 107.336,118.588 105.5,116.5 Z"/></g>
<g><path style="opacity:0.566" fill="#fe5454" d="M 197.5,117.5 C 195.208,119.267 192.542,120.267 189.5,120.5C 191.792,118.733 194.458,117.733 197.5,117.5 Z"/></g>
<g><path style="opacity:0.565" fill="#fe5554" d="M 301.5,117.5 C 304.542,117.733 307.208,118.733 309.5,120.5C 306.458,120.267 303.792,119.267 301.5,117.5 Z"/></g>
<g><path style="opacity:0.676" fill="#fe5959" d="M 404.5,120.5 C 411.322,118.327 413.988,120.66 412.5,127.5C 412.675,122.011 410.008,119.678 404.5,120.5 Z"/></g>
<g><path style="opacity:0.492" fill="#fe5656" d="M 112.5,120.5 C 115.331,121.079 117.664,122.412 119.5,124.5C 116.669,123.921 114.336,122.588 112.5,120.5 Z"/></g>
<g><path style="opacity:1" fill="#fefffe" d="M 404.5,120.5 C 410.008,119.678 412.675,122.011 412.5,127.5C 406.627,130.931 400.96,134.598 395.5,138.5C 392.669,139.079 390.336,140.412 388.5,142.5C 385.137,143.851 381.804,145.184 378.5,146.5C 376.486,146.563 374.819,145.897 373.5,144.5C 373.34,142.801 373.506,141.134 374,139.5C 375.667,138.267 377.167,136.933 378.5,135.5C 381.331,134.921 383.664,133.588 385.5,131.5C 390.024,129.957 394.024,127.623 397.5,124.5C 400.331,123.921 402.664,122.588 404.5,120.5 Z"/></g>
<g><path style="opacity:0.57" fill="#fe5453" d="M 87.5,118.5 C 90.5113,119.669 93.178,121.336 95.5,123.5C 92.1511,122.831 89.4844,121.164 87.5,118.5 Z"/></g>
<g><path style="opacity:0.593" fill="#fe5555" d="M 264.5,120.5 C 270.804,120.439 276.804,121.439 282.5,123.5C 276.301,122.911 270.301,121.911 264.5,120.5 Z"/></g>
<g><path style="opacity:0.575" fill="#fe5655" d="M 234.5,120.5 C 228.699,121.911 222.699,122.911 216.5,123.5C 222.196,121.439 228.196,120.439 234.5,120.5 Z"/></g>
<g><path style="opacity:0.619" fill="#fe5555" d="M 309.5,120.5 C 316.752,122.793 323.419,126.126 329.5,130.5C 322.516,127.675 315.849,124.341 309.5,120.5 Z"/></g>
<g><path style="opacity:0.484" fill="#fe5656" d="M 404.5,120.5 C 402.664,122.588 400.331,123.921 397.5,124.5C 399.336,122.412 401.669,121.079 404.5,120.5 Z"/></g>
<g><path style="opacity:0.675" fill="#fe5655" d="M 189.5,120.5 C 183.151,124.341 176.484,127.675 169.5,130.5C 175.581,126.126 182.248,122.793 189.5,120.5 Z"/></g>
<g><path style="opacity:0.453" fill="#fe5656" d="M 212.5,124.5 C 210.485,125.924 208.152,126.59 205.5,126.5C 207.515,125.076 209.848,124.41 212.5,124.5 Z"/></g>
<g><path style="opacity:0.517" fill="#fe5656" d="M 286.5,124.5 C 289.152,124.41 291.485,125.076 293.5,126.5C 290.848,126.59 288.515,125.924 286.5,124.5 Z"/></g>
<g><path style="opacity:0.593" fill="#fe5757" d="M 95.5,123.5 C 98.3311,124.079 100.664,125.412 102.5,127.5C 99.6689,126.921 97.3356,125.588 95.5,123.5 Z"/></g>
<g><path style="opacity:0.619" fill="#fe5656" d="M 293.5,126.5 C 295.898,126.259 297.898,126.926 299.5,128.5C 297.214,128.405 295.214,127.738 293.5,126.5 Z"/></g>
<g><path style="opacity:0.571" fill="#fe5453" d="M 119.5,124.5 C 123.957,125.787 127.79,128.12 131,131.5C 132.421,135.506 131.254,138.172 127.5,139.5C 128.122,138.373 128.955,137.373 130,136.5C 130.667,135.167 130.667,133.833 130,132.5C 126.6,129.586 123.1,126.92 119.5,124.5 Z"/></g>
<g><path style="opacity:0.664" fill="#fe5959" d="M 397.5,124.5 C 394.024,127.623 390.024,129.957 385.5,131.5C 388.976,128.377 392.976,126.043 397.5,124.5 Z"/></g>
<g><path style="opacity:0.586" fill="#fe5554" d="M 202.5,127.5 C 197.723,129.874 192.723,131.874 187.5,133.5C 191.957,130.343 196.957,128.343 202.5,127.5 Z"/></g>
<g><path style="opacity:0.629" fill="#fe5656" d="M 299.5,128.5 C 304.017,129.097 308.017,130.763 311.5,133.5C 307.213,132.352 303.213,130.685 299.5,128.5 Z"/></g>
<g><path style="opacity:0.609" fill="#fe5857" d="M 102.5,127.5 C 109.332,130.412 115.666,134.079 121.5,138.5C 114.668,135.588 108.334,131.921 102.5,127.5 Z"/></g>
<g><path style="opacity:0.549" fill="#fe5452" d="M 169.5,130.5 C 162.685,135.743 155.685,140.743 148.5,145.5C 154.611,139.276 161.611,134.276 169.5,130.5 Z"/></g>
<g><path style="opacity:0.597" fill="#fe5453" d="M 329.5,130.5 C 337.389,134.276 344.389,139.276 350.5,145.5C 343.315,140.743 336.315,135.743 329.5,130.5 Z"/></g>
<g><path style="opacity:0.573" fill="#fe5454" d="M 412.5,127.5 C 411.969,129.624 410.635,131.124 408.5,132C 404.256,134.428 399.922,136.594 395.5,138.5C 400.96,134.598 406.627,130.931 412.5,127.5 Z"/></g>
<g><path style="opacity:0.549" fill="#fe5757" d="M 385.5,131.5 C 383.664,133.588 381.331,134.921 378.5,135.5C 380.336,133.412 382.669,132.079 385.5,131.5 Z"/></g>
<g><path style="opacity:0.549" fill="#fe5453" d="M 378.5,135.5 C 377.167,136.933 375.667,138.267 374,139.5C 373.506,141.134 373.34,142.801 373.5,144.5C 371.199,139.49 372.866,136.49 378.5,135.5 Z"/></g>
<g><path style="opacity:0.541" fill="#fe5958" d="M 181.5,136.5 C 179.664,138.588 177.331,139.921 174.5,140.5C 176.336,138.412 178.669,137.079 181.5,136.5 Z"/></g>
<g><path style="opacity:0.538" fill="#fe5656" d="M 317.5,136.5 C 320.331,137.079 322.664,138.412 324.5,140.5C 321.669,139.921 319.336,138.588 317.5,136.5 Z"/></g>
<g><path style="opacity:0.607" fill="#fe5454" d="M 395.5,138.5 C 393.664,140.588 391.331,141.921 388.5,142.5C 390.336,140.412 392.669,139.079 395.5,138.5 Z"/></g>
<g><path style="opacity:0.54" fill="#fe5958" d="M 174.5,140.5 C 170.852,143.66 166.852,146.327 162.5,148.5C 165.803,144.844 169.803,142.178 174.5,140.5 Z"/></g>
<g><path style="opacity:0.553" fill="#fe5554" d="M 324.5,140.5 C 329.197,142.178 333.197,144.844 336.5,148.5C 332.148,146.327 328.148,143.66 324.5,140.5 Z"/></g>
<g><path style="opacity:0.507" fill="#fe5757" d="M 350.5,145.5 C 355.251,147.916 358.584,151.583 360.5,156.5C 359.696,161.79 356.696,163.623 351.5,162C 350.29,160.961 349.29,159.794 348.5,158.5C 350.489,159.481 352.489,160.481 354.5,161.5C 357.167,160.833 358.833,159.167 359.5,156.5C 356.887,152.55 353.887,148.883 350.5,145.5 Z"/></g>
<g><path style="opacity:0.596" fill="#fe5453" d="M 388.5,142.5 C 384.916,147.047 380.25,148.547 374.5,147C 373.748,146.329 373.414,145.496 373.5,144.5C 374.819,145.897 376.486,146.563 378.5,146.5C 381.804,145.184 385.137,143.851 388.5,142.5 Z"/></g>
<g><path style="opacity:0.58" fill="#fe5555" d="M 336.5,148.5 C 338.404,148.738 339.738,149.738 340.5,151.5C 338.596,151.262 337.262,150.262 336.5,148.5 Z"/></g>
<g><path style="opacity:0.69" fill="#fe5756" d="M 162.5,148.5 C 159.129,151.871 155.463,154.871 151.5,157.5C 154.29,153.372 157.957,150.372 162.5,148.5 Z"/></g>
<g><path style="opacity:0.673" fill="#fe5555" d="M 340.5,151.5 C 343.427,152.757 345.761,154.757 347.5,157.5C 344.573,156.243 342.239,154.243 340.5,151.5 Z"/></g>
<g><path style="opacity:0.403" fill="#fe5655" d="M 148.5,145.5 C 145.113,148.883 142.113,152.55 139.5,156.5C 140.167,159.167 141.833,160.833 144.5,161.5C 146.511,160.481 148.511,159.481 150.5,158.5C 148.562,162.169 145.562,163.336 141.5,162C 138.71,159.79 137.877,156.956 139,153.5C 141.766,150.223 144.933,147.557 148.5,145.5 Z"/></g>
<g><path style="opacity:1" fill="#fffefe" d="M 95.5,173.5 C 97.4147,173.216 99.0813,173.549 100.5,174.5C 102.214,175.738 104.214,176.405 106.5,176.5C 108.181,178.008 110.181,179.008 112.5,179.5C 114.55,181.547 116.883,183.214 119.5,184.5C 121.5,187.167 123.833,189.5 126.5,191.5C 128.344,195.192 130.677,198.525 133.5,201.5C 134.326,204.485 135.659,207.151 137.5,209.5C 138.261,213.784 139.595,217.784 141.5,221.5C 142.451,222.919 142.784,224.585 142.5,226.5C 143.143,234.15 143.477,241.817 143.5,249.5C 142.188,255.72 140.855,262.053 139.5,268.5C 136.93,273.311 134.597,278.311 132.5,283.5C 131.094,283.973 130.427,284.973 130.5,286.5C 126.528,290.807 122.528,295.141 118.5,299.5C 116.596,299.738 115.262,300.738 114.5,302.5C 110.849,303.659 107.515,305.326 104.5,307.5C 103.791,308.404 102.791,308.737 101.5,308.5C 94.8627,309.276 88.1961,309.609 81.5,309.5C 77.6472,307.993 73.6472,306.66 69.5,305.5C 61.2434,299.913 53.91,293.246 47.5,285.5C 47.2503,283.326 46.2503,281.659 44.5,280.5C 44.3404,278.847 43.6737,277.514 42.5,276.5C 41.6618,276.158 41.3284,275.492 41.5,274.5C 36.5729,260.6 34.5729,246.267 35.5,231.5C 36.6874,228.054 37.3541,224.387 37.5,220.5C 41.0118,211.142 45.3452,202.142 50.5,193.5C 59.3524,183.406 70.3524,176.906 83.5,174C 87.4862,173.501 91.4862,173.334 95.5,173.5 Z"/></g>
<g><path style="opacity:1" fill="#fffefe" d="M 423.5,175.5 C 424.78,176.931 426.447,177.598 428.5,177.5C 429.492,177.328 430.158,177.662 430.5,178.5C 434.491,181.497 438.491,184.497 442.5,187.5C 443.5,187.833 444.167,188.5 444.5,189.5C 450.528,197.553 455.528,206.22 459.5,215.5C 461.251,223.566 462.584,231.566 463.5,239.5C 464.833,240.833 464.833,242.167 463.5,243.5C 462.584,251.434 461.251,259.434 459.5,267.5C 459.737,268.791 459.404,269.791 458.5,270.5C 456.707,272.426 455.707,274.759 455.5,277.5C 455.672,278.492 455.338,279.158 454.5,279.5C 452.336,281.822 450.669,284.489 449.5,287.5C 447.413,288.585 446.08,290.251 445.5,292.5C 443.167,294.167 441.167,296.167 439.5,298.5C 428.327,306.999 415.66,310.665 401.5,309.5C 398.381,308.13 395.048,307.13 391.5,306.5C 389.819,304.992 387.819,303.992 385.5,303.5C 385.027,302.094 384.027,301.427 382.5,301.5C 381.415,299.413 379.749,298.08 377.5,297.5C 376.833,297.5 376.5,297.167 376.5,296.5C 375.833,295.167 374.833,294.167 373.5,293.5C 371.542,290.208 369.209,287.208 366.5,284.5C 361.619,274.848 357.952,264.848 355.5,254.5C 355.328,244.143 355.661,233.81 356.5,223.5C 356.232,221.901 356.566,220.568 357.5,219.5C 359.072,216.785 360.072,213.785 360.5,210.5C 362.674,207.485 364.341,204.151 365.5,200.5C 367.326,198.853 368.66,196.853 369.5,194.5C 371.914,193.089 373.581,191.089 374.5,188.5C 380.632,183.372 387.299,179.038 394.5,175.5C 397.428,175.435 400.095,174.768 402.5,173.5C 406.646,172.353 410.98,172.186 415.5,173C 418.457,173.279 421.123,174.113 423.5,175.5 Z"/></g>
<g><path style="opacity:0.612" fill="#fe5555" d="M 402.5,173.5 C 400.095,174.768 397.428,175.435 394.5,175.5C 396.838,173.96 399.505,173.294 402.5,173.5 Z"/></g>
<g><path style="opacity:0.582" fill="#fe5453" d="M 100.5,174.5 C 102.898,174.259 104.898,174.926 106.5,176.5C 104.214,176.405 102.214,175.738 100.5,174.5 Z"/></g>
<g><path style="opacity:0.688" fill="#fe5554" d="M 394.5,175.5 C 387.299,179.038 380.632,183.372 374.5,188.5C 379.571,181.771 386.238,177.438 394.5,175.5 Z"/></g>
<g><path style="opacity:0.625" fill="#fe5656" d="M 423.5,175.5 C 425.553,175.402 427.22,176.069 428.5,177.5C 426.447,177.598 424.78,176.931 423.5,175.5 Z"/></g>
<g><path style="opacity:0.741" fill="#fe5656" d="M 95.5,173.5 C 91.4862,173.334 87.4862,173.501 83.5,174C 70.3524,176.906 59.3524,183.406 50.5,193.5C 61.5534,177.804 76.5534,171.137 95.5,173.5 Z"/></g>
<g><path style="opacity:0.618" fill="#fe5252" d="M 106.5,176.5 C 109.089,176.461 111.089,177.461 112.5,179.5C 110.181,179.008 108.181,178.008 106.5,176.5 Z"/></g>
<g><path style="opacity:0.654" fill="#fe5656" d="M 262.5,182.5 C 249.438,180.348 236.771,181.681 224.5,186.5C 234.75,181.021 245.75,179.187 257.5,181C 259.382,181.198 261.048,181.698 262.5,182.5 Z"/></g>
<g><path style="opacity:1" fill="#fffefe" d="M 262.5,182.5 C 265.215,184.072 268.215,185.072 271.5,185.5C 273.849,187.341 276.515,188.674 279.5,189.5C 286.439,195.101 293.106,201.101 299.5,207.5C 305.907,217.648 311.241,228.314 315.5,239.5C 316.01,244.391 317.01,249.058 318.5,253.5C 320.276,260.796 320.609,268.129 319.5,275.5C 318.449,280.646 317.782,285.979 317.5,291.5C 315.196,298.749 312.863,306.083 310.5,313.5C 308.992,315.181 307.992,317.181 307.5,319.5C 304.779,322.894 302.446,326.561 300.5,330.5C 298.086,331.911 296.419,333.911 295.5,336.5C 293.5,337.833 291.833,339.5 290.5,341.5C 287.208,343.458 284.208,345.791 281.5,348.5C 279.326,348.75 277.659,349.75 276.5,351.5C 276.158,352.338 275.492,352.672 274.5,352.5C 261.572,357.428 248.239,358.761 234.5,356.5C 232.786,355.262 230.786,354.595 228.5,354.5C 223.175,351.503 217.841,348.503 212.5,345.5C 208.167,340.5 203.5,335.833 198.5,331.5C 194.244,324.655 190.244,317.655 186.5,310.5C 184.668,303.679 182.668,297.012 180.5,290.5C 180.182,283.654 179.515,276.987 178.5,270.5C 178.5,268.5 178.5,266.5 178.5,264.5C 179.955,251.579 182.955,238.912 187.5,226.5C 189.341,224.151 190.674,221.485 191.5,218.5C 193.25,217.341 194.25,215.674 194.5,213.5C 195.906,213.027 196.573,212.027 196.5,210.5C 198.262,209.738 199.262,208.404 199.5,206.5C 205.936,199.722 212.936,193.722 220.5,188.5C 221.514,187.326 222.847,186.66 224.5,186.5C 236.771,181.681 249.438,180.348 262.5,182.5 Z"/></g>
<g><path style="opacity:0.658" fill="#fe5453" d="M 112.5,179.5 C 115.674,180.01 118.008,181.677 119.5,184.5C 116.883,183.214 114.55,181.547 112.5,179.5 Z"/></g>
<g><path style="opacity:0.56" fill="#fe5555" d="M 262.5,182.5 C 265.916,182.528 268.916,183.528 271.5,185.5C 268.215,185.072 265.215,184.072 262.5,182.5 Z"/></g>
<g><path style="opacity:0.699" fill="#fe5656" d="M 430.5,178.5 C 435.582,180.043 439.582,183.043 442.5,187.5C 438.491,184.497 434.491,181.497 430.5,178.5 Z"/></g>
<g><path style="opacity:0.406" fill="#fe5454" d="M 119.5,184.5 C 122.833,185.833 125.167,188.167 126.5,191.5C 123.833,189.5 121.5,187.167 119.5,184.5 Z"/></g>
<g><path style="opacity:0.633" fill="#fe5b5a" d="M 271.5,185.5 C 274.754,185.794 277.421,187.127 279.5,189.5C 276.515,188.674 273.849,187.341 271.5,185.5 Z"/></g>
<g><path style="opacity:0.605" fill="#fe5656" d="M 374.5,188.5 C 373.581,191.089 371.914,193.089 369.5,194.5C 370.419,191.911 372.086,189.911 374.5,188.5 Z"/></g>
<g><path style="opacity:0.558" fill="#fe5656" d="M 126.5,191.5 C 129.815,194.125 132.149,197.458 133.5,201.5C 130.677,198.525 128.344,195.192 126.5,191.5 Z"/></g>
<g><path style="opacity:0.749" fill="#fe5858" d="M 369.5,194.5 C 368.66,196.853 367.326,198.853 365.5,200.5C 365.845,197.802 367.178,195.802 369.5,194.5 Z"/></g>
<g><path style="opacity:0.615" fill="#fe5656" d="M 220.5,188.5 C 212.936,193.722 205.936,199.722 199.5,206.5C 204.658,198.342 211.658,192.342 220.5,188.5 Z"/></g>
<g><path style="opacity:0.672" fill="#fe5656" d="M 279.5,189.5 C 287.736,193.735 294.402,199.735 299.5,207.5C 293.106,201.101 286.439,195.101 279.5,189.5 Z"/></g>
<g><path style="opacity:0.525" fill="#fe5555" d="M 365.5,200.5 C 364.341,204.151 362.674,207.485 360.5,210.5C 361.127,206.58 362.793,203.247 365.5,200.5 Z"/></g>
<g><path style="opacity:0.669" fill="#fe5757" d="M 444.5,189.5 C 452.055,196.599 457.055,205.266 459.5,215.5C 455.528,206.22 450.528,197.553 444.5,189.5 Z"/></g>
<g><path style="opacity:0.721" fill="#fe5757" d="M 50.5,193.5 C 45.3452,202.142 41.0118,211.142 37.5,220.5C 39.4514,210.266 43.7847,201.266 50.5,193.5 Z"/></g>
<g><path style="opacity:0.539" fill="#fe5454" d="M 133.5,201.5 C 135.873,203.579 137.206,206.246 137.5,209.5C 135.659,207.151 134.326,204.485 133.5,201.5 Z"/></g>
<g><path style="opacity:0.574" fill="#fe5656" d="M 199.5,206.5 C 199.262,208.404 198.262,209.738 196.5,210.5C 196.738,208.596 197.738,207.262 199.5,206.5 Z"/></g>
<g><path style="opacity:0.505" fill="#fe5655" d="M 360.5,210.5 C 360.072,213.785 359.072,216.785 357.5,219.5C 357.528,216.084 358.528,213.084 360.5,210.5 Z"/></g>
<g><path style="opacity:0.702" fill="#fe5757" d="M 196.5,210.5 C 196.573,212.027 195.906,213.027 194.5,213.5C 194.427,211.973 195.094,210.973 196.5,210.5 Z"/></g>
<g><path style="opacity:0.55" fill="#fe5656" d="M 194.5,213.5 C 194.25,215.674 193.25,217.341 191.5,218.5C 191.75,216.326 192.75,214.659 194.5,213.5 Z"/></g>
<g><path style="opacity:0.562" fill="#fe5555" d="M 299.5,207.5 C 307.463,216.76 312.797,227.426 315.5,239.5C 311.241,228.314 305.907,217.648 299.5,207.5 Z"/></g>
<g><path style="opacity:0.693" fill="#fe5655" d="M 137.5,209.5 C 139.806,213.085 141.139,217.085 141.5,221.5C 139.595,217.784 138.261,213.784 137.5,209.5 Z"/></g>
<g><path style="opacity:0.591" fill="#fe5555" d="M 459.5,215.5 C 462.741,223.055 464.074,231.055 463.5,239.5C 462.584,231.566 461.251,223.566 459.5,215.5 Z"/></g>
<g><path style="opacity:0.556" fill="#fe5656" d="M 37.5,220.5 C 37.3541,224.387 36.6874,228.054 35.5,231.5C 35.2511,227.542 35.9177,223.876 37.5,220.5 Z"/></g>
<g><path style="opacity:0.43" fill="#fe5757" d="M 191.5,218.5 C 190.674,221.485 189.341,224.151 187.5,226.5C 187.794,223.246 189.127,220.579 191.5,218.5 Z"/></g>
<g><path style="opacity:0.693" fill="#fe5656" d="M 356.5,223.5 C 355.661,233.81 355.328,244.143 355.5,254.5C 354.834,250.347 354.501,246.013 354.5,241.5C 354.294,235.251 354.96,229.251 356.5,223.5 Z"/></g>
<g><path style="opacity:0.804" fill="#fe5655" d="M 187.5,226.5 C 182.955,238.912 179.955,251.579 178.5,264.5C 178.464,250.994 181.464,238.327 187.5,226.5 Z"/></g>
<g><path style="opacity:0.294" fill="#fe5656" d="M 142.5,226.5 C 144.539,234.111 144.872,241.777 143.5,249.5C 143.477,241.817 143.143,234.15 142.5,226.5 Z"/></g>
<g><path style="opacity:0.612" fill="#fe5757" d="M 315.5,239.5 C 317.502,243.833 318.502,248.5 318.5,253.5C 317.01,249.058 316.01,244.391 315.5,239.5 Z"/></g>
<g><path style="opacity:0.76" fill="#fe5656" d="M 463.5,243.5 C 464.074,251.945 462.741,259.945 459.5,267.5C 461.251,259.434 462.584,251.434 463.5,243.5 Z"/></g>
<g><path style="opacity:0.634" fill="#fe5554" d="M 143.5,249.5 C 143.681,256.269 142.347,262.602 139.5,268.5C 140.855,262.053 142.188,255.72 143.5,249.5 Z"/></g>
<g><path style="opacity:0.515" fill="#fe5656" d="M 35.5,231.5 C 34.5729,246.267 36.5729,260.6 41.5,274.5C 35.043,260.762 33.043,246.429 35.5,231.5 Z"/></g>
<g><path style="opacity:0.684" fill="#fe5555" d="M 458.5,270.5 C 458.293,273.241 457.293,275.574 455.5,277.5C 455.707,274.759 456.707,272.426 458.5,270.5 Z"/></g>
<g><path style="opacity:0.648" fill="#fe5756" d="M 355.5,254.5 C 357.952,264.848 361.619,274.848 366.5,284.5C 360.087,275.604 356.421,265.604 355.5,254.5 Z"/></g>
<g><path style="opacity:0.606" fill="#fe5352" d="M 319.5,275.5 C 319.844,281.098 319.178,286.432 317.5,291.5C 317.782,285.979 318.449,280.646 319.5,275.5 Z"/></g>
<g><path style="opacity:0.585" fill="#fe5656" d="M 139.5,268.5 C 138.486,274.192 136.152,279.192 132.5,283.5C 134.597,278.311 136.93,273.311 139.5,268.5 Z"/></g>
<g><path style="opacity:0.82" fill="#fe4d49" d="M 42.5,276.5 C 43.6737,277.514 44.3404,278.847 44.5,280.5C 42.8958,279.713 42.2291,278.38 42.5,276.5 Z"/></g>
<g><path style="opacity:0.539" fill="#fe5250" d="M 454.5,279.5 C 453.831,282.849 452.164,285.516 449.5,287.5C 450.669,284.489 452.336,281.822 454.5,279.5 Z"/></g>
<g><path style="opacity:0.611" fill="#fe5454" d="M 44.5,280.5 C 46.2503,281.659 47.2503,283.326 47.5,285.5C 45.7497,284.341 44.7497,282.674 44.5,280.5 Z"/></g>
<g><path style="opacity:0.517" fill="#fe5655" d="M 132.5,283.5 C 132.573,285.027 131.906,286.027 130.5,286.5C 130.427,284.973 131.094,283.973 132.5,283.5 Z"/></g>
<g><path style="opacity:0.568" fill="#fe5555" d="M 178.5,270.5 C 179.515,276.987 180.182,283.654 180.5,290.5C 178.799,284.081 178.133,277.415 178.5,270.5 Z"/></g>
<g><path style="opacity:0.61" fill="#fe5555" d="M 366.5,284.5 C 369.209,287.208 371.542,290.208 373.5,293.5C 370.027,291.363 367.694,288.363 366.5,284.5 Z"/></g>
<g><path style="opacity:0.644" fill="#fe5656" d="M 449.5,287.5 C 448.92,289.749 447.587,291.415 445.5,292.5C 446.08,290.251 447.413,288.585 449.5,287.5 Z"/></g>
<g><path style="opacity:0.652" fill="#fe5554" d="M 47.5,285.5 C 53.91,293.246 61.2434,299.913 69.5,305.5C 59.943,301.276 52.6097,294.61 47.5,285.5 Z"/></g>
<g><path style="opacity:0.403" fill="#fe4d4a" d="M 373.5,293.5 C 374.833,294.167 375.833,295.167 376.5,296.5C 374.5,296.5 373.5,295.5 373.5,293.5 Z"/></g>
<g><path style="opacity:0.027" fill="#fe4946" d="M 445.5,292.5 C 444.5,295.5 442.5,297.5 439.5,298.5C 441.167,296.167 443.167,294.167 445.5,292.5 Z"/></g>
<g><path style="opacity:0.102" fill="#fe5454" d="M 130.5,286.5 C 127.887,292.113 123.887,296.446 118.5,299.5C 122.528,295.141 126.528,290.807 130.5,286.5 Z"/></g>
<g><path style="opacity:0.628" fill="#fe5656" d="M 377.5,297.5 C 379.749,298.08 381.415,299.413 382.5,301.5C 380.251,300.92 378.585,299.587 377.5,297.5 Z"/></g>
<g><path style="opacity:0.596" fill="#fe5757" d="M 118.5,299.5 C 117.738,301.262 116.404,302.262 114.5,302.5C 115.262,300.738 116.596,299.738 118.5,299.5 Z"/></g>
<g><path style="opacity:0.516" fill="#fe5655" d="M 382.5,301.5 C 384.027,301.427 385.027,302.094 385.5,303.5C 383.973,303.573 382.973,302.906 382.5,301.5 Z"/></g>
<g><path style="opacity:0.544" fill="#fe5656" d="M 114.5,302.5 C 111.753,305.207 108.42,306.873 104.5,307.5C 107.515,305.326 110.849,303.659 114.5,302.5 Z"/></g>
<g><path style="opacity:0.611" fill="#fe5858" d="M 317.5,291.5 C 316.745,299.428 314.412,306.761 310.5,313.5C 312.863,306.083 315.196,298.749 317.5,291.5 Z"/></g>
<g><path style="opacity:0.522" fill="#fe5858" d="M 385.5,303.5 C 387.819,303.992 389.819,304.992 391.5,306.5C 388.911,306.539 386.911,305.539 385.5,303.5 Z"/></g>
<g><path style="opacity:0.585" fill="#fe5656" d="M 180.5,290.5 C 182.668,297.012 184.668,303.679 186.5,310.5C 183.117,304.344 181.117,297.677 180.5,290.5 Z"/></g>
<g><path style="opacity:0.506" fill="#fe5453" d="M 69.5,305.5 C 73.6472,306.66 77.6472,307.993 81.5,309.5C 76.9555,309.541 72.9555,308.208 69.5,305.5 Z"/></g>
<g><path style="opacity:0.568" fill="#fe5656" d="M 391.5,306.5 C 395.048,307.13 398.381,308.13 401.5,309.5C 397.714,309.68 394.381,308.68 391.5,306.5 Z"/></g>
<g><path style="opacity:0.519" fill="#fe5554" d="M 439.5,298.5 C 431.268,306.585 421.268,310.585 409.5,310.5C 406.645,310.497 403.978,310.164 401.5,309.5C 415.66,310.665 428.327,306.999 439.5,298.5 Z"/></g>
<g><path style="opacity:0.58" fill="#fe5656" d="M 101.5,308.5 C 97.7773,309.997 93.7773,310.663 89.5,310.5C 86.6445,310.497 83.9779,310.164 81.5,309.5C 88.1961,309.609 94.8627,309.276 101.5,308.5 Z"/></g>
<g><path style="opacity:0.771" fill="#fe5757" d="M 186.5,310.5 C 190.244,317.655 194.244,324.655 198.5,331.5C 192.715,325.605 188.715,318.605 186.5,310.5 Z"/></g>
<g><path style="opacity:0.545" fill="#ff4a45" d="M 310.5,313.5 C 310.539,316.089 309.539,318.089 307.5,319.5C 307.992,317.181 308.992,315.181 310.5,313.5 Z"/></g>
<g><path style="opacity:0.555" fill="#fe5554" d="M 55.5,326.5 C 46.6644,323.516 37.9977,323.849 29.5,327.5C 33.0915,324.194 37.4248,322.861 42.5,323.5C 47.2781,323.132 51.6114,324.132 55.5,326.5 Z"/></g>
<g><path style="opacity:1" fill="#fffdfd" d="M 142.5,324.5 C 143.78,325.931 145.447,326.598 147.5,326.5C 149.55,328.547 151.883,330.214 154.5,331.5C 157.833,335.5 161.5,339.167 165.5,342.5C 166.167,342.5 166.5,342.833 166.5,343.5C 168.688,347.207 171.355,350.54 174.5,353.5C 174.427,355.027 175.094,356.027 176.5,356.5C 175.833,357.167 175.167,357.833 174.5,358.5C 173.791,359.404 172.791,359.737 171.5,359.5C 165.23,360.965 159.896,363.965 155.5,368.5C 150.594,371.898 146.094,375.898 142,380.5C 139.619,384.636 136.786,388.302 133.5,391.5C 126.076,393.348 118.41,394.514 110.5,395C 98.8333,395.667 87.1667,395.667 75.5,395C 71.9748,394.821 68.6414,394.321 65.5,393.5C 58.0143,391.863 50.3476,390.529 42.5,389.5C 36.3878,387.387 30.0545,385.721 23.5,384.5C 20.2154,384.072 17.2154,383.072 14.5,381.5C 11.4701,379.597 8.13681,378.263 4.5,377.5C 3.07071,376.766 2.07071,375.599 1.5,374C 2.14758,372.56 2.48091,371.06 2.5,369.5C 5.40269,364.14 7.73602,358.473 9.5,352.5C 9.32842,351.508 9.66175,350.842 10.5,350.5C 13.3095,346.232 16.1428,341.898 19,337.5C 22.3955,333.935 25.8955,330.602 29.5,327.5C 37.9977,323.849 46.6644,323.516 55.5,326.5C 56.791,326.263 57.791,326.596 58.5,327.5C 62.0845,329.806 66.0845,331.139 70.5,331.5C 73.1709,333.118 76.1709,333.785 79.5,333.5C 82.6491,334.165 85.9825,334.498 89.5,334.5C 94.7551,334.666 99.7551,333.999 104.5,332.5C 107.152,332.59 109.485,331.924 111.5,330.5C 113.898,330.741 115.898,330.074 117.5,328.5C 121.784,327.739 125.784,326.405 129.5,324.5C 133.833,323.167 138.167,323.167 142.5,324.5 Z"/></g>
<g><path style="opacity:0.508" fill="#fe5453" d="M 307.5,319.5 C 306.343,323.976 304.01,327.642 300.5,330.5C 302.446,326.561 304.779,322.894 307.5,319.5 Z"/></g>
<g><path style="opacity:1" fill="#fffefe" d="M 372.5,325.5 C 380.943,329.756 389.943,332.423 399.5,333.5C 405.987,334.654 412.654,334.821 419.5,334C 429.675,331.609 439.675,328.609 449.5,325C 456.947,323.701 463.947,324.868 470.5,328.5C 471.585,330.587 473.251,331.92 475.5,332.5C 476.5,332.833 477.167,333.5 477.5,334.5C 478.08,336.749 479.413,338.415 481.5,339.5C 488.041,351.087 493.374,363.254 497.5,376C 497.257,376.902 496.923,377.735 496.5,378.5C 493.759,378.707 491.426,379.707 489.5,381.5C 487.447,381.402 485.78,382.069 484.5,383.5C 479.216,384.595 474.216,386.261 469.5,388.5C 463.906,389.232 458.573,390.565 453.5,392.5C 449.613,392.646 445.946,393.313 442.5,394.5C 436.966,394.668 431.633,395.335 426.5,396.5C 415.167,397.833 403.833,397.833 392.5,396.5C 382.855,395.283 373.189,393.449 363.5,391C 362.267,389.333 360.933,387.833 359.5,386.5C 358.306,382.637 355.973,379.637 352.5,377.5C 351.833,374.833 350.167,373.167 347.5,372.5C 345.363,369.027 342.363,366.694 338.5,365.5C 336.664,363.412 334.331,362.079 331.5,361.5C 328.662,359.654 325.662,357.988 322.5,356.5C 324.22,353.798 325.887,351.132 327.5,348.5C 330.903,346.1 333.57,343.1 335.5,339.5C 335.5,338.833 335.833,338.5 336.5,338.5C 337.5,338.167 338.167,337.5 338.5,336.5C 338.833,335.5 339.5,334.833 340.5,334.5C 345.315,330.587 350.648,327.421 356.5,325C 361.861,324.391 367.195,324.558 372.5,325.5 Z"/></g>
<g><path style="opacity:0.648" fill="#fe5656" d="M 129.5,324.5 C 125.784,326.405 121.784,327.739 117.5,328.5C 121.085,326.194 125.085,324.861 129.5,324.5 Z"/></g>
<g><path style="opacity:0.847" fill="#fe5757" d="M 142.5,324.5 C 144.553,324.402 146.22,325.069 147.5,326.5C 145.447,326.598 143.78,325.931 142.5,324.5 Z"/></g>
<g><path style="opacity:0.548" fill="#fe5757" d="M 117.5,328.5 C 115.898,330.074 113.898,330.741 111.5,330.5C 113.214,329.262 115.214,328.595 117.5,328.5 Z"/></g>
<g><path style="opacity:0.588" fill="#fe5555" d="M 147.5,326.5 C 150.674,327.01 153.008,328.677 154.5,331.5C 151.883,330.214 149.55,328.547 147.5,326.5 Z"/></g>
<g><path style="opacity:0.665" fill="#fe5656" d="M 58.5,327.5 C 62.7843,328.261 66.7843,329.595 70.5,331.5C 66.0845,331.139 62.0845,329.806 58.5,327.5 Z"/></g>
<g><path style="opacity:0.478" fill="#fe5656" d="M 372.5,325.5 C 381.599,328.203 390.599,330.87 399.5,333.5C 389.943,332.423 380.943,329.756 372.5,325.5 Z"/></g>
<g><path style="opacity:0.63" fill="#fe5656" d="M 372.5,325.5 C 367.195,324.558 361.861,324.391 356.5,325C 350.648,327.421 345.315,330.587 340.5,334.5C 349.054,323.757 359.72,320.757 372.5,325.5 Z"/></g>
<g><path style="opacity:0.627" fill="#fe5757" d="M 470.5,328.5 C 472.749,329.08 474.415,330.413 475.5,332.5C 473.251,331.92 471.585,330.587 470.5,328.5 Z"/></g>
<g><path style="opacity:0.509" fill="#fe504d" d="M 111.5,330.5 C 109.485,331.924 107.152,332.59 104.5,332.5C 106.515,331.076 108.848,330.41 111.5,330.5 Z"/></g>
<g><path style="opacity:0.621" fill="#fe5757" d="M 70.5,331.5 C 73.7273,331.676 76.7273,332.343 79.5,333.5C 76.1709,333.785 73.1709,333.118 70.5,331.5 Z"/></g>
<g><path style="opacity:0.133" fill="#fe5858" d="M 300.5,330.5 C 299.581,333.089 297.914,335.089 295.5,336.5C 296.419,333.911 298.086,331.911 300.5,330.5 Z"/></g>
<g><path style="opacity:0.552" fill="#fe5555" d="M 470.5,328.5 C 463.947,324.868 456.947,323.701 449.5,325C 439.675,328.609 429.675,331.609 419.5,334C 412.654,334.821 405.987,334.654 399.5,333.5C 405.842,333.666 412.175,333.5 418.5,333C 428.675,330.609 438.675,327.609 448.5,324C 453.167,323.333 457.833,323.333 462.5,324C 465.684,324.754 468.351,326.254 470.5,328.5 Z"/></g>
<g><path style="opacity:0.45" fill="#fe5555" d="M 104.5,332.5 C 99.7551,333.999 94.7551,334.666 89.5,334.5C 85.9825,334.498 82.6491,334.165 79.5,333.5C 87.8578,333.621 96.1912,333.288 104.5,332.5 Z"/></g>
<g><path style="opacity:0.677" fill="#fe5656" d="M 198.5,331.5 C 203.5,335.833 208.167,340.5 212.5,345.5C 206.833,341.833 202.167,337.167 198.5,331.5 Z"/></g>
<g><path style="opacity:0.569" fill="#fe4944" d="M 338.5,336.5 C 338.167,337.5 337.5,338.167 336.5,338.5C 336.5,337.167 337.167,336.5 338.5,336.5 Z"/></g>
<g><path style="opacity:0.641" fill="#fe5656" d="M 477.5,334.5 C 479.587,335.585 480.92,337.251 481.5,339.5C 479.413,338.415 478.08,336.749 477.5,334.5 Z"/></g>
<g><path style="opacity:0.773" fill="#fe4e4d" d="M 154.5,331.5 C 159.167,334.167 162.833,337.833 165.5,342.5C 161.5,339.167 157.833,335.5 154.5,331.5 Z"/></g>
<g><path style="opacity:0.008" fill="#ff5a53" d="M 295.5,336.5 C 294.833,339.167 293.167,340.833 290.5,341.5C 291.833,339.5 293.5,337.833 295.5,336.5 Z"/></g>
<g><path style="opacity:0.617" fill="#fe5555" d="M 290.5,341.5 C 288.363,344.973 285.363,347.306 281.5,348.5C 284.208,345.791 287.208,343.458 290.5,341.5 Z"/></g>
<g><path style="opacity:0.693" fill="#fe5555" d="M 335.5,339.5 C 333.57,343.1 330.903,346.1 327.5,348.5C 329.43,344.9 332.097,341.9 335.5,339.5 Z"/></g>
<g><path style="opacity:0.628" fill="#fe5554" d="M 29.5,327.5 C 25.8955,330.602 22.3955,333.935 19,337.5C 16.1428,341.898 13.3095,346.232 10.5,350.5C 13.7841,340.238 20.1174,332.571 29.5,327.5 Z"/></g>
<g><path style="opacity:0.595" fill="#fe5757" d="M 166.5,343.5 C 170.126,346.095 172.792,349.428 174.5,353.5C 171.355,350.54 168.688,347.207 166.5,343.5 Z"/></g>
<g><path style="opacity:0.599" fill="#fe5555" d="M 281.5,348.5 C 280.341,350.25 278.674,351.25 276.5,351.5C 277.659,349.75 279.326,348.75 281.5,348.5 Z"/></g>
<g><path style="opacity:0.612" fill="#fe5656" d="M 212.5,345.5 C 217.841,348.503 223.175,351.503 228.5,354.5C 222.23,353.035 216.896,350.035 212.5,345.5 Z"/></g>
<g><path style="opacity:0.624" fill="#fe5656" d="M 174.5,353.5 C 175.906,353.973 176.573,354.973 176.5,356.5C 175.094,356.027 174.427,355.027 174.5,353.5 Z"/></g>
<g><path style="opacity:0.426" fill="#fe5555" d="M 228.5,354.5 C 230.786,354.595 232.786,355.262 234.5,356.5C 232.102,356.741 230.102,356.074 228.5,354.5 Z"/></g>
<g><path style="opacity:0.78" fill="#fe5757" d="M 9.5,352.5 C 7.73602,358.473 5.40269,364.14 2.5,369.5C 3.87339,363.365 6.20673,357.699 9.5,352.5 Z"/></g>
<g><path style="opacity:0.691" fill="#fe5656" d="M 327.5,348.5 C 325.887,351.132 324.22,353.798 322.5,356.5C 325.662,357.988 328.662,359.654 331.5,361.5C 327.706,360.568 324.039,359.235 320.5,357.5C 322.129,353.888 324.462,350.888 327.5,348.5 Z"/></g>
<g><path style="opacity:0.525" fill="#fe5656" d="M 176.5,356.5 C 177.043,356.56 177.376,356.893 177.5,357.5C 176.675,358.386 175.675,358.719 174.5,358.5C 175.167,357.833 175.833,357.167 176.5,356.5 Z"/></g>
<g><path style="opacity:0.678" fill="#fe5656" d="M 274.5,352.5 C 269.995,355.394 264.995,357.227 259.5,358C 252.5,358.667 245.5,358.667 238.5,358C 236.942,357.79 235.609,357.29 234.5,356.5C 248.239,358.761 261.572,357.428 274.5,352.5 Z"/></g>
<g><path style="opacity:0.525" fill="#fe5555" d="M 171.5,359.5 C 166.175,362.497 160.841,365.497 155.5,368.5C 159.896,363.965 165.23,360.965 171.5,359.5 Z"/></g>
<g><path style="opacity:0.592" fill="#fe5554" d="M 481.5,339.5 C 485.73,344.944 489.23,350.944 492,357.5C 494.554,363.922 497.054,370.255 499.5,376.5C 499.5,377.167 499.5,377.833 499.5,378.5C 498.5,378.5 497.5,378.5 496.5,378.5C 496.923,377.735 497.257,376.902 497.5,376C 493.374,363.254 488.041,351.087 481.5,339.5 Z"/></g>
<g><path style="opacity:0.539" fill="#fe5554" d="M 331.5,361.5 C 334.331,362.079 336.664,363.412 338.5,365.5C 335.669,364.921 333.336,363.588 331.5,361.5 Z"/></g>
<g><path style="opacity:0.571" fill="#fe4f4c" d="M 338.5,365.5 C 342.363,366.694 345.363,369.027 347.5,372.5C 344.208,370.542 341.208,368.209 338.5,365.5 Z"/></g>
<g><path style="opacity:0.514" fill="#fe5655" d="M 2.5,369.5 C 2.48091,371.06 2.14758,372.56 1.5,374C 2.07071,375.599 3.07071,376.766 4.5,377.5C 2.7839,377.371 1.11723,377.038 -0.5,376.5C -0.5,375.833 -0.5,375.167 -0.5,374.5C 0.312714,372.739 1.31271,371.072 2.5,369.5 Z"/></g>
<g><path style="opacity:0.649" fill="#fe5656" d="M 347.5,372.5 C 350.167,373.167 351.833,374.833 352.5,377.5C 350.5,376.167 348.833,374.5 347.5,372.5 Z"/></g>
<g><path style="opacity:0.516" fill="#fe5858" d="M 202.5,378.5 C 194.573,376.395 186.573,376.062 178.5,377.5C 181.526,375.981 184.859,375.315 188.5,375.5C 193.552,375.267 198.218,376.267 202.5,378.5 Z"/></g>
<g><path style="opacity:1" fill="#fffdfd" d="M 202.5,378.5 C 203.791,378.263 204.791,378.596 205.5,379.5C 212.085,382.806 219.085,385.14 226.5,386.5C 228.099,386.232 229.432,386.566 230.5,387.5C 235.234,389.145 240.234,389.811 245.5,389.5C 252.847,388.965 260.181,388.299 267.5,387.5C 270.495,387.706 273.162,387.04 275.5,385.5C 277.214,384.262 279.214,383.595 281.5,383.5C 289.051,381.537 296.385,379.204 303.5,376.5C 308.913,376.229 314.246,376.729 319.5,378C 323.22,379.86 326.886,381.693 330.5,383.5C 333.833,387.5 337.5,391.167 341.5,394.5C 343.446,398.439 345.779,402.106 348.5,405.5C 349.659,409.151 351.326,412.485 353.5,415.5C 357.063,425.353 360.73,435.187 364.5,445C 359.936,448.11 355.269,450.944 350.5,453.5C 339.146,456.837 327.812,459.837 316.5,462.5C 308.302,463.025 300.302,464.025 292.5,465.5C 279.032,466.995 265.365,467.662 251.5,467.5C 237.967,467.674 224.633,467.007 211.5,465.5C 202.686,463.812 193.686,462.478 184.5,461.5C 180.425,459.882 176.092,458.882 171.5,458.5C 169.485,457.076 167.152,456.41 164.5,456.5C 158.332,453.925 151.999,451.591 145.5,449.5C 143.819,447.992 141.819,446.992 139.5,446.5C 138.341,444.75 136.674,443.75 134.5,443.5C 133.167,442.833 133.167,442.167 134.5,441.5C 137.541,434.72 140.208,427.72 142.5,420.5C 146.008,414.818 149.008,408.818 151.5,402.5C 154.241,400.025 156.241,397.025 157.5,393.5C 160.833,390.833 163.833,387.833 166.5,384.5C 170.508,382.163 174.508,379.83 178.5,377.5C 186.573,376.062 194.573,376.395 202.5,378.5 Z"/></g>
<g><path style="opacity:0.604" fill="#fe5554" d="M 303.5,376.5 C 313.717,373.971 322.717,376.305 330.5,383.5C 326.886,381.693 323.22,379.86 319.5,378C 314.246,376.729 308.913,376.229 303.5,376.5 Z"/></g>
<g><path style="opacity:0.733" fill="#fe5555" d="M 303.5,376.5 C 296.385,379.204 289.051,381.537 281.5,383.5C 288.373,379.988 295.706,377.655 303.5,376.5 Z"/></g>
<g><path style="opacity:0.592" fill="#fe5555" d="M 496.5,378.5 C 494.574,380.293 492.241,381.293 489.5,381.5C 491.426,379.707 493.759,378.707 496.5,378.5 Z"/></g>
<g><path style="opacity:0.544" fill="#fe5757" d="M 4.5,377.5 C 8.13681,378.263 11.4701,379.597 14.5,381.5C 10.7029,381.128 7.36955,379.794 4.5,377.5 Z"/></g>
<g><path style="opacity:0.601" fill="#fe5554" d="M 352.5,377.5 C 355.973,379.637 358.306,382.637 359.5,386.5C 356.791,383.792 354.458,380.792 352.5,377.5 Z"/></g>
<g><path style="opacity:0.574" fill="#fe5655" d="M 155.5,368.5 C 148.416,375.082 142.25,382.415 137,390.5C 135.989,391.337 134.822,391.67 133.5,391.5C 136.786,388.302 139.619,384.636 142,380.5C 146.094,375.898 150.594,371.898 155.5,368.5 Z"/></g>
<g><path style="opacity:0.626" fill="#fe5656" d="M 178.5,377.5 C 174.508,379.83 170.508,382.163 166.5,384.5C 169.55,380.638 173.55,378.305 178.5,377.5 Z"/></g>
<g><path style="opacity:0.651" fill="#fe5656" d="M 489.5,381.5 C 488.22,382.931 486.553,383.598 484.5,383.5C 485.78,382.069 487.447,381.402 489.5,381.5 Z"/></g>
<g><path style="opacity:0.559" fill="#fe5a59" d="M 205.5,379.5 C 212.784,381.261 219.784,383.595 226.5,386.5C 219.085,385.14 212.085,382.806 205.5,379.5 Z"/></g>
<g><path style="opacity:0.542" fill="#fe5555" d="M 23.5,384.5 C 30.0545,385.721 36.3878,387.387 42.5,389.5C 35.7809,388.905 29.4476,387.238 23.5,384.5 Z"/></g>
<g><path style="opacity:0.765" fill="#fe5656" d="M 275.5,385.5 C 273.162,387.04 270.495,387.706 267.5,387.5C 269.905,386.232 272.572,385.565 275.5,385.5 Z"/></g>
<g><path style="opacity:0.622" fill="#fe5353" d="M 484.5,383.5 C 479.915,386.14 474.915,387.806 469.5,388.5C 474.216,386.261 479.216,384.595 484.5,383.5 Z"/></g>
<g><path style="opacity:0.492" fill="#fe5352" d="M 230.5,387.5 C 235.694,387.741 240.694,388.407 245.5,389.5C 240.234,389.811 235.234,389.145 230.5,387.5 Z"/></g>
<g><path style="opacity:0.657" fill="#fe5655" d="M 330.5,383.5 C 335.167,386.167 338.833,389.833 341.5,394.5C 337.5,391.167 333.833,387.5 330.5,383.5 Z"/></g>
<g><path style="opacity:0.56" fill="#fe5453" d="M 359.5,386.5 C 360.933,387.833 362.267,389.333 363.5,391C 373.189,393.449 382.855,395.283 392.5,396.5C 383.379,396.316 374.379,395.15 365.5,393C 361.939,392.272 359.939,390.106 359.5,386.5 Z"/></g>
<g><path style="opacity:0.528" fill="#fe5555" d="M 469.5,388.5 C 464.503,390.749 459.17,392.083 453.5,392.5C 458.573,390.565 463.906,389.232 469.5,388.5 Z"/></g>
<g><path style="opacity:0.448" fill="#fe5555" d="M 166.5,384.5 C 163.833,387.833 160.833,390.833 157.5,393.5C 159.5,389.5 162.5,386.5 166.5,384.5 Z"/></g>
<g><path style="opacity:0.663" fill="#fe5655" d="M 42.5,389.5 C 50.3476,390.529 58.0143,391.863 65.5,393.5C 57.5065,393.335 49.8398,392.002 42.5,389.5 Z"/></g>
<g><path style="opacity:0.628" fill="#fe5453" d="M 453.5,392.5 C 450.124,394.082 446.458,394.749 442.5,394.5C 445.946,393.313 449.613,392.646 453.5,392.5 Z"/></g>
<g><path style="opacity:0.562" fill="#fe5858" d="M 442.5,394.5 C 437.417,396.078 432.084,396.745 426.5,396.5C 431.633,395.335 436.966,394.668 442.5,394.5 Z"/></g>
<g><path style="opacity:0.645" fill="#fe5756" d="M 157.5,393.5 C 156.241,397.025 154.241,400.025 151.5,402.5C 152.723,398.951 154.723,395.951 157.5,393.5 Z"/></g>
<g><path style="opacity:0.702" fill="#fe5655" d="M 341.5,394.5 C 345.01,397.358 347.343,401.024 348.5,405.5C 345.779,402.106 343.446,398.439 341.5,394.5 Z"/></g>
<g><path style="opacity:0.804" fill="#fe5653" d="M 348.5,405.5 C 351.207,408.247 352.873,411.58 353.5,415.5C 351.326,412.485 349.659,409.151 348.5,405.5 Z"/></g>
<g><path style="opacity:0.657" fill="#fe5757" d="M 151.5,402.5 C 149.008,408.818 146.008,414.818 142.5,420.5C 144.46,413.914 147.46,407.914 151.5,402.5 Z"/></g>
<g><path style="opacity:0.555" fill="#fe5453" d="M 142.5,420.5 C 140.208,427.72 137.541,434.72 134.5,441.5C 136.007,433.968 138.674,426.968 142.5,420.5 Z"/></g>
<g><path style="opacity:0.518" fill="#fe5554" d="M 353.5,415.5 C 358.414,424.847 362.414,434.68 365.5,445C 361.464,449.356 356.464,452.19 350.5,453.5C 355.269,450.944 359.936,448.11 364.5,445C 360.73,435.187 357.063,425.353 353.5,415.5 Z"/></g>
<g><path style="opacity:0.597" fill="#fe5656" d="M 134.5,443.5 C 136.674,443.75 138.341,444.75 139.5,446.5C 137.326,446.25 135.659,445.25 134.5,443.5 Z"/></g>
<g><path style="opacity:0.551" fill="#ff4a45" d="M 139.5,446.5 C 141.819,446.992 143.819,447.992 145.5,449.5C 142.911,449.539 140.911,448.539 139.5,446.5 Z"/></g>
<g><path style="opacity:0.494" fill="#fe5757" d="M 145.5,449.5 C 151.999,451.591 158.332,453.925 164.5,456.5C 157.581,455.53 151.248,453.196 145.5,449.5 Z"/></g>
<g><path style="opacity:0.744" fill="#fe5656" d="M 164.5,456.5 C 167.152,456.41 169.485,457.076 171.5,458.5C 168.848,458.59 166.515,457.924 164.5,456.5 Z"/></g>
<g><path style="opacity:0.522" fill="#fe5351" d="M 171.5,458.5 C 176.092,458.882 180.425,459.882 184.5,461.5C 179.849,461.373 175.515,460.373 171.5,458.5 Z"/></g>
<g><path style="opacity:0.744" fill="#fe5757" d="M 350.5,453.5 C 339.766,458.352 328.433,461.352 316.5,462.5C 327.812,459.837 339.146,456.837 350.5,453.5 Z"/></g>
<g><path style="opacity:0.598" fill="#fe5656" d="M 184.5,461.5 C 193.686,462.478 202.686,463.812 211.5,465.5C 202.207,465.268 193.207,463.935 184.5,461.5 Z"/></g>
<g><path style="opacity:0.587" fill="#fe5656" d="M 316.5,462.5 C 308.757,464.468 300.757,465.468 292.5,465.5C 300.302,464.025 308.302,463.025 316.5,462.5 Z"/></g>
</svg>
