<?xml version="1.0" encoding="UTF-8"?>
<!DOCTYPE svg PUBLIC "-//W3C//DTD SVG 1.1//EN" "http://www.w3.org/Graphics/SVG/1.1/DTD/svg11.dtd">
<svg xmlns="http://www.w3.org/2000/svg" version="1.1" width="500px" height="500px" style="shape-rendering:geometricPrecision; text-rendering:geometricPrecision; image-rendering:optimizeQuality; fill-rule:evenodd; clip-rule:evenodd" xmlns:xlink="http://www.w3.org/1999/xlink">
<g><path style="opacity:1" fill="#fffefe" d="M 271.5,29.5 C 272.492,29.3284 273.158,29.6618 273.5,30.5C 275.147,32.3264 277.147,33.6597 279.5,34.5C 280.911,36.914 282.911,38.5806 285.5,39.5C 287.569,42.5725 290.236,44.9059 293.5,46.5C 295.9,49.9031 298.9,52.5698 302.5,54.5C 304.569,57.5725 307.236,59.9059 310.5,61.5C 312.569,64.5725 315.236,66.9059 318.5,68.5C 320.569,71.5725 323.236,73.9059 326.5,75.5C 328.9,78.9031 331.9,81.5698 335.5,83.5C 337.569,86.5725 340.236,88.9059 343.5,90.5C 345.569,93.5725 348.236,95.9059 351.5,97.5C 353.569,100.573 356.236,102.906 359.5,104.5C 361.9,107.903 364.9,110.57 368.5,112.5C 370.569,115.573 373.236,117.906 376.5,119.5C 378.569,122.573 381.236,124.906 384.5,126.5C 386.569,129.573 389.236,131.906 392.5,133.5C 394.9,136.903 397.9,139.57 401.5,141.5C 403.569,144.573 406.236,146.906 409.5,148.5C 411.569,151.573 414.236,153.906 417.5,155.5C 419.569,158.573 422.236,160.906 425.5,162.5C 427.9,165.903 430.9,168.57 434.5,170.5C 436.569,173.573 439.236,175.906 442.5,177.5C 444.569,180.573 447.236,182.906 450.5,184.5C 452.569,187.573 455.236,189.906 458.5,191.5C 460.9,194.903 463.9,197.57 467.5,199.5C 469.569,202.573 472.236,204.906 475.5,206.5C 477.569,209.573 480.236,211.906 483.5,213.5C 486.167,216.833 489.167,219.833 492.5,222.5C 499.638,239.607 494.638,251.44 477.5,258C 472.371,258.708 467.371,258.208 462.5,256.5C 460.122,254.122 457.455,252.122 454.5,250.5C 452.1,247.097 449.1,244.43 445.5,242.5C 443.431,239.427 440.764,237.094 437.5,235.5C 435.431,232.427 432.764,230.094 429.5,228.5C 427.1,225.097 424.1,222.43 420.5,220.5C 418.431,217.427 415.764,215.094 412.5,213.5C 410.1,210.097 407.1,207.43 403.5,205.5C 401.431,202.427 398.764,200.094 395.5,198.5C 393.431,195.427 390.764,193.094 387.5,191.5C 385.1,188.097 382.1,185.43 378.5,183.5C 376.431,180.427 373.764,178.094 370.5,176.5C 368.1,173.097 365.1,170.43 361.5,168.5C 359.431,165.427 356.764,163.094 353.5,161.5C 351.431,158.427 348.764,156.094 345.5,154.5C 343.1,151.097 340.1,148.43 336.5,146.5C 334.431,143.427 331.764,141.094 328.5,139.5C 326.1,136.097 323.1,133.43 319.5,131.5C 317.431,128.427 314.764,126.094 311.5,124.5C 309.431,121.427 306.764,119.094 303.5,117.5C 301.1,114.097 298.1,111.43 294.5,109.5C 292.431,106.427 289.764,104.094 286.5,102.5C 284.431,99.4275 281.764,97.0941 278.5,95.5C 276.1,92.0969 273.1,89.4302 269.5,87.5C 268.089,85.086 266.089,83.4194 263.5,82.5C 262.089,80.461 260.089,79.461 257.5,79.5C 255.901,79.7678 254.568,79.4345 253.5,78.5C 243.712,76.3816 235.712,79.3816 229.5,87.5C 226.236,89.0941 223.569,91.4275 221.5,94.5C 218.236,96.0941 215.569,98.4275 213.5,101.5C 209.9,103.43 206.9,106.097 204.5,109.5C 201.236,111.094 198.569,113.427 196.5,116.5C 193.236,118.094 190.569,120.427 188.5,123.5C 184.9,125.43 181.9,128.097 179.5,131.5C 176.236,133.094 173.569,135.427 171.5,138.5C 167.9,140.43 164.9,143.097 162.5,146.5C 159.236,148.094 156.569,150.427 154.5,153.5C 151.236,155.094 148.569,157.427 146.5,160.5C 142.9,162.43 139.9,165.097 137.5,168.5C 134.236,170.094 131.569,172.427 129.5,175.5C 125.9,177.43 122.9,180.097 120.5,183.5C 117.236,185.094 114.569,187.427 112.5,190.5C 109.236,192.094 106.569,194.427 104.5,197.5C 100.9,199.43 97.8998,202.097 95.5,205.5C 92.2358,207.094 89.5691,209.427 87.5,212.5C 84.2358,214.094 81.5691,216.427 79.5,219.5C 75.8998,221.43 72.8998,224.097 70.5,227.5C 67.2358,229.094 64.5691,231.427 62.5,234.5C 58.8998,236.43 55.8998,239.097 53.5,242.5C 50.2358,244.094 47.5691,246.427 45.5,249.5C 40.9567,253.271 35.9567,256.271 30.5,258.5C 26.1311,258.533 21.7978,258.2 17.5,257.5C 16.4863,256.326 15.153,255.66 13.5,255.5C 6.64651,249.793 2.97984,242.46 2.5,233.5C 2.21552,231.585 2.54885,229.919 3.5,228.5C 6.70954,222.947 10.7095,217.947 15.5,213.5C 19.1002,211.57 22.1002,208.903 24.5,205.5C 27.7642,203.906 30.4309,201.573 32.5,198.5C 35.7642,196.906 38.4309,194.573 40.5,191.5C 43.7642,189.906 46.4309,187.573 48.5,184.5C 52.1002,182.57 55.1002,179.903 57.5,176.5C 60.7642,174.906 63.4309,172.573 65.5,169.5C 68.7642,167.906 71.4309,165.573 73.5,162.5C 76.7642,160.906 79.4309,158.573 81.5,155.5C 85.1002,153.57 88.1002,150.903 90.5,147.5C 93.7642,145.906 96.4309,143.573 98.5,140.5C 101.764,138.906 104.431,136.573 106.5,133.5C 109.764,131.906 112.431,129.573 114.5,126.5C 118.1,124.57 121.1,121.903 123.5,118.5C 126.764,116.906 129.431,114.573 131.5,111.5C 134.764,109.906 137.431,107.573 139.5,104.5C 142.764,102.906 145.431,100.573 147.5,97.5C 151.1,95.5698 154.1,92.9031 156.5,89.5C 159.764,87.9059 162.431,85.5725 164.5,82.5C 167.764,80.9059 170.431,78.5725 172.5,75.5C 175.764,73.9059 178.431,71.5725 180.5,68.5C 184.1,66.5698 187.1,63.9031 189.5,60.5C 192.764,58.9059 195.431,56.5725 197.5,53.5C 200.764,51.9059 203.431,49.5725 205.5,46.5C 209.1,44.5698 212.1,41.9031 214.5,38.5C 218.352,36.0753 222.019,33.4086 225.5,30.5C 227.153,30.3404 228.486,29.6737 229.5,28.5C 236.022,26.5372 242.688,25.2038 249.5,24.5C 257.079,25.2288 264.412,26.8954 271.5,29.5 Z"/></g>
<g><path style="opacity:0.62" fill="#fe5656" d="M 271.5,29.5 C 264.412,26.8954 257.079,25.2288 249.5,24.5C 242.688,25.2038 236.022,26.5372 229.5,28.5C 243.66,21.6486 257.66,21.9819 271.5,29.5 Z"/></g>
<g><path style="opacity:0.537" fill="#fe5a59" d="M 229.5,28.5 C 228.486,29.6737 227.153,30.3404 225.5,30.5C 226.287,28.8958 227.62,28.2291 229.5,28.5 Z"/></g>
<g><path style="opacity:0.606" fill="#fe5858" d="M 273.5,30.5 C 276.198,30.8449 278.198,32.1782 279.5,34.5C 277.147,33.6597 275.147,32.3264 273.5,30.5 Z"/></g>
<g><path style="opacity:0.648" fill="#fe5858" d="M 225.5,30.5 C 222.019,33.4086 218.352,36.0753 214.5,38.5C 217.272,34.6129 220.939,31.9462 225.5,30.5 Z"/></g>
<g><path style="opacity:0.763" fill="#fe5656" d="M 279.5,34.5 C 282.089,35.4194 284.089,37.086 285.5,39.5C 282.911,38.5806 280.911,36.914 279.5,34.5 Z"/></g>
<g><path style="opacity:0.882" fill="#fe5453" d="M 214.5,38.5 C 212.1,41.9031 209.1,44.5698 205.5,46.5C 207.9,43.0969 210.9,40.4302 214.5,38.5 Z"/></g>
<g><path style="opacity:0.688" fill="#fe5858" d="M 285.5,39.5 C 288.764,41.0941 291.431,43.4275 293.5,46.5C 290.236,44.9059 287.569,42.5725 285.5,39.5 Z"/></g>
<g><path style="opacity:0.539" fill="#fe5554" d="M 293.5,46.5 C 297.1,48.4302 300.1,51.0969 302.5,54.5C 298.9,52.5698 295.9,49.9031 293.5,46.5 Z"/></g>
<g><path style="opacity:0.619" fill="#fe5656" d="M 205.5,46.5 C 203.431,49.5725 200.764,51.9059 197.5,53.5C 199.569,50.4275 202.236,48.0941 205.5,46.5 Z"/></g>
<g><path style="opacity:0.553" fill="#fe5352" d="M 197.5,53.5 C 195.431,56.5725 192.764,58.9059 189.5,60.5C 191.569,57.4275 194.236,55.0941 197.5,53.5 Z"/></g>
<g><path style="opacity:0.665" fill="#fe5656" d="M 302.5,54.5 C 305.764,56.0941 308.431,58.4275 310.5,61.5C 307.236,59.9059 304.569,57.5725 302.5,54.5 Z"/></g>
<g><path style="opacity:0.602" fill="#fe5352" d="M 189.5,60.5 C 187.1,63.9031 184.1,66.5698 180.5,68.5C 182.9,65.0969 185.9,62.4302 189.5,60.5 Z"/></g>
<g><path style="opacity:0.638" fill="#fe5857" d="M 310.5,61.5 C 313.764,63.0941 316.431,65.4275 318.5,68.5C 315.236,66.9059 312.569,64.5725 310.5,61.5 Z"/></g>
<g><path style="opacity:0.078" fill="#fe5a5a" d="M 318.5,68.5 C 321.764,70.0941 324.431,72.4275 326.5,75.5C 323.236,73.9059 320.569,71.5725 318.5,68.5 Z"/></g>
<g><path style="opacity:0.72" fill="#fe5555" d="M 180.5,68.5 C 178.431,71.5725 175.764,73.9059 172.5,75.5C 174.569,72.4275 177.236,70.0941 180.5,68.5 Z"/></g>
<g><path style="opacity:0.629" fill="#fe5656" d="M 172.5,75.5 C 170.431,78.5725 167.764,80.9059 164.5,82.5C 166.569,79.4275 169.236,77.0941 172.5,75.5 Z"/></g>
<g><path style="opacity:0.598" fill="#fe5554" d="M 326.5,75.5 C 330.1,77.4302 333.1,80.0969 335.5,83.5C 331.9,81.5698 328.9,78.9031 326.5,75.5 Z"/></g>
<g><path style="opacity:0.488" fill="#fe5656" d="M 257.5,79.5 C 260.089,79.461 262.089,80.461 263.5,82.5C 261.181,82.0075 259.181,81.0075 257.5,79.5 Z"/></g>
<g><path style="opacity:0.573" fill="#fe5453" d="M 253.5,78.5 C 249.418,78.3436 245.418,78.8436 241.5,80C 237.066,81.9599 233.066,84.4599 229.5,87.5C 235.712,79.3816 243.712,76.3816 253.5,78.5 Z"/></g>
<g><path style="opacity:0.52" fill="#fe5757" d="M 164.5,82.5 C 162.431,85.5725 159.764,87.9059 156.5,89.5C 158.569,86.4275 161.236,84.0941 164.5,82.5 Z"/></g>
<g><path style="opacity:0.42" fill="#fe5656" d="M 263.5,82.5 C 266.089,83.4194 268.089,85.086 269.5,87.5C 266.911,86.5806 264.911,84.914 263.5,82.5 Z"/></g>
<g><path style="opacity:0.665" fill="#fe5656" d="M 335.5,83.5 C 338.764,85.0941 341.431,87.4275 343.5,90.5C 340.236,88.9059 337.569,86.5725 335.5,83.5 Z"/></g>
<g><path style="opacity:0.634" fill="#fe5453" d="M 269.5,87.5 C 273.1,89.4302 276.1,92.0969 278.5,95.5C 274.9,93.5698 271.9,90.9031 269.5,87.5 Z"/></g>
<g><path style="opacity:0.078" fill="#fe5b5a" d="M 229.5,87.5 C 227.431,90.5725 224.764,92.9059 221.5,94.5C 223.569,91.4275 226.236,89.0941 229.5,87.5 Z"/></g>
<g><path style="opacity:0.602" fill="#fe5353" d="M 156.5,89.5 C 154.1,92.9031 151.1,95.5698 147.5,97.5C 149.9,94.0969 152.9,91.4302 156.5,89.5 Z"/></g>
<g><path style="opacity:0.571" fill="#fe5757" d="M 343.5,90.5 C 346.764,92.0941 349.431,94.4275 351.5,97.5C 348.236,95.9059 345.569,93.5725 343.5,90.5 Z"/></g>
<g><path style="opacity:0.614" fill="#fe5454" d="M 221.5,94.5 C 219.431,97.5725 216.764,99.9059 213.5,101.5C 215.569,98.4275 218.236,96.0941 221.5,94.5 Z"/></g>
<g><path style="opacity:0.678" fill="#fe5453" d="M 278.5,95.5 C 281.764,97.0941 284.431,99.4275 286.5,102.5C 283.236,100.906 280.569,98.5725 278.5,95.5 Z"/></g>
<g><path style="opacity:0.078" fill="#fe5a5a" d="M 351.5,97.5 C 354.764,99.0941 357.431,101.427 359.5,104.5C 356.236,102.906 353.569,100.573 351.5,97.5 Z"/></g>
<g><path style="opacity:0.72" fill="#fe5656" d="M 147.5,97.5 C 145.431,100.573 142.764,102.906 139.5,104.5C 141.569,101.427 144.236,99.0941 147.5,97.5 Z"/></g>
<g><path style="opacity:0.539" fill="#fe5250" d="M 213.5,101.5 C 211.1,104.903 208.1,107.57 204.5,109.5C 206.9,106.097 209.9,103.43 213.5,101.5 Z"/></g>
<g><path style="opacity:0.619" fill="#fe5656" d="M 286.5,102.5 C 289.764,104.094 292.431,106.427 294.5,109.5C 291.236,107.906 288.569,105.573 286.5,102.5 Z"/></g>
<g><path style="opacity:0.574" fill="#fe5554" d="M 359.5,104.5 C 363.1,106.43 366.1,109.097 368.5,112.5C 364.9,110.57 361.9,107.903 359.5,104.5 Z"/></g>
<g><path style="opacity:0.619" fill="#fe5656" d="M 139.5,104.5 C 137.431,107.573 134.764,109.906 131.5,111.5C 133.569,108.427 136.236,106.094 139.5,104.5 Z"/></g>
<g><path style="opacity:0.693" fill="#fe5453" d="M 294.5,109.5 C 298.1,111.43 301.1,114.097 303.5,117.5C 299.9,115.57 296.9,112.903 294.5,109.5 Z"/></g>
<g><path style="opacity:0.489" fill="#fe5a5a" d="M 204.5,109.5 C 202.431,112.573 199.764,114.906 196.5,116.5C 198.569,113.427 201.236,111.094 204.5,109.5 Z"/></g>
<g><path style="opacity:0.552" fill="#fe5352" d="M 131.5,111.5 C 129.431,114.573 126.764,116.906 123.5,118.5C 125.569,115.427 128.236,113.094 131.5,111.5 Z"/></g>
<g><path style="opacity:0.09" fill="#fe5554" d="M 368.5,112.5 C 371.764,114.094 374.431,116.427 376.5,119.5C 373.236,117.906 370.569,115.573 368.5,112.5 Z"/></g>
<g><path style="opacity:0.665" fill="#fe5858" d="M 196.5,116.5 C 194.431,119.573 191.764,121.906 188.5,123.5C 190.569,120.427 193.236,118.094 196.5,116.5 Z"/></g>
<g><path style="opacity:1" fill="#fffefe" d="M 261.5,123.5 C 263.9,126.903 266.9,129.57 270.5,131.5C 272.569,134.573 275.236,136.906 278.5,138.5C 280.9,141.903 283.9,144.57 287.5,146.5C 289.569,149.573 292.236,151.906 295.5,153.5C 297.9,156.903 300.9,159.57 304.5,161.5C 306.569,164.573 309.236,166.906 312.5,168.5C 314.9,171.903 317.9,174.57 321.5,176.5C 323.9,179.903 326.9,182.57 330.5,184.5C 332.569,187.573 335.236,189.906 338.5,191.5C 340.9,194.903 343.9,197.57 347.5,199.5C 349.569,202.573 352.236,204.906 355.5,206.5C 357.9,209.903 360.9,212.57 364.5,214.5C 366.569,217.573 369.236,219.906 372.5,221.5C 374.9,224.903 377.9,227.57 381.5,229.5C 383.9,232.903 386.9,235.57 390.5,237.5C 392.569,240.573 395.236,242.906 398.5,244.5C 400.9,247.903 403.9,250.57 407.5,252.5C 409.569,255.573 412.236,257.906 415.5,259.5C 417.9,262.903 420.9,265.57 424.5,267.5C 426.569,270.573 429.236,272.906 432.5,274.5C 435.165,277.335 437.665,280.335 440,283.5C 440.5,347.166 440.667,410.832 440.5,474.5C 440.573,476.027 439.906,477.027 438.5,477.5C 416.042,478.156 393.542,478.49 371,478.5C 348.414,478.657 325.914,478.157 303.5,477C 302.874,476.25 302.374,475.416 302,474.5C 301.667,431.833 301.333,389.167 301,346.5C 300.626,344.509 299.793,342.842 298.5,341.5C 296.5,336.167 292.833,332.5 287.5,330.5C 286.158,329.207 284.491,328.374 282.5,328C 260.5,327.333 238.5,327.333 216.5,328C 215.263,328.232 214.263,328.732 213.5,329.5C 206.5,331.833 201.833,336.5 199.5,343.5C 198.732,344.263 198.232,345.263 198,346.5C 197.5,389.165 197.333,431.832 197.5,474.5C 197.573,476.027 196.906,477.027 195.5,477.5C 151.208,478.656 106.875,478.823 62.5,478C 61.5838,477.626 60.7504,477.126 60,476.5C 58.3407,412.249 58.0074,347.915 59,283.5C 61.3347,280.335 63.8347,277.335 66.5,274.5C 70.1002,272.57 73.1002,269.903 75.5,266.5C 78.7642,264.906 81.4309,262.573 83.5,259.5C 87.1002,257.57 90.1002,254.903 92.5,251.5C 95.7642,249.906 98.4309,247.573 100.5,244.5C 100.5,243.833 100.833,243.5 101.5,243.5C 104.764,241.906 107.431,239.573 109.5,236.5C 113.1,234.57 116.1,231.903 118.5,228.5C 121.764,226.906 124.431,224.573 126.5,221.5C 130.1,219.57 133.1,216.903 135.5,213.5C 138.764,211.906 141.431,209.573 143.5,206.5C 147.1,204.57 150.1,201.903 152.5,198.5C 155.764,196.906 158.431,194.573 160.5,191.5C 160.5,190.833 160.833,190.5 161.5,190.5C 164.764,188.906 167.431,186.573 169.5,183.5C 173.1,181.57 176.1,178.903 178.5,175.5C 181.764,173.906 184.431,171.573 186.5,168.5C 190.1,166.57 193.1,163.903 195.5,160.5C 198.764,158.906 201.431,156.573 203.5,153.5C 207.1,151.57 210.1,148.903 212.5,145.5C 215.764,143.906 218.431,141.573 220.5,138.5C 220.5,137.833 220.833,137.5 221.5,137.5C 224.764,135.906 227.431,133.573 229.5,130.5C 233.1,128.57 236.1,125.903 238.5,122.5C 241.747,120.045 245.414,118.379 249.5,117.5C 254.091,118.462 258.091,120.462 261.5,123.5 Z"/></g>
<g><path style="opacity:0.586" fill="#fe5757" d="M 261.5,123.5 C 258.091,120.462 254.091,118.462 249.5,117.5C 245.414,118.379 241.747,120.045 238.5,122.5C 243.764,116.046 250.097,114.879 257.5,119C 259.041,120.371 260.375,121.871 261.5,123.5 Z"/></g>
<g><path style="opacity:0.553" fill="#fe5555" d="M 303.5,117.5 C 306.764,119.094 309.431,121.427 311.5,124.5C 308.236,122.906 305.569,120.573 303.5,117.5 Z"/></g>
<g><path style="opacity:0.524" fill="#fe5a59" d="M 376.5,119.5 C 379.764,121.094 382.431,123.427 384.5,126.5C 381.236,124.906 378.569,122.573 376.5,119.5 Z"/></g>
<g><path style="opacity:0.636" fill="#fe5453" d="M 123.5,118.5 C 121.1,121.903 118.1,124.57 114.5,126.5C 116.9,123.097 119.9,120.43 123.5,118.5 Z"/></g>
<g><path style="opacity:0.617" fill="#fe5959" d="M 188.5,123.5 C 186.1,126.903 183.1,129.57 179.5,131.5C 181.9,128.097 184.9,125.43 188.5,123.5 Z"/></g>
<g><path style="opacity:0.547" fill="#fe5454" d="M 311.5,124.5 C 314.764,126.094 317.431,128.427 319.5,131.5C 316.236,129.906 313.569,127.573 311.5,124.5 Z"/></g>
<g><path style="opacity:0.615" fill="#fe5454" d="M 238.5,122.5 C 236.1,125.903 233.1,128.57 229.5,130.5C 231.9,127.097 234.9,124.43 238.5,122.5 Z"/></g>
<g><path style="opacity:0.652" fill="#fe5858" d="M 261.5,123.5 C 265.1,125.43 268.1,128.097 270.5,131.5C 266.9,129.57 263.9,126.903 261.5,123.5 Z"/></g>
<g><path style="opacity:0.078" fill="#fe5a5a" d="M 384.5,126.5 C 387.764,128.094 390.431,130.427 392.5,133.5C 389.236,131.906 386.569,129.573 384.5,126.5 Z"/></g>
<g><path style="opacity:0.641" fill="#fe5555" d="M 114.5,126.5 C 112.431,129.573 109.764,131.906 106.5,133.5C 108.569,130.427 111.236,128.094 114.5,126.5 Z"/></g>
<g><path style="opacity:0.638" fill="#fe5454" d="M 179.5,131.5 C 177.431,134.573 174.764,136.906 171.5,138.5C 173.569,135.427 176.236,133.094 179.5,131.5 Z"/></g>
<g><path style="opacity:0.602" fill="#fe5352" d="M 319.5,131.5 C 323.1,133.43 326.1,136.097 328.5,139.5C 324.9,137.57 321.9,134.903 319.5,131.5 Z"/></g>
<g><path style="opacity:0.54" fill="#fe5251" d="M 229.5,130.5 C 227.431,133.573 224.764,135.906 221.5,137.5C 223.569,134.427 226.236,132.094 229.5,130.5 Z"/></g>
<g><path style="opacity:0.641" fill="#fe5656" d="M 270.5,131.5 C 273.764,133.094 276.431,135.427 278.5,138.5C 275.236,136.906 272.569,134.573 270.5,131.5 Z"/></g>
<g><path style="opacity:0.574" fill="#fe5554" d="M 392.5,133.5 C 396.1,135.43 399.1,138.097 401.5,141.5C 397.9,139.57 394.9,136.903 392.5,133.5 Z"/></g>
<g><path style="opacity:0.619" fill="#fe5656" d="M 106.5,133.5 C 104.431,136.573 101.764,138.906 98.5,140.5C 100.569,137.427 103.236,135.094 106.5,133.5 Z"/></g>
<g><path style="opacity:0.569" fill="#fe5452" d="M 171.5,138.5 C 169.1,141.903 166.1,144.57 162.5,146.5C 164.9,143.097 167.9,140.43 171.5,138.5 Z"/></g>
<g><path style="opacity:0.529" fill="#fe5454" d="M 220.5,138.5 C 218.431,141.573 215.764,143.906 212.5,145.5C 214.569,142.427 217.236,140.094 220.5,138.5 Z"/></g>
<g><path style="opacity:0.598" fill="#fe5858" d="M 278.5,138.5 C 282.1,140.43 285.1,143.097 287.5,146.5C 283.9,144.57 280.9,141.903 278.5,138.5 Z"/></g>
<g><path style="opacity:0.635" fill="#fe5656" d="M 328.5,139.5 C 331.764,141.094 334.431,143.427 336.5,146.5C 333.236,144.906 330.569,142.573 328.5,139.5 Z"/></g>
<g><path style="opacity:0.551" fill="#fe5352" d="M 98.5,140.5 C 96.4309,143.573 93.7642,145.906 90.5,147.5C 92.5691,144.427 95.2358,142.094 98.5,140.5 Z"/></g>
<g><path style="opacity:0.09" fill="#fe5555" d="M 401.5,141.5 C 404.764,143.094 407.431,145.427 409.5,148.5C 406.236,146.906 403.569,144.573 401.5,141.5 Z"/></g>
<g><path style="opacity:0.654" fill="#fe5352" d="M 336.5,146.5 C 340.1,148.43 343.1,151.097 345.5,154.5C 341.9,152.57 338.9,149.903 336.5,146.5 Z"/></g>
<g><path style="opacity:0.613" fill="#fe5959" d="M 162.5,146.5 C 160.431,149.573 157.764,151.906 154.5,153.5C 156.569,150.427 159.236,148.094 162.5,146.5 Z"/></g>
<g><path style="opacity:0.598" fill="#fe5454" d="M 212.5,145.5 C 210.1,148.903 207.1,151.57 203.5,153.5C 205.9,150.097 208.9,147.43 212.5,145.5 Z"/></g>
<g><path style="opacity:0.604" fill="#fe5554" d="M 287.5,146.5 C 290.764,148.094 293.431,150.427 295.5,153.5C 292.236,151.906 289.569,149.573 287.5,146.5 Z"/></g>
<g><path style="opacity:0.635" fill="#fe5453" d="M 90.5,147.5 C 88.1002,150.903 85.1002,153.57 81.5,155.5C 83.8998,152.097 86.8998,149.43 90.5,147.5 Z"/></g>
<g><path style="opacity:0.682" fill="#fe5858" d="M 409.5,148.5 C 412.764,150.094 415.431,152.427 417.5,155.5C 414.236,153.906 411.569,151.573 409.5,148.5 Z"/></g>
<g><path style="opacity:0.535" fill="#fe5250" d="M 295.5,153.5 C 299.1,155.43 302.1,158.097 304.5,161.5C 300.9,159.57 297.9,156.903 295.5,153.5 Z"/></g>
<g><path style="opacity:0.551" fill="#fe5150" d="M 345.5,154.5 C 348.764,156.094 351.431,158.427 353.5,161.5C 350.236,159.906 347.569,157.573 345.5,154.5 Z"/></g>
<g><path style="opacity:0.637" fill="#fe5656" d="M 203.5,153.5 C 201.431,156.573 198.764,158.906 195.5,160.5C 197.569,157.427 200.236,155.094 203.5,153.5 Z"/></g>
<g><path style="opacity:0.09" fill="#fe5757" d="M 154.5,153.5 C 152.431,156.573 149.764,158.906 146.5,160.5C 148.569,157.427 151.236,155.094 154.5,153.5 Z"/></g>
<g><path style="opacity:0.633" fill="#fe5555" d="M 81.5,155.5 C 79.4309,158.573 76.7642,160.906 73.5,162.5C 75.5691,159.427 78.2358,157.094 81.5,155.5 Z"/></g>
<g><path style="opacity:0.622" fill="#fe5959" d="M 417.5,155.5 C 420.764,157.094 423.431,159.427 425.5,162.5C 422.236,160.906 419.569,158.573 417.5,155.5 Z"/></g>
<g><path style="opacity:0.575" fill="#fe5656" d="M 353.5,161.5 C 356.764,163.094 359.431,165.427 361.5,168.5C 358.236,166.906 355.569,164.573 353.5,161.5 Z"/></g>
<g><path style="opacity:0.617" fill="#fe5a59" d="M 146.5,160.5 C 144.1,163.903 141.1,166.57 137.5,168.5C 139.9,165.097 142.9,162.43 146.5,160.5 Z"/></g>
<g><path style="opacity:0.667" fill="#fe5453" d="M 195.5,160.5 C 193.1,163.903 190.1,166.57 186.5,168.5C 188.9,165.097 191.9,162.43 195.5,160.5 Z"/></g>
<g><path style="opacity:0.573" fill="#fe5554" d="M 425.5,162.5 C 429.1,164.43 432.1,167.097 434.5,170.5C 430.9,168.57 427.9,165.903 425.5,162.5 Z"/></g>
<g><path style="opacity:0.637" fill="#fe5555" d="M 73.5,162.5 C 71.4309,165.573 68.7642,167.906 65.5,169.5C 67.5691,166.427 70.2358,164.094 73.5,162.5 Z"/></g>
<g><path style="opacity:0.688" fill="#fe5858" d="M 304.5,161.5 C 307.764,163.094 310.431,165.427 312.5,168.5C 309.236,166.906 306.569,164.573 304.5,161.5 Z"/></g>
<g><path style="opacity:0.57" fill="#fe5555" d="M 137.5,168.5 C 135.431,171.573 132.764,173.906 129.5,175.5C 131.569,172.427 134.236,170.094 137.5,168.5 Z"/></g>
<g><path style="opacity:0.635" fill="#fe5453" d="M 361.5,168.5 C 365.1,170.43 368.1,173.097 370.5,176.5C 366.9,174.57 363.9,171.903 361.5,168.5 Z"/></g>
<g><path style="opacity:0.562" fill="#fe5757" d="M 186.5,168.5 C 184.431,171.573 181.764,173.906 178.5,175.5C 180.569,172.427 183.236,170.094 186.5,168.5 Z"/></g>
<g><path style="opacity:0.551" fill="#fe5352" d="M 65.5,169.5 C 63.4309,172.573 60.7642,174.906 57.5,176.5C 59.5691,173.427 62.2358,171.094 65.5,169.5 Z"/></g>
<g><path style="opacity:0.09" fill="#fe5555" d="M 434.5,170.5 C 437.764,172.094 440.431,174.427 442.5,177.5C 439.236,175.906 436.569,173.573 434.5,170.5 Z"/></g>
<g><path style="opacity:0.659" fill="#fe5656" d="M 312.5,168.5 C 316.1,170.43 319.1,173.097 321.5,176.5C 317.9,174.57 314.9,171.903 312.5,168.5 Z"/></g>
<g><path style="opacity:0.629" fill="#fe5656" d="M 370.5,176.5 C 373.764,178.094 376.431,180.427 378.5,183.5C 375.236,181.906 372.569,179.573 370.5,176.5 Z"/></g>
<g><path style="opacity:0.615" fill="#fe5454" d="M 178.5,175.5 C 176.1,178.903 173.1,181.57 169.5,183.5C 171.9,180.097 174.9,177.43 178.5,175.5 Z"/></g>
<g><path style="opacity:0.635" fill="#fe5453" d="M 57.5,176.5 C 55.1002,179.903 52.1002,182.57 48.5,184.5C 50.8998,181.097 53.8998,178.43 57.5,176.5 Z"/></g>
<g><path style="opacity:0.055" fill="#fe5452" d="M 129.5,175.5 C 127.1,178.903 124.1,181.57 120.5,183.5C 122.9,180.097 125.9,177.43 129.5,175.5 Z"/></g>
<g><path style="opacity:0.652" fill="#fe5858" d="M 321.5,176.5 C 325.1,178.43 328.1,181.097 330.5,184.5C 326.9,182.57 323.9,179.903 321.5,176.5 Z"/></g>
<g><path style="opacity:0.68" fill="#fe5858" d="M 442.5,177.5 C 445.764,179.094 448.431,181.427 450.5,184.5C 447.236,182.906 444.569,180.573 442.5,177.5 Z"/></g>
<g><path style="opacity:0.72" fill="#fe5453" d="M 378.5,183.5 C 382.1,185.43 385.1,188.097 387.5,191.5C 383.9,189.57 380.9,186.903 378.5,183.5 Z"/></g>
<g><path style="opacity:0.54" fill="#fe5251" d="M 169.5,183.5 C 167.431,186.573 164.764,188.906 161.5,190.5C 163.569,187.427 166.236,185.094 169.5,183.5 Z"/></g>
<g><path style="opacity:0.632" fill="#fe5656" d="M 48.5,184.5 C 46.4309,187.573 43.7642,189.906 40.5,191.5C 42.5691,188.427 45.2358,186.094 48.5,184.5 Z"/></g>
<g><path style="opacity:0.078" fill="#fe5b5a" d="M 120.5,183.5 C 118.431,186.573 115.764,188.906 112.5,190.5C 114.569,187.427 117.236,185.094 120.5,183.5 Z"/></g>
<g><path style="opacity:0.641" fill="#fe5656" d="M 330.5,184.5 C 333.764,186.094 336.431,188.427 338.5,191.5C 335.236,189.906 332.569,187.573 330.5,184.5 Z"/></g>
<g><path style="opacity:0.622" fill="#fe5959" d="M 450.5,184.5 C 453.764,186.094 456.431,188.427 458.5,191.5C 455.236,189.906 452.569,187.573 450.5,184.5 Z"/></g>
<g><path style="opacity:0.619" fill="#fe5453" d="M 112.5,190.5 C 110.431,193.573 107.764,195.906 104.5,197.5C 106.569,194.427 109.236,192.094 112.5,190.5 Z"/></g>
<g><path style="opacity:0.529" fill="#fe5454" d="M 160.5,191.5 C 158.431,194.573 155.764,196.906 152.5,198.5C 154.569,195.427 157.236,193.094 160.5,191.5 Z"/></g>
<g><path style="opacity:0.621" fill="#fe5453" d="M 387.5,191.5 C 390.764,193.094 393.431,195.427 395.5,198.5C 392.236,196.906 389.569,194.573 387.5,191.5 Z"/></g>
<g><path style="opacity:0.569" fill="#fe5554" d="M 458.5,191.5 C 462.1,193.43 465.1,196.097 467.5,199.5C 463.9,197.57 460.9,194.903 458.5,191.5 Z"/></g>
<g><path style="opacity:0.635" fill="#fe5555" d="M 40.5,191.5 C 38.4309,194.573 35.7642,196.906 32.5,198.5C 34.5691,195.427 37.2358,193.094 40.5,191.5 Z"/></g>
<g><path style="opacity:0.598" fill="#fe5858" d="M 338.5,191.5 C 342.1,193.43 345.1,196.097 347.5,199.5C 343.9,197.57 340.9,194.903 338.5,191.5 Z"/></g>
<g><path style="opacity:0.539" fill="#fe5250" d="M 104.5,197.5 C 102.1,200.903 99.1002,203.57 95.5,205.5C 97.8998,202.097 100.9,199.43 104.5,197.5 Z"/></g>
<g><path style="opacity:0.619" fill="#fe5656" d="M 395.5,198.5 C 398.764,200.094 401.431,202.427 403.5,205.5C 400.236,203.906 397.569,201.573 395.5,198.5 Z"/></g>
<g><path style="opacity:0.627" fill="#fe5453" d="M 32.5,198.5 C 30.4309,201.573 27.7642,203.906 24.5,205.5C 26.5691,202.427 29.2358,200.094 32.5,198.5 Z"/></g>
<g><path style="opacity:0.598" fill="#fe5454" d="M 152.5,198.5 C 150.1,201.903 147.1,204.57 143.5,206.5C 145.9,203.097 148.9,200.43 152.5,198.5 Z"/></g>
<g><path style="opacity:0.09" fill="#fe5555" d="M 467.5,199.5 C 470.764,201.094 473.431,203.427 475.5,206.5C 472.236,204.906 469.569,202.573 467.5,199.5 Z"/></g>
<g><path style="opacity:0.603" fill="#fe5554" d="M 347.5,199.5 C 350.764,201.094 353.431,203.427 355.5,206.5C 352.236,204.906 349.569,202.573 347.5,199.5 Z"/></g>
<g><path style="opacity:0.694" fill="#fe5453" d="M 403.5,205.5 C 407.1,207.43 410.1,210.097 412.5,213.5C 408.9,211.57 405.9,208.903 403.5,205.5 Z"/></g>
<g><path style="opacity:0.535" fill="#fe5250" d="M 355.5,206.5 C 359.1,208.43 362.1,211.097 364.5,214.5C 360.9,212.57 357.9,209.903 355.5,206.5 Z"/></g>
<g><path style="opacity:0.489" fill="#fe5a5a" d="M 95.5,205.5 C 93.4309,208.573 90.7642,210.906 87.5,212.5C 89.5691,209.427 92.2358,207.094 95.5,205.5 Z"/></g>
<g><path style="opacity:0.63" fill="#fe5453" d="M 24.5,205.5 C 22.1002,208.903 19.1002,211.57 15.5,213.5C 17.8998,210.097 20.8998,207.43 24.5,205.5 Z"/></g>
<g><path style="opacity:0.637" fill="#fe5656" d="M 143.5,206.5 C 141.431,209.573 138.764,211.906 135.5,213.5C 137.569,210.427 140.236,208.094 143.5,206.5 Z"/></g>
<g><path style="opacity:0.636" fill="#fe5858" d="M 475.5,206.5 C 478.764,208.094 481.431,210.427 483.5,213.5C 480.236,211.906 477.569,209.573 475.5,206.5 Z"/></g>
<g><path style="opacity:0.559" fill="#fe5757" d="M 87.5,212.5 C 85.4309,215.573 82.7642,217.906 79.5,219.5C 81.5691,216.427 84.2358,214.094 87.5,212.5 Z"/></g>
<g><path style="opacity:0.515" fill="#fe5656" d="M 15.5,213.5 C 10.7095,217.947 6.70954,222.947 3.5,228.5C 5.27391,221.725 9.27391,216.725 15.5,213.5 Z"/></g>
<g><path style="opacity:0.587" fill="#fe5555" d="M 412.5,213.5 C 415.764,215.094 418.431,217.427 420.5,220.5C 417.236,218.906 414.569,216.573 412.5,213.5 Z"/></g>
<g><path style="opacity:0.667" fill="#fe5453" d="M 135.5,213.5 C 133.1,216.903 130.1,219.57 126.5,221.5C 128.9,218.097 131.9,215.43 135.5,213.5 Z"/></g>
<g><path style="opacity:0.688" fill="#fe5858" d="M 364.5,214.5 C 367.764,216.094 370.431,218.427 372.5,221.5C 369.236,219.906 366.569,217.573 364.5,214.5 Z"/></g>
<g><path style="opacity:0.615" fill="#fe5857" d="M 79.5,219.5 C 77.1002,222.903 74.1002,225.57 70.5,227.5C 72.8998,224.097 75.8998,221.43 79.5,219.5 Z"/></g>
<g><path style="opacity:0.638" fill="#fe5656" d="M 483.5,213.5 C 487.5,215.5 490.5,218.5 492.5,222.5C 489.167,219.833 486.167,216.833 483.5,213.5 Z"/></g>
<g><path style="opacity:0.562" fill="#fe5757" d="M 126.5,221.5 C 124.431,224.573 121.764,226.906 118.5,228.5C 120.569,225.427 123.236,223.094 126.5,221.5 Z"/></g>
<g><path style="opacity:0.882" fill="#fe5352" d="M 420.5,220.5 C 424.1,222.43 427.1,225.097 429.5,228.5C 425.9,226.57 422.9,223.903 420.5,220.5 Z"/></g>
<g><path style="opacity:0.6" fill="#fe5554" d="M 372.5,221.5 C 376.1,223.43 379.1,226.097 381.5,229.5C 377.9,227.57 374.9,224.903 372.5,221.5 Z"/></g>
<g><path style="opacity:0.635" fill="#fe5454" d="M 70.5,227.5 C 68.4309,230.573 65.7642,232.906 62.5,234.5C 64.5691,231.427 67.2358,229.094 70.5,227.5 Z"/></g>
<g><path style="opacity:0.597" fill="#fe5757" d="M 429.5,228.5 C 432.764,230.094 435.431,232.427 437.5,235.5C 434.236,233.906 431.569,231.573 429.5,228.5 Z"/></g>
<g><path style="opacity:0.732" fill="#fe5554" d="M 492.5,222.5 C 495.806,226.091 497.139,230.425 496.5,235.5C 494.792,253.034 485.126,260.867 467.5,259C 465.509,258.626 463.842,257.793 462.5,256.5C 467.371,258.208 472.371,258.708 477.5,258C 494.638,251.44 499.638,239.607 492.5,222.5 Z"/></g>
<g><path style="opacity:0.615" fill="#fe5454" d="M 118.5,228.5 C 116.1,231.903 113.1,234.57 109.5,236.5C 111.9,233.097 114.9,230.43 118.5,228.5 Z"/></g>
<g><path style="opacity:0.652" fill="#fe5858" d="M 381.5,229.5 C 385.1,231.43 388.1,234.097 390.5,237.5C 386.9,235.57 383.9,232.903 381.5,229.5 Z"/></g>
<g><path style="opacity:0.567" fill="#fe5452" d="M 62.5,234.5 C 60.1002,237.903 57.1002,240.57 53.5,242.5C 55.8998,239.097 58.8998,236.43 62.5,234.5 Z"/></g>
<g><path style="opacity:0.759" fill="#fe5555" d="M 437.5,235.5 C 440.764,237.094 443.431,239.427 445.5,242.5C 442.236,240.906 439.569,238.573 437.5,235.5 Z"/></g>
<g><path style="opacity:0.54" fill="#fe5251" d="M 109.5,236.5 C 107.431,239.573 104.764,241.906 101.5,243.5C 103.569,240.427 106.236,238.094 109.5,236.5 Z"/></g>
<g><path style="opacity:0.641" fill="#fe5656" d="M 390.5,237.5 C 393.764,239.094 396.431,241.427 398.5,244.5C 395.236,242.906 392.569,240.573 390.5,237.5 Z"/></g>
<g><path style="opacity:0.608" fill="#fe5453" d="M 2.5,233.5 C 2.97984,242.46 6.64651,249.793 13.5,255.5C 4.97515,250.451 1.30848,243.117 2.5,233.5 Z"/></g>
<g><path style="opacity:0.59" fill="#fe5a5a" d="M 53.5,242.5 C 51.4309,245.573 48.7642,247.906 45.5,249.5C 47.5691,246.427 50.2358,244.094 53.5,242.5 Z"/></g>
<g><path style="opacity:0.529" fill="#fe5454" d="M 100.5,244.5 C 98.4309,247.573 95.7642,249.906 92.5,251.5C 94.5691,248.427 97.2358,246.094 100.5,244.5 Z"/></g>
<g><path style="opacity:0.455" fill="#fe5251" d="M 445.5,242.5 C 449.1,244.43 452.1,247.097 454.5,250.5C 450.9,248.57 447.9,245.903 445.5,242.5 Z"/></g>
<g><path style="opacity:0.61" fill="#fe5858" d="M 398.5,244.5 C 402.1,246.43 405.1,249.097 407.5,252.5C 403.9,250.57 400.9,247.903 398.5,244.5 Z"/></g>
<g><path style="opacity:0.578" fill="#fe5555" d="M 454.5,250.5 C 457.455,252.122 460.122,254.122 462.5,256.5C 458.98,255.647 456.313,253.647 454.5,250.5 Z"/></g>
<g><path style="opacity:0.598" fill="#fe5454" d="M 92.5,251.5 C 90.1002,254.903 87.1002,257.57 83.5,259.5C 85.8998,256.097 88.8998,253.43 92.5,251.5 Z"/></g>
<g><path style="opacity:0.458" fill="#fe5656" d="M 13.5,255.5 C 15.153,255.66 16.4863,256.326 17.5,257.5C 15.6203,257.771 14.287,257.104 13.5,255.5 Z"/></g>
<g><path style="opacity:0.612" fill="#fe5656" d="M 45.5,249.5 C 41.9072,254.798 36.9072,257.798 30.5,258.5C 35.9567,256.271 40.9567,253.271 45.5,249.5 Z"/></g>
<g><path style="opacity:0.603" fill="#fe5554" d="M 407.5,252.5 C 410.764,254.094 413.431,256.427 415.5,259.5C 412.236,257.906 409.569,255.573 407.5,252.5 Z"/></g>
<g><path style="opacity:0.469" fill="#fe5656" d="M 17.5,257.5 C 21.7978,258.2 26.1311,258.533 30.5,258.5C 29.036,259.16 27.3693,259.493 25.5,259.5C 22.5143,259.618 19.8476,258.952 17.5,257.5 Z"/></g>
<g><path style="opacity:0.569" fill="#fe5554" d="M 415.5,259.5 C 419.1,261.43 422.1,264.097 424.5,267.5C 420.9,265.57 417.9,262.903 415.5,259.5 Z"/></g>
<g><path style="opacity:0.637" fill="#fe5656" d="M 83.5,259.5 C 81.4309,262.573 78.7642,264.906 75.5,266.5C 77.5691,263.427 80.2358,261.094 83.5,259.5 Z"/></g>
<g><path style="opacity:0.516" fill="#fe5959" d="M 424.5,267.5 C 427.764,269.094 430.431,271.427 432.5,274.5C 429.236,272.906 426.569,270.573 424.5,267.5 Z"/></g>
<g><path style="opacity:0.667" fill="#fe5453" d="M 75.5,266.5 C 73.1002,269.903 70.1002,272.57 66.5,274.5C 68.8998,271.097 71.8998,268.43 75.5,266.5 Z"/></g>
<g><path style="opacity:0.277" fill="#fe5655" d="M 432.5,274.5 C 436.099,276.263 438.932,278.93 441,282.5C 441.832,346.668 441.665,410.668 440.5,474.5C 440.667,410.832 440.5,347.166 440,283.5C 437.665,280.335 435.165,277.335 432.5,274.5 Z"/></g>
<g><path style="opacity:0.372" fill="#fe5757" d="M 287.5,330.5 C 285.436,330.313 283.436,329.813 281.5,329C 258.809,328.209 236.143,328.376 213.5,329.5C 214.263,328.732 215.263,328.232 216.5,328C 238.5,327.333 260.5,327.333 282.5,328C 284.491,328.374 286.158,329.207 287.5,330.5 Z"/></g>
<g><path style="opacity:0.549" fill="#fe504e" d="M 213.5,329.5 C 207.833,333.167 203.167,337.833 199.5,343.5C 201.833,336.5 206.5,331.833 213.5,329.5 Z"/></g>
<g><path style="opacity:0.714" fill="#fe5555" d="M 287.5,330.5 C 292.833,332.5 296.5,336.167 298.5,341.5C 295.167,337.5 291.5,333.833 287.5,330.5 Z"/></g>
<g><path style="opacity:0.277" fill="#fe5656" d="M 199.5,343.5 C 198.854,387.313 198.188,430.98 197.5,474.5C 197.333,431.832 197.5,389.165 198,346.5C 198.232,345.263 198.732,344.263 199.5,343.5 Z"/></g>
<g><path style="opacity:0.462" fill="#fe5656" d="M 66.5,274.5 C 63.8347,277.335 61.3347,280.335 59,283.5C 58.0074,347.915 58.3407,412.249 60,476.5C 60.7504,477.126 61.5838,477.626 62.5,478C 106.875,478.823 151.208,478.656 195.5,477.5C 195.389,478.117 195.056,478.617 194.5,479C 150.167,479.667 105.833,479.667 61.5,479C 60.5838,478.626 59.7504,478.126 59,477.5C 57.3407,412.582 57.0073,347.582 58,282.5C 60.0678,278.93 62.9012,276.263 66.5,274.5 Z"/></g>
<g><path style="opacity:0.462" fill="#fe5656" d="M 298.5,341.5 C 299.793,342.842 300.626,344.509 301,346.5C 301.333,389.167 301.667,431.833 302,474.5C 302.374,475.416 302.874,476.25 303.5,477C 325.914,478.157 348.414,478.657 371,478.5C 393.542,478.49 416.042,478.156 438.5,477.5C 438.389,478.117 438.056,478.617 437.5,479C 415.333,479.167 393.167,479.333 371,479.5C 348.081,479.657 325.247,479.157 302.5,478C 301.874,477.25 301.374,476.416 301,475.5C 300.667,432.833 300.333,390.167 300,347.5C 299.187,345.564 298.687,343.564 298.5,341.5 Z"/></g>
</svg>
