<?xml version="1.0" encoding="UTF-8"?>
<!DOCTYPE svg PUBLIC "-//W3C//DTD SVG 1.1//EN" "http://www.w3.org/Graphics/SVG/1.1/DTD/svg11.dtd">
<svg xmlns="http://www.w3.org/2000/svg" version="1.1" width="500px" height="500px" style="shape-rendering:geometricPrecision; text-rendering:geometricPrecision; image-rendering:optimizeQuality; fill-rule:evenodd; clip-rule:evenodd" xmlns:xlink="http://www.w3.org/1999/xlink">
<g><path style="opacity:1" fill="#fffefe" d="M 250.5,38.5 C 253.341,39.6693 256.341,40.6693 259.5,41.5C 263.301,44.9584 266.301,48.9584 268.5,53.5C 268.5,59.5 268.5,65.5 268.5,71.5C 269.833,71.5 271.167,71.5 272.5,71.5C 275.589,72.7846 278.922,73.4512 282.5,73.5C 292.579,76.7508 302.579,80.4175 312.5,84.5C 313.492,84.3284 314.158,84.6618 314.5,85.5C 318.164,88.3346 322.164,90.668 326.5,92.5C 326.973,93.9063 327.973,94.573 329.5,94.5C 331.8,96.984 334.467,98.984 337.5,100.5C 338.911,102.914 340.911,104.581 343.5,105.5C 347.167,109.833 351.167,113.833 355.5,117.5C 358.687,122.538 362.353,127.205 366.5,131.5C 366.427,133.027 367.094,134.027 368.5,134.5C 370,138.173 372,141.506 374.5,144.5C 375.338,144.842 375.672,145.508 375.5,146.5C 375.992,148.819 376.992,150.819 378.5,152.5C 378.707,155.241 379.707,157.574 381.5,159.5C 382.595,164.784 384.261,169.784 386.5,174.5C 389.029,186.859 390.695,199.193 391.5,211.5C 391.5,256.167 391.5,300.833 391.5,345.5C 400.2,345.289 408.867,345.623 417.5,346.5C 420.642,348.58 423.642,350.914 426.5,353.5C 430.5,361.5 430.5,369.5 426.5,377.5C 423.642,380.086 420.642,382.42 417.5,384.5C 385.858,385.47 354.191,385.804 322.5,385.5C 322.437,399.354 319.103,412.354 312.5,424.5C 310.674,426.147 309.34,428.147 308.5,430.5C 306.086,431.911 304.419,433.911 303.5,436.5C 303.5,437.167 303.167,437.5 302.5,437.5C 301.167,438.167 300.167,439.167 299.5,440.5C 299.5,441.167 299.167,441.5 298.5,441.5C 287.291,450.268 274.624,456.101 260.5,459C 252.507,459.5 244.507,459.666 236.5,459.5C 234.585,459.784 232.919,459.451 231.5,458.5C 229.485,457.076 227.152,456.41 224.5,456.5C 223.22,455.069 221.553,454.402 219.5,454.5C 217.151,452.659 214.485,451.326 211.5,450.5C 208.525,447.677 205.192,445.344 201.5,443.5C 198.5,439.833 195.167,436.5 191.5,433.5C 189.656,429.808 187.323,426.475 184.5,423.5C 183.674,420.515 182.341,417.849 180.5,415.5C 179.739,411.216 178.405,407.216 176.5,403.5C 175.549,402.081 175.216,400.415 175.5,398.5C 175.766,394.429 175.433,390.429 174.5,386.5C 144.174,385.5 113.841,385.167 83.5,385.5C 68.801,379.433 64.6343,369.1 71,354.5C 74.2991,350.118 78.4657,347.118 83.5,345.5C 91.1667,345.5 98.8333,345.5 106.5,345.5C 106.5,297.5 106.5,249.5 106.5,201.5C 108.168,189.824 110.502,178.158 113.5,166.5C 118.208,156.083 123.208,145.75 128.5,135.5C 130.326,133.853 131.66,131.853 132.5,129.5C 134.262,128.738 135.262,127.404 135.5,125.5C 137.587,124.415 138.92,122.749 139.5,120.5C 151.693,107.96 165.027,96.9599 179.5,87.5C 183.151,86.3411 186.485,84.6744 189.5,82.5C 189.842,81.6618 190.508,81.3284 191.5,81.5C 198.38,79.5412 205.047,77.2079 211.5,74.5C 217.191,73.6285 222.858,72.6285 228.5,71.5C 227.714,62.7697 229.047,54.4364 232.5,46.5C 234.167,45.5 235.5,44.1667 236.5,42.5C 240.149,40.8292 243.816,39.4959 247.5,38.5C 248.5,37.1667 249.5,37.1667 250.5,38.5 Z M 281.5,393.5 C 278.789,400.575 274.789,406.908 269.5,412.5C 265.461,414.519 261.461,416.519 257.5,418.5C 255.585,418.216 253.919,418.549 252.5,419.5C 244.283,419.524 236.616,417.524 229.5,413.5C 227.167,410.5 224.5,407.833 221.5,405.5C 218.299,399.562 216.299,393.228 215.5,386.5C 237.5,386.5 259.5,386.5 281.5,386.5C 281.5,388.833 281.5,391.167 281.5,393.5 Z"/></g>
<g><path style="opacity:0.695" fill="#fe5555" d="M 250.5,38.5 C 254.081,38.1376 257.081,39.1376 259.5,41.5C 256.341,40.6693 253.341,39.6693 250.5,38.5 Z"/></g>
<g><path style="opacity:0.773" fill="#fe5958" d="M 247.5,38.5 C 243.816,39.4959 240.149,40.8292 236.5,42.5C 239.369,39.242 243.036,37.9086 247.5,38.5 Z"/></g>
<g><path style="opacity:0.421" fill="#fe5353" d="M 236.5,42.5 C 235.5,44.1667 234.167,45.5 232.5,46.5C 232.833,44.1667 234.167,42.8333 236.5,42.5 Z"/></g>
<g><path style="opacity:0.701" fill="#fe5656" d="M 259.5,41.5 C 264.751,43.7583 267.751,47.7583 268.5,53.5C 266.301,48.9584 263.301,44.9584 259.5,41.5 Z"/></g>
<g><path style="opacity:0.632" fill="#fe5656" d="M 268.5,53.5 C 269.489,58.9753 269.822,64.642 269.5,70.5C 270.791,70.2627 271.791,70.596 272.5,71.5C 271.167,71.5 269.833,71.5 268.5,71.5C 268.5,65.5 268.5,59.5 268.5,53.5 Z"/></g>
<g><path style="opacity:0.16" fill="#fe5757" d="M 232.5,46.5 C 229.047,54.4364 227.714,62.7697 228.5,71.5C 222.858,72.6285 217.191,73.6285 211.5,74.5C 216.562,72.5487 221.896,71.2154 227.5,70.5C 227.243,64.1021 227.743,57.7688 229,51.5C 229.697,49.4156 230.864,47.7489 232.5,46.5 Z"/></g>
<g><path style="opacity:0.492" fill="#fe5656" d="M 272.5,71.5 C 276.122,71.322 279.456,71.9886 282.5,73.5C 278.922,73.4512 275.589,72.7846 272.5,71.5 Z"/></g>
<g><path style="opacity:0.61" fill="#fe5554" d="M 211.5,74.5 C 205.047,77.2079 198.38,79.5412 191.5,81.5C 197.669,77.998 204.335,75.6646 211.5,74.5 Z"/></g>
<g><path style="opacity:0.624" fill="#fe5554" d="M 282.5,73.5 C 293.303,75.2097 303.303,78.8764 312.5,84.5C 302.579,80.4175 292.579,76.7508 282.5,73.5 Z"/></g>
<g><path style="opacity:0.529" fill="#fe5a5a" d="M 189.5,82.5 C 186.485,84.6744 183.151,86.3411 179.5,87.5C 182.247,84.7933 185.58,83.1266 189.5,82.5 Z"/></g>
<g><path style="opacity:0.53" fill="#fe5250" d="M 314.5,85.5 C 319.165,86.8278 323.165,89.1611 326.5,92.5C 322.164,90.668 318.164,88.3346 314.5,85.5 Z"/></g>
<g><path style="opacity:0.606" fill="#fe5656" d="M 326.5,92.5 C 328.027,92.427 329.027,93.0937 329.5,94.5C 327.973,94.573 326.973,93.9063 326.5,92.5 Z"/></g>
<g><path style="opacity:0.514" fill="#fe5656" d="M 329.5,94.5 C 332.891,95.5293 335.557,97.5293 337.5,100.5C 334.467,98.984 331.8,96.984 329.5,94.5 Z"/></g>
<g><path style="opacity:0.694" fill="#fe5555" d="M 337.5,100.5 C 340.089,101.419 342.089,103.086 343.5,105.5C 340.911,104.581 338.911,102.914 337.5,100.5 Z"/></g>
<g><path style="opacity:0.613" fill="#fe5555" d="M 179.5,87.5 C 165.027,96.9599 151.693,107.96 139.5,120.5C 148.778,108.056 160.112,97.8889 173.5,90C 175.407,88.878 177.407,88.0447 179.5,87.5 Z"/></g>
<g><path style="opacity:0.477" fill="#fe5757" d="M 343.5,105.5 C 348.5,108.5 352.5,112.5 355.5,117.5C 351.167,113.833 347.167,109.833 343.5,105.5 Z"/></g>
<g><path style="opacity:0.641" fill="#fe5656" d="M 139.5,120.5 C 138.92,122.749 137.587,124.415 135.5,125.5C 136.08,123.251 137.413,121.585 139.5,120.5 Z"/></g>
<g><path style="opacity:0.608" fill="#fe5655" d="M 135.5,125.5 C 135.262,127.404 134.262,128.738 132.5,129.5C 132.738,127.596 133.738,126.262 135.5,125.5 Z"/></g>
<g><path style="opacity:0.89" fill="#fe5655" d="M 355.5,117.5 C 360.129,121.432 363.796,126.099 366.5,131.5C 362.353,127.205 358.687,122.538 355.5,117.5 Z"/></g>
<g><path style="opacity:0.524" fill="#fe5555" d="M 366.5,131.5 C 367.906,131.973 368.573,132.973 368.5,134.5C 367.094,134.027 366.427,133.027 366.5,131.5 Z"/></g>
<g><path style="opacity:0.725" fill="#fe5959" d="M 132.5,129.5 C 131.66,131.853 130.326,133.853 128.5,135.5C 128.845,132.802 130.178,130.802 132.5,129.5 Z"/></g>
<g><path style="opacity:0.669" fill="#fe5454" d="M 368.5,134.5 C 371.502,137.161 373.502,140.495 374.5,144.5C 372,141.506 370,138.173 368.5,134.5 Z"/></g>
<g><path style="opacity:0.633" fill="#fe5656" d="M 128.5,135.5 C 123.208,145.75 118.208,156.083 113.5,166.5C 116.656,155.191 121.656,144.857 128.5,135.5 Z"/></g>
<g><path style="opacity:0.812" fill="#fe504d" d="M 375.5,146.5 C 377.539,147.911 378.539,149.911 378.5,152.5C 376.992,150.819 375.992,148.819 375.5,146.5 Z"/></g>
<g><path style="opacity:0.569" fill="#fe5757" d="M 378.5,152.5 C 380.293,154.426 381.293,156.759 381.5,159.5C 379.707,157.574 378.707,155.241 378.5,152.5 Z"/></g>
<g><path style="opacity:0.664" fill="#fe5656" d="M 381.5,159.5 C 384.14,164.085 385.806,169.085 386.5,174.5C 384.261,169.784 382.595,164.784 381.5,159.5 Z"/></g>
<g><path style="opacity:0.579" fill="#fe5555" d="M 113.5,166.5 C 110.502,178.158 108.168,189.824 106.5,201.5C 106.676,189.287 109.009,177.62 113.5,166.5 Z"/></g>
<g><path style="opacity:0.774" fill="#fe5554" d="M 386.5,174.5 C 390.482,186.382 392.149,198.715 391.5,211.5C 390.695,199.193 389.029,186.859 386.5,174.5 Z"/></g>
<g><path style="opacity:0.403" fill="#fe5656" d="M 106.5,201.5 C 106.5,249.5 106.5,297.5 106.5,345.5C 98.8333,345.5 91.1667,345.5 83.5,345.5C 90.6476,344.508 97.9809,344.175 105.5,344.5C 105.168,296.664 105.501,248.997 106.5,201.5 Z"/></g>
<g><path style="opacity:0.02" fill="#ff6363" d="M 391.5,211.5 C 392.499,255.664 392.832,299.997 392.5,344.5C 399.841,344.334 407.174,344.5 414.5,345C 415.737,345.232 416.737,345.732 417.5,346.5C 408.867,345.623 400.2,345.289 391.5,345.5C 391.5,300.833 391.5,256.167 391.5,211.5 Z"/></g>
<g><path style="opacity:0.519" fill="#fe5756" d="M 417.5,346.5 C 421.837,347.163 424.837,349.496 426.5,353.5C 423.642,350.914 420.642,348.58 417.5,346.5 Z"/></g>
<g><path style="opacity:0.714" fill="#fe5453" d="M 426.5,353.5 C 429.897,356.686 431.23,360.686 430.5,365.5C 431.23,370.314 429.897,374.314 426.5,377.5C 430.5,369.5 430.5,361.5 426.5,353.5 Z"/></g>
<g><path style="opacity:0.712" fill="#fe5958" d="M 83.5,345.5 C 78.4657,347.118 74.2991,350.118 71,354.5C 64.6343,369.1 68.801,379.433 83.5,385.5C 72.8577,383.183 67.191,376.516 66.5,365.5C 67.191,354.484 72.8577,347.817 83.5,345.5 Z"/></g>
<g><path style="opacity:0.545" fill="#fe5858" d="M 426.5,377.5 C 424.837,381.504 421.837,383.837 417.5,384.5C 420.642,382.42 423.642,380.086 426.5,377.5 Z"/></g>
<g><path style="opacity:0.458" fill="#fe5656" d="M 83.5,385.5 C 113.841,385.167 144.174,385.5 174.5,386.5C 175.433,390.429 175.766,394.429 175.5,398.5C 174.77,394.969 174.104,391.303 173.5,387.5C 143.336,386.833 113.336,386.167 83.5,385.5 Z"/></g>
<g><path style="opacity:0.496" fill="#fe5655" d="M 281.5,393.5 C 281.5,391.167 281.5,388.833 281.5,386.5C 259.5,386.5 237.5,386.5 215.5,386.5C 216.299,393.228 218.299,399.562 221.5,405.5C 216.811,399.772 214.478,393.106 214.5,385.5C 237.167,385.5 259.833,385.5 282.5,385.5C 282.806,388.385 282.473,391.052 281.5,393.5 Z"/></g>
<g><path style="opacity:0.467" fill="#fe5656" d="M 417.5,384.5 C 416.737,385.268 415.737,385.768 414.5,386C 384.168,386.5 353.835,386.667 323.5,386.5C 323.842,400.458 320.176,413.124 312.5,424.5C 319.103,412.354 322.437,399.354 322.5,385.5C 354.191,385.804 385.858,385.47 417.5,384.5 Z"/></g>
<g><path style="opacity:0.653" fill="#fe5554" d="M 281.5,393.5 C 280.977,399.212 278.81,404.212 275,408.5C 273.549,410.464 271.716,411.797 269.5,412.5C 274.789,406.908 278.789,400.575 281.5,393.5 Z"/></g>
<g><path style="opacity:0.653" fill="#fe5656" d="M 176.5,403.5 C 178.405,407.216 179.739,411.216 180.5,415.5C 178.194,411.915 176.861,407.915 176.5,403.5 Z"/></g>
<g><path style="opacity:0.484" fill="#fe5656" d="M 221.5,405.5 C 224.5,407.833 227.167,410.5 229.5,413.5C 225.833,411.833 223.167,409.167 221.5,405.5 Z"/></g>
<g><path style="opacity:0.581" fill="#fe5656" d="M 269.5,412.5 C 266.35,416.075 262.35,418.075 257.5,418.5C 261.461,416.519 265.461,414.519 269.5,412.5 Z"/></g>
<g><path style="opacity:0.53" fill="#fe5250" d="M 229.5,413.5 C 236.616,417.524 244.283,419.524 252.5,419.5C 243.989,421.06 236.322,419.06 229.5,413.5 Z"/></g>
<g><path style="opacity:0.641" fill="#fe5454" d="M 180.5,415.5 C 182.341,417.849 183.674,420.515 184.5,423.5C 182.127,421.421 180.794,418.754 180.5,415.5 Z"/></g>
<g><path style="opacity:0.545" fill="#fe5351" d="M 184.5,423.5 C 187.323,426.475 189.656,429.808 191.5,433.5C 188.185,430.875 185.851,427.542 184.5,423.5 Z"/></g>
<g><path style="opacity:0.535" fill="#fe5c5b" d="M 312.5,424.5 C 312.155,427.198 310.822,429.198 308.5,430.5C 309.34,428.147 310.674,426.147 312.5,424.5 Z"/></g>
<g><path style="opacity:0.11" fill="#fe5555" d="M 308.5,430.5 C 307.581,433.089 305.914,435.089 303.5,436.5C 304.419,433.911 306.086,431.911 308.5,430.5 Z"/></g>
<g><path style="opacity:0.592" fill="#fe5656" d="M 191.5,433.5 C 195.167,436.5 198.5,439.833 201.5,443.5C 197.167,441.167 193.833,437.833 191.5,433.5 Z"/></g>
<g><path style="opacity:0.004" fill="#ff332a" d="M 302.5,437.5 C 302.5,439.5 301.5,440.5 299.5,440.5C 300.167,439.167 301.167,438.167 302.5,437.5 Z"/></g>
<g><path style="opacity:0.68" fill="#fe5452" d="M 201.5,443.5 C 205.192,445.344 208.525,447.677 211.5,450.5C 207.458,449.149 204.125,446.815 201.5,443.5 Z"/></g>
<g><path style="opacity:0.622" fill="#fe5656" d="M 298.5,441.5 C 280.824,457.753 260.157,463.753 236.5,459.5C 244.507,459.666 252.507,459.5 260.5,459C 274.624,456.101 287.291,450.268 298.5,441.5 Z"/></g>
<g><path style="opacity:0.513" fill="#fe5655" d="M 211.5,450.5 C 214.485,451.326 217.151,452.659 219.5,454.5C 216.246,454.206 213.579,452.873 211.5,450.5 Z"/></g>
<g><path style="opacity:0.526" fill="#fe5555" d="M 219.5,454.5 C 221.553,454.402 223.22,455.069 224.5,456.5C 222.447,456.598 220.78,455.931 219.5,454.5 Z"/></g>
<g><path style="opacity:0.545" fill="#fe5555" d="M 224.5,456.5 C 227.152,456.41 229.485,457.076 231.5,458.5C 228.848,458.59 226.515,457.924 224.5,456.5 Z"/></g>
</svg>
