<?xml version="1.0" encoding="UTF-8"?>
<!DOCTYPE svg PUBLIC "-//W3C//DTD SVG 1.1//EN" "http://www.w3.org/Graphics/SVG/1.1/DTD/svg11.dtd">
<svg xmlns="http://www.w3.org/2000/svg" version="1.1" width="500px" height="500px" style="shape-rendering:geometricPrecision; text-rendering:geometricPrecision; image-rendering:optimizeQuality; fill-rule:evenodd; clip-rule:evenodd" xmlns:xlink="http://www.w3.org/1999/xlink">
<g><path style="opacity:0.539" fill="#fe5554" d="M 429.5,-0.5 C 434.833,-0.5 440.167,-0.5 445.5,-0.5C 449.045,0.23868 452.378,1.57201 455.5,3.5C 434.786,-3.09331 416.786,1.24003 401.5,16.5C 402.203,14.2843 403.536,12.451 405.5,11C 412.673,5.24536 420.673,1.41203 429.5,-0.5 Z"/></g>
<g><path style="opacity:1" fill="#fffefe" d="M 455.5,3.5 C 459.828,6.15893 464.162,8.82559 468.5,11.5C 470.9,14.9031 473.9,17.5698 477.5,19.5C 478.833,21.5 480.5,23.1667 482.5,24.5C 485.174,28.8383 487.841,33.1717 490.5,37.5C 494.027,48.736 494.36,60.0694 491.5,71.5C 488.916,75.6662 486.583,79.9996 484.5,84.5C 480.135,88.5345 475.802,92.5345 471.5,96.5C 472.922,100.034 473.589,103.7 473.5,107.5C 471.602,112.294 468.935,116.628 465.5,120.5C 465.5,121.167 465.167,121.5 464.5,121.5C 460.766,124.231 457.766,127.564 455.5,131.5C 451.434,134.563 448.101,138.229 445.5,142.5C 441.766,145.231 438.766,148.564 436.5,152.5C 436.5,153.167 436.167,153.5 435.5,153.5C 431.766,156.231 428.766,159.564 426.5,163.5C 422.434,166.563 419.101,170.229 416.5,174.5C 412.434,177.563 409.101,181.229 406.5,185.5C 402.766,188.231 399.766,191.564 397.5,195.5C 397.5,196.167 397.167,196.5 396.5,196.5C 392.766,199.231 389.766,202.564 387.5,206.5C 383.434,209.563 380.101,213.229 377.5,217.5C 373.766,220.231 370.766,223.564 368.5,227.5C 368.5,228.167 368.167,228.5 367.5,228.5C 363.766,231.231 360.766,234.564 358.5,238.5C 354.434,241.563 351.101,245.229 348.5,249.5C 344.434,252.563 341.101,256.229 338.5,260.5C 334.766,263.231 331.766,266.564 329.5,270.5C 329.5,271.167 329.167,271.5 328.5,271.5C 324.766,274.231 321.766,277.564 319.5,281.5C 315.434,284.563 312.101,288.229 309.5,292.5C 305.766,295.231 302.766,298.564 300.5,302.5C 300.5,303.167 300.167,303.5 299.5,303.5C 295.766,306.231 292.766,309.564 290.5,313.5C 286.434,316.563 283.101,320.229 280.5,324.5C 277.642,327.086 274.642,329.42 271.5,331.5C 270.791,332.404 269.791,332.737 268.5,332.5C 264.838,332.723 261.505,333.723 258.5,335.5C 254.838,335.723 251.505,336.723 248.5,338.5C 244.838,338.723 241.505,339.723 238.5,341.5C 233.835,342.057 229.502,343.39 225.5,345.5C 221.838,345.723 218.505,346.723 215.5,348.5C 211.838,348.723 208.505,349.723 205.5,351.5C 201.838,351.723 198.505,352.723 195.5,354.5C 192.053,354.814 188.72,355.648 185.5,357C 181.833,357.667 178.167,357.667 174.5,357C 170.724,355.053 167.39,352.553 164.5,349.5C 163.839,346.512 163.172,343.512 162.5,340.5C 168.553,308.733 175.053,277.067 182,245.5C 184.41,242.603 186.577,239.603 188.5,236.5C 188.5,235.833 188.833,235.5 189.5,235.5C 193.234,232.769 196.234,229.436 198.5,225.5C 202.566,222.437 205.899,218.771 208.5,214.5C 212.566,211.437 215.899,207.771 218.5,203.5C 222.234,200.769 225.234,197.436 227.5,193.5C 227.5,192.833 227.833,192.5 228.5,192.5C 232.234,189.769 235.234,186.436 237.5,182.5C 241.566,179.437 244.899,175.771 247.5,171.5C 251.234,168.769 254.234,165.436 256.5,161.5C 256.5,160.833 256.833,160.5 257.5,160.5C 261.234,157.769 264.234,154.436 266.5,150.5C 270.566,147.437 273.899,143.771 276.5,139.5C 280.566,136.437 283.899,132.771 286.5,128.5C 290.234,125.769 293.234,122.436 295.5,118.5C 295.5,117.833 295.833,117.5 296.5,117.5C 300.234,114.769 303.234,111.436 305.5,107.5C 309.566,104.437 312.899,100.771 315.5,96.5C 319.234,93.7689 322.234,90.4356 324.5,86.5C 324.5,85.8333 324.833,85.5 325.5,85.5C 329.234,82.7689 332.234,79.4356 334.5,75.5C 338.566,72.4372 341.899,68.7706 344.5,64.5C 348.566,61.4372 351.899,57.7706 354.5,53.5C 358.234,50.7689 361.234,47.4356 363.5,43.5C 367.566,40.4372 370.899,36.7706 373.5,32.5C 380.007,26.331 387.673,23.9977 396.5,25.5C 397.937,22.2843 399.604,19.2843 401.5,16.5C 416.786,1.24003 434.786,-3.09331 455.5,3.5 Z M 436.5,35.5 C 437.167,35.5 437.833,35.5 438.5,35.5C 440.649,36.7362 442.982,37.7362 445.5,38.5C 449.497,42.665 453.33,46.9983 457,51.5C 458.719,55.2101 458.552,58.8768 456.5,62.5C 453.193,65.7165 449.193,67.3832 444.5,67.5C 443.791,66.596 442.791,66.2627 441.5,66.5C 441.027,65.0937 440.027,64.427 438.5,64.5C 435.204,60.7024 431.704,57.0357 428,53.5C 424.652,44.5317 427.485,38.5317 436.5,35.5 Z M 393.5,71.5 C 396.231,75.2343 399.564,78.2343 403.5,80.5C 403.5,81.1667 403.833,81.5 404.5,81.5C 407.231,85.2343 410.564,88.2343 414.5,90.5C 417.563,94.5658 421.229,97.8991 425.5,100.5C 426.81,102.148 428.143,103.814 429.5,105.5C 427.722,107.264 426.389,109.264 425.5,111.5C 421.766,114.231 418.766,117.564 416.5,121.5C 415.833,121.5 415.5,121.833 415.5,122.5C 411.766,125.231 408.766,128.564 406.5,132.5C 402.434,135.563 399.101,139.229 396.5,143.5C 392.766,146.231 389.766,149.564 387.5,153.5C 383.434,156.563 380.101,160.229 377.5,164.5C 373.766,167.231 370.766,170.564 368.5,174.5C 367.833,174.5 367.5,174.833 367.5,175.5C 363.766,178.231 360.766,181.564 358.5,185.5C 354.434,188.563 351.101,192.229 348.5,196.5C 344.766,199.231 341.766,202.564 339.5,206.5C 338.833,206.5 338.5,206.833 338.5,207.5C 334.766,210.231 331.766,213.564 329.5,217.5C 325.434,220.563 322.101,224.229 319.5,228.5C 315.766,231.231 312.766,234.564 310.5,238.5C 306.434,241.563 303.101,245.229 300.5,249.5C 296.766,252.231 293.766,255.564 291.5,259.5C 290.833,259.5 290.5,259.833 290.5,260.5C 286.766,263.231 283.766,266.564 281.5,270.5C 277.434,273.563 274.101,277.229 271.5,281.5C 267.766,284.231 264.766,287.564 262.5,291.5C 261.833,291.5 261.5,291.833 261.5,292.5C 258.408,295.605 255.075,298.271 251.5,300.5C 247.838,300.723 244.505,301.723 241.5,303.5C 236.835,304.057 232.502,305.39 228.5,307.5C 224.838,307.723 221.505,308.723 218.5,310.5C 214.838,310.723 211.505,311.723 208.5,313.5C 207.167,313.5 205.833,313.5 204.5,313.5C 206.425,303.541 208.092,293.541 209.5,283.5C 211.451,277.077 212.785,270.411 213.5,263.5C 215.218,261.777 216.551,259.777 217.5,257.5C 218.167,257.5 218.5,257.167 218.5,256.5C 222.234,253.769 225.234,250.436 227.5,246.5C 231.566,243.437 234.899,239.771 237.5,235.5C 241.234,232.769 244.234,229.436 246.5,225.5C 247.167,225.5 247.5,225.167 247.5,224.5C 251.234,221.769 254.234,218.436 256.5,214.5C 260.566,211.437 263.899,207.771 266.5,203.5C 270.234,200.769 273.234,197.436 275.5,193.5C 276.167,193.5 276.5,193.167 276.5,192.5C 280.234,189.769 283.234,186.436 285.5,182.5C 289.566,179.437 292.899,175.771 295.5,171.5C 299.234,168.769 302.234,165.436 304.5,161.5C 305.167,161.5 305.5,161.167 305.5,160.5C 309.234,157.769 312.234,154.436 314.5,150.5C 318.566,147.437 321.899,143.771 324.5,139.5C 328.234,136.769 331.234,133.436 333.5,129.5C 334.167,129.5 334.5,129.167 334.5,128.5C 338.234,125.769 341.234,122.436 343.5,118.5C 347.566,115.437 350.899,111.771 353.5,107.5C 357.234,104.769 360.234,101.436 362.5,97.5C 363.167,97.5 363.5,97.1667 363.5,96.5C 367.234,93.7689 370.234,90.4356 372.5,86.5C 376.566,83.4372 379.899,79.7706 382.5,75.5C 384.814,73.5227 387.147,71.5227 389.5,69.5C 390.622,70.6302 391.956,71.2969 393.5,71.5 Z"/></g>
<g><path style="opacity:0.527" fill="#fe5656" d="M 455.5,3.5 C 460.869,4.54624 465.203,7.21291 468.5,11.5C 464.162,8.82559 459.828,6.15893 455.5,3.5 Z"/></g>
<g><path style="opacity:0.616" fill="#fe5656" d="M 468.5,11.5 C 472.1,13.4302 475.1,16.0969 477.5,19.5C 473.9,17.5698 470.9,14.9031 468.5,11.5 Z"/></g>
<g><path style="opacity:0.608" fill="#ff554f" d="M 477.5,19.5 C 480.167,20.1667 481.833,21.8333 482.5,24.5C 480.5,23.1667 478.833,21.5 477.5,19.5 Z"/></g>
<g><path style="opacity:0.451" fill="#fe5453" d="M 401.5,16.5 C 399.604,19.2843 397.937,22.2843 396.5,25.5C 387.673,23.9977 380.007,26.331 373.5,32.5C 376.67,27.1578 381.504,24.4912 388,24.5C 390.042,24.6155 392.042,24.9488 394,25.5C 396.034,22.0918 398.534,19.0918 401.5,16.5 Z"/></g>
<g><path style="opacity:0.517" fill="#fe5756" d="M 482.5,24.5 C 486.787,27.7972 489.454,32.1305 490.5,37.5C 487.841,33.1717 485.174,28.8383 482.5,24.5 Z"/></g>
<g><path style="opacity:0.579" fill="#fe5353" d="M 373.5,32.5 C 370.899,36.7706 367.566,40.4372 363.5,43.5C 366.101,39.2294 369.434,35.5628 373.5,32.5 Z"/></g>
<g><path style="opacity:0.445" fill="#fe504e" d="M 438.5,35.5 C 441.491,35.1663 443.824,36.1663 445.5,38.5C 442.982,37.7362 440.649,36.7362 438.5,35.5 Z"/></g>
<g><path style="opacity:0.637" fill="#fe5857" d="M 363.5,43.5 C 361.234,47.4356 358.234,50.7689 354.5,53.5C 356.766,49.5644 359.766,46.2311 363.5,43.5 Z"/></g>
<g><path style="opacity:0.479" fill="#fe5655" d="M 490.5,37.5 C 493.535,43.1658 494.869,49.3325 494.5,56C 494.885,61.5626 493.885,66.7292 491.5,71.5C 494.36,60.0694 494.027,48.736 490.5,37.5 Z"/></g>
<g><path style="opacity:0.579" fill="#fe5756" d="M 436.5,35.5 C 427.485,38.5317 424.652,44.5317 428,53.5C 431.704,57.0357 435.204,60.7024 438.5,64.5C 434.263,61.7719 430.429,58.4385 427,54.5C 422.798,44.2355 425.965,37.9021 436.5,35.5 Z"/></g>
<g><path style="opacity:0.637" fill="#fe5554" d="M 354.5,53.5 C 351.899,57.7706 348.566,61.4372 344.5,64.5C 347.101,60.2294 350.434,56.5628 354.5,53.5 Z"/></g>
<g><path style="opacity:0.94" fill="#fe5554" d="M 445.5,38.5 C 452.578,42.4109 457.245,48.2443 459.5,56C 459.343,58.6746 458.343,60.8413 456.5,62.5C 458.552,58.8768 458.719,55.2101 457,51.5C 453.33,46.9983 449.497,42.665 445.5,38.5 Z"/></g>
<g><path style="opacity:0.49" fill="#fe5656" d="M 438.5,64.5 C 440.027,64.427 441.027,65.0937 441.5,66.5C 439.973,66.573 438.973,65.9063 438.5,64.5 Z"/></g>
<g><path style="opacity:0.596" fill="#fe5555" d="M 456.5,62.5 C 456.084,64.7525 454.751,66.2525 452.5,67C 449.735,68.4764 447.068,68.6431 444.5,67.5C 449.193,67.3832 453.193,65.7165 456.5,62.5 Z"/></g>
<g><path style="opacity:0.44" fill="#fe5351" d="M 344.5,64.5 C 341.899,68.7706 338.566,72.4372 334.5,75.5C 337.101,71.2294 340.434,67.5628 344.5,64.5 Z"/></g>
<g><path style="opacity:0.65" fill="#fe5454" d="M 393.5,71.5 C 391.956,71.2969 390.622,70.6302 389.5,69.5C 387.147,71.5227 384.814,73.5227 382.5,75.5C 384.071,72.2559 386.405,69.5892 389.5,67.5C 391.188,68.5213 392.521,69.8546 393.5,71.5 Z"/></g>
<g><path style="opacity:1" fill="#fffdfd" d="M 237.5,72.5 C 240.762,74.4203 243.762,76.7537 246.5,79.5C 246.66,81.153 247.326,82.4863 248.5,83.5C 248.647,88.2142 248.314,92.8809 247.5,97.5C 246.094,97.9731 245.427,98.9731 245.5,100.5C 244.5,100.833 243.833,101.5 243.5,102.5C 241.002,103.912 238.336,105.079 235.5,106C 176.5,106.333 117.5,106.667 58.5,107C 55.4006,107.387 52.734,108.554 50.5,110.5C 48.9731,110.427 47.9731,111.094 47.5,112.5C 43.4351,114.233 40.7684,117.233 39.5,121.5C 39.6716,122.492 39.3382,123.158 38.5,123.5C 37.207,124.842 36.3736,126.509 36,128.5C 35.3333,232.833 35.3333,337.167 36,441.5C 36.891,446.288 39.0577,450.288 42.5,453.5C 42.5,455.5 43.5,456.5 45.5,456.5C 46.2623,458.262 47.5956,459.262 49.5,459.5C 50.287,461.104 51.6203,461.771 53.5,461.5C 56.4869,461.998 59.4869,462.498 62.5,463C 163.499,463.5 264.499,463.667 365.5,463.5C 374.703,463.735 381.703,460.068 386.5,452.5C 389.112,450.948 390.445,448.614 390.5,445.5C 391.268,444.737 391.768,443.737 392,442.5C 392.186,382.149 392.686,321.816 393.5,261.5C 395.488,258.872 397.488,256.205 399.5,253.5C 404.198,251.119 409.198,250.119 414.5,250.5C 415.791,250.263 416.791,250.596 417.5,251.5C 422.345,254.525 425.512,258.858 427,264.5C 427.667,323.833 427.667,383.167 427,442.5C 425.309,454.202 421.143,464.869 414.5,474.5C 410.5,477.833 406.833,481.5 403.5,485.5C 401.596,485.738 400.262,486.738 399.5,488.5C 397.326,488.75 395.659,489.75 394.5,491.5C 393.486,492.674 392.153,493.34 390.5,493.5C 388.447,493.402 386.78,494.069 385.5,495.5C 383.485,496.924 381.152,497.59 378.5,497.5C 270.848,498.654 163.181,498.821 55.5,498C 46.6973,496.455 38.364,493.622 30.5,489.5C 24.8959,485.235 19.5626,480.568 14.5,475.5C 14.2624,473.596 13.2624,472.262 11.5,471.5C 5.71262,461.637 2.21262,450.97 1,439.5C 0.500002,336.501 0.333335,233.501 0.5,130.5C 1.61667,126.705 2.28333,122.705 2.5,118.5C 3.73838,116.786 4.40505,114.786 4.5,112.5C 7.49654,107.175 10.4965,101.841 13.5,96.5C 17.8333,92.8333 21.8333,88.8333 25.5,84.5C 27.8525,83.6597 29.8525,82.3264 31.5,80.5C 36.022,78.7365 40.3554,76.7365 44.5,74.5C 47.4282,74.4349 50.0948,73.7682 52.5,72.5C 114.167,71.1667 175.833,71.1667 237.5,72.5 Z"/></g>
<g><path style="opacity:0.565" fill="#fe5656" d="M 52.5,72.5 C 50.0948,73.7682 47.4282,74.4349 44.5,74.5C 46.8383,72.9605 49.5049,72.2938 52.5,72.5 Z"/></g>
<g><path style="opacity:0.571" fill="#fe5453" d="M 491.5,71.5 C 490.454,76.596 488.121,80.9293 484.5,84.5C 486.583,79.9996 488.916,75.6662 491.5,71.5 Z"/></g>
<g><path style="opacity:0.569" fill="#fe5555" d="M 393.5,71.5 C 397.436,73.7657 400.769,76.7657 403.5,80.5C 399.564,78.2343 396.231,75.2343 393.5,71.5 Z"/></g>
<g><path style="opacity:0.524" fill="#fe5251" d="M 237.5,72.5 C 241.975,72.9787 244.975,75.312 246.5,79.5C 243.762,76.7537 240.762,74.4203 237.5,72.5 Z"/></g>
<g><path style="opacity:0.612" fill="#fe5656" d="M 44.5,74.5 C 40.3554,76.7365 36.022,78.7365 31.5,80.5C 35.1443,77.1802 39.4776,75.1802 44.5,74.5 Z"/></g>
<g><path style="opacity:0.914" fill="#fe5656" d="M 334.5,75.5 C 332.234,79.4356 329.234,82.7689 325.5,85.5C 327.766,81.5644 330.766,78.2311 334.5,75.5 Z"/></g>
<g><path style="opacity:0.624" fill="#fe5757" d="M 246.5,79.5 C 248.104,80.287 248.771,81.6203 248.5,83.5C 247.326,82.4863 246.66,81.153 246.5,79.5 Z"/></g>
<g><path style="opacity:0.566" fill="#fe5757" d="M 31.5,80.5 C 29.8525,82.3264 27.8525,83.6597 25.5,84.5C 26.8021,82.1782 28.8021,80.8449 31.5,80.5 Z"/></g>
<g><path style="opacity:0.712" fill="#fe5453" d="M 382.5,75.5 C 379.899,79.7706 376.566,83.4372 372.5,86.5C 375.101,82.2294 378.434,78.5628 382.5,75.5 Z"/></g>
<g><path style="opacity:0.74" fill="#fe5656" d="M 248.5,83.5 C 249.162,85.3035 249.495,87.3035 249.5,89.5C 249.713,92.5267 249.047,95.1934 247.5,97.5C 248.314,92.8809 248.647,88.2142 248.5,83.5 Z"/></g>
<g><path style="opacity:0.461" fill="#fe5351" d="M 404.5,81.5 C 408.436,83.7657 411.769,86.7657 414.5,90.5C 410.564,88.2343 407.231,85.2343 404.5,81.5 Z"/></g>
<g><path style="opacity:0.566" fill="#fe5353" d="M 324.5,86.5 C 322.234,90.4356 319.234,93.7689 315.5,96.5C 317.766,92.5644 320.766,89.2311 324.5,86.5 Z"/></g>
<g><path style="opacity:0.661" fill="#fe5656" d="M 25.5,84.5 C 21.8333,88.8333 17.8333,92.8333 13.5,96.5C 16.5,91.5 20.5,87.5 25.5,84.5 Z"/></g>
<g><path style="opacity:0.601" fill="#fe5857" d="M 372.5,86.5 C 370.234,90.4356 367.234,93.7689 363.5,96.5C 365.766,92.5644 368.766,89.2311 372.5,86.5 Z"/></g>
<g><path style="opacity:0.622" fill="#fe5554" d="M 414.5,90.5 C 418.771,93.1009 422.437,96.4342 425.5,100.5C 421.229,97.8991 417.563,94.5658 414.5,90.5 Z"/></g>
<g><path style="opacity:0.11" fill="#fe5858" d="M 247.5,97.5 C 247.573,99.0269 246.906,100.027 245.5,100.5C 245.427,98.9731 246.094,97.9731 247.5,97.5 Z"/></g>
<g><path style="opacity:0.584" fill="#fe5352" d="M 315.5,96.5 C 312.899,100.771 309.566,104.437 305.5,107.5C 308.101,103.229 311.434,99.5628 315.5,96.5 Z"/></g>
<g><path style="opacity:0.004" fill="#ff3a31" d="M 245.5,100.5 C 245.5,101.833 244.833,102.5 243.5,102.5C 243.833,101.5 244.5,100.833 245.5,100.5 Z"/></g>
<g><path style="opacity:0.647" fill="#fe5353" d="M 425.5,100.5 C 428.069,101.396 430.069,103.062 431.5,105.5C 429.812,107.854 427.812,109.854 425.5,111.5C 426.389,109.264 427.722,107.264 429.5,105.5C 428.143,103.814 426.81,102.148 425.5,100.5 Z"/></g>
<g><path style="opacity:0.582" fill="#fe5857" d="M 13.5,96.5 C 10.4965,101.841 7.49654,107.175 4.5,112.5C 5.96513,106.23 8.96513,100.896 13.5,96.5 Z"/></g>
<g><path style="opacity:0.643" fill="#fe5555" d="M 362.5,97.5 C 360.234,101.436 357.234,104.769 353.5,107.5C 355.766,103.564 358.766,100.231 362.5,97.5 Z"/></g>
<g><path style="opacity:0.192" fill="#fe5453" d="M 484.5,84.5 C 481.543,89.4574 477.543,93.4574 472.5,96.5C 474.464,100.186 474.797,103.853 473.5,107.5C 473.589,103.7 472.922,100.034 471.5,96.5C 475.802,92.5345 480.135,88.5345 484.5,84.5 Z"/></g>
<g><path style="opacity:0.535" fill="#fe5555" d="M 243.5,102.5 C 241.88,104.984 239.547,106.484 236.5,107C 177.5,107.333 118.5,107.667 59.5,108C 56.4786,108.849 53.4786,109.683 50.5,110.5C 52.734,108.554 55.4006,107.387 58.5,107C 117.5,106.667 176.5,106.333 235.5,106C 238.336,105.079 241.002,103.912 243.5,102.5 Z"/></g>
<g><path style="opacity:0.051" fill="#fe5252" d="M 50.5,110.5 C 50.0269,111.906 49.0269,112.573 47.5,112.5C 47.9731,111.094 48.9731,110.427 50.5,110.5 Z"/></g>
<g><path style="opacity:0.647" fill="#fe5656" d="M 305.5,107.5 C 303.234,111.436 300.234,114.769 296.5,117.5C 298.766,113.564 301.766,110.231 305.5,107.5 Z"/></g>
<g><path style="opacity:0.434" fill="#fe5656" d="M 4.5,112.5 C 4.40505,114.786 3.73838,116.786 2.5,118.5C 2.25939,116.102 2.92606,114.102 4.5,112.5 Z"/></g>
<g><path style="opacity:0.546" fill="#fe5656" d="M 47.5,112.5 C 44.8046,115.526 42.1379,118.526 39.5,121.5C 40.7684,117.233 43.4351,114.233 47.5,112.5 Z"/></g>
<g><path style="opacity:0.711" fill="#fe5554" d="M 353.5,107.5 C 350.899,111.771 347.566,115.437 343.5,118.5C 346.101,114.229 349.434,110.563 353.5,107.5 Z"/></g>
<g><path style="opacity:0.56" fill="#fe5757" d="M 425.5,111.5 C 423.234,115.436 420.234,118.769 416.5,121.5C 418.766,117.564 421.766,114.231 425.5,111.5 Z"/></g>
<g><path style="opacity:0.729" fill="#fe5656" d="M 473.5,107.5 C 473.124,113.253 470.458,117.586 465.5,120.5C 468.935,116.628 471.602,112.294 473.5,107.5 Z"/></g>
<g><path style="opacity:0.618" fill="#fe5756" d="M 295.5,118.5 C 293.234,122.436 290.234,125.769 286.5,128.5C 288.766,124.564 291.766,121.231 295.5,118.5 Z"/></g>
<g><path style="opacity:0.607" fill="#fe5554" d="M 415.5,122.5 C 413.234,126.436 410.234,129.769 406.5,132.5C 408.766,128.564 411.766,125.231 415.5,122.5 Z"/></g>
<g><path style="opacity:0.712" fill="#fe5656" d="M 2.5,118.5 C 2.28333,122.705 1.61667,126.705 0.5,130.5C 0.197669,126.21 0.864335,122.21 2.5,118.5 Z"/></g>
<g><path style="opacity:0.271" fill="#fe5757" d="M 343.5,118.5 C 341.234,122.436 338.234,125.769 334.5,128.5C 336.766,124.564 339.766,121.231 343.5,118.5 Z"/></g>
<g><path style="opacity:0.639" fill="#fe5656" d="M 464.5,121.5 C 462.234,125.436 459.234,128.769 455.5,131.5C 457.766,127.564 460.766,124.231 464.5,121.5 Z"/></g>
<g><path style="opacity:0.393" fill="#fe5656" d="M 38.5,123.5 C 38.313,125.564 37.813,127.564 37,129.5C 36.3333,233.167 36.3333,336.833 37,440.5C 38.3062,445.106 40.1395,449.439 42.5,453.5C 39.0577,450.288 36.891,446.288 36,441.5C 35.3333,337.167 35.3333,232.833 36,128.5C 36.3736,126.509 37.207,124.842 38.5,123.5 Z"/></g>
<g><path style="opacity:0.58" fill="#fe5352" d="M 455.5,131.5 C 452.899,135.771 449.566,139.437 445.5,142.5C 448.101,138.229 451.434,134.563 455.5,131.5 Z"/></g>
<g><path style="opacity:0.2" fill="#fe5454" d="M -0.5,130.5 C -0.166667,130.5 0.166667,130.5 0.5,130.5C 0.333335,233.501 0.500002,336.501 1,439.5C 2.21262,450.97 5.71262,461.637 11.5,471.5C 8.61089,468.744 6.44422,465.411 5,461.5C 2.35169,454.567 0.518359,447.567 -0.5,440.5C -0.5,337.167 -0.5,233.833 -0.5,130.5 Z"/></g>
<g><path style="opacity:0.773" fill="#fe5453" d="M 286.5,128.5 C 283.899,132.771 280.566,136.437 276.5,139.5C 279.101,135.229 282.434,131.563 286.5,128.5 Z"/></g>
<g><path style="opacity:0.699" fill="#fe5656" d="M 333.5,129.5 C 331.234,133.436 328.234,136.769 324.5,139.5C 326.766,135.564 329.766,132.231 333.5,129.5 Z"/></g>
<g><path style="opacity:0.424" fill="#fe5251" d="M 406.5,132.5 C 403.899,136.771 400.566,140.437 396.5,143.5C 399.101,139.229 402.434,135.563 406.5,132.5 Z"/></g>
<g><path style="opacity:0.639" fill="#fe5554" d="M 324.5,139.5 C 321.899,143.771 318.566,147.437 314.5,150.5C 317.101,146.229 320.434,142.563 324.5,139.5 Z"/></g>
<g><path style="opacity:0.425" fill="#fe5251" d="M 276.5,139.5 C 273.899,143.771 270.566,147.437 266.5,150.5C 269.101,146.229 272.434,142.563 276.5,139.5 Z"/></g>
<g><path style="opacity:0.596" fill="#fe5756" d="M 445.5,142.5 C 443.234,146.436 440.234,149.769 436.5,152.5C 438.766,148.564 441.766,145.231 445.5,142.5 Z"/></g>
<g><path style="opacity:0.579" fill="#fe5757" d="M 396.5,143.5 C 394.234,147.436 391.234,150.769 387.5,153.5C 389.766,149.564 392.766,146.231 396.5,143.5 Z"/></g>
<g><path style="opacity:0.556" fill="#fe5858" d="M 266.5,150.5 C 264.234,154.436 261.234,157.769 257.5,160.5C 259.766,156.564 262.766,153.231 266.5,150.5 Z"/></g>
<g><path style="opacity:0.585" fill="#fe5555" d="M 435.5,153.5 C 433.234,157.436 430.234,160.769 426.5,163.5C 428.766,159.564 431.766,156.231 435.5,153.5 Z"/></g>
<g><path style="opacity:0.271" fill="#fe5757" d="M 314.5,150.5 C 312.234,154.436 309.234,157.769 305.5,160.5C 307.766,156.564 310.766,153.231 314.5,150.5 Z"/></g>
<g><path style="opacity:0.505" fill="#fe5554" d="M 387.5,153.5 C 384.899,157.771 381.566,161.437 377.5,164.5C 380.101,160.229 383.434,156.563 387.5,153.5 Z"/></g>
<g><path style="opacity:0.594" fill="#fe5554" d="M 256.5,161.5 C 254.234,165.436 251.234,168.769 247.5,171.5C 249.766,167.564 252.766,164.231 256.5,161.5 Z"/></g>
<g><path style="opacity:0.584" fill="#fe5656" d="M 304.5,161.5 C 302.234,165.436 299.234,168.769 295.5,171.5C 297.766,167.564 300.766,164.231 304.5,161.5 Z"/></g>
<g><path style="opacity:0.771" fill="#fe5656" d="M 377.5,164.5 C 375.234,168.436 372.234,171.769 368.5,174.5C 370.766,170.564 373.766,167.231 377.5,164.5 Z"/></g>
<g><path style="opacity:0.65" fill="#fe5454" d="M 426.5,163.5 C 423.899,167.771 420.566,171.437 416.5,174.5C 419.101,170.229 422.434,166.563 426.5,163.5 Z"/></g>
<g><path style="opacity:0.479" fill="#fe5352" d="M 247.5,171.5 C 244.899,175.771 241.566,179.437 237.5,182.5C 240.101,178.229 243.434,174.563 247.5,171.5 Z"/></g>
<g><path style="opacity:0.591" fill="#fe5453" d="M 367.5,175.5 C 365.234,179.436 362.234,182.769 358.5,185.5C 360.766,181.564 363.766,178.231 367.5,175.5 Z"/></g>
<g><path style="opacity:0.711" fill="#fe5554" d="M 295.5,171.5 C 292.899,175.771 289.566,179.437 285.5,182.5C 288.101,178.229 291.434,174.563 295.5,171.5 Z"/></g>
<g><path style="opacity:0.64" fill="#fe5858" d="M 416.5,174.5 C 413.899,178.771 410.566,182.437 406.5,185.5C 409.101,181.229 412.434,177.563 416.5,174.5 Z"/></g>
<g><path style="opacity:0.639" fill="#fe5858" d="M 237.5,182.5 C 235.234,186.436 232.234,189.769 228.5,192.5C 230.766,188.564 233.766,185.231 237.5,182.5 Z"/></g>
<g><path style="opacity:0.569" fill="#fe5656" d="M 406.5,185.5 C 404.234,189.436 401.234,192.769 397.5,195.5C 399.766,191.564 402.766,188.231 406.5,185.5 Z"/></g>
<g><path style="opacity:0.767" fill="#fe5756" d="M 285.5,182.5 C 283.234,186.436 280.234,189.769 276.5,192.5C 278.766,188.564 281.766,185.231 285.5,182.5 Z"/></g>
<g><path style="opacity:0.46" fill="#fe5352" d="M 358.5,185.5 C 355.899,189.771 352.566,193.437 348.5,196.5C 351.101,192.229 354.434,188.563 358.5,185.5 Z"/></g>
<g><path style="opacity:0.591" fill="#fe5554" d="M 227.5,193.5 C 225.234,197.436 222.234,200.769 218.5,203.5C 220.766,199.564 223.766,196.231 227.5,193.5 Z"/></g>
<g><path style="opacity:0.584" fill="#fe5656" d="M 275.5,193.5 C 273.234,197.436 270.234,200.769 266.5,203.5C 268.766,199.564 271.766,196.231 275.5,193.5 Z"/></g>
<g><path style="opacity:0.558" fill="#fe5857" d="M 348.5,196.5 C 346.234,200.436 343.234,203.769 339.5,206.5C 341.766,202.564 344.766,199.231 348.5,196.5 Z"/></g>
<g><path style="opacity:0.699" fill="#fe5656" d="M 396.5,196.5 C 394.234,200.436 391.234,203.769 387.5,206.5C 389.766,202.564 392.766,199.231 396.5,196.5 Z"/></g>
<g><path style="opacity:0.641" fill="#fe5554" d="M 338.5,207.5 C 336.234,211.436 333.234,214.769 329.5,217.5C 331.766,213.564 334.766,210.231 338.5,207.5 Z"/></g>
<g><path style="opacity:0.505" fill="#fe5554" d="M 218.5,203.5 C 215.899,207.771 212.566,211.437 208.5,214.5C 211.101,210.229 214.434,206.563 218.5,203.5 Z"/></g>
<g><path style="opacity:0.711" fill="#fe5554" d="M 266.5,203.5 C 263.899,207.771 260.566,211.437 256.5,214.5C 259.101,210.229 262.434,206.563 266.5,203.5 Z"/></g>
<g><path style="opacity:0.709" fill="#fe5554" d="M 387.5,206.5 C 384.899,210.771 381.566,214.437 377.5,217.5C 380.101,213.229 383.434,209.563 387.5,206.5 Z"/></g>
<g><path style="opacity:0.09" fill="#fe5757" d="M 256.5,214.5 C 254.234,218.436 251.234,221.769 247.5,224.5C 249.766,220.564 252.766,217.231 256.5,214.5 Z"/></g>
<g><path style="opacity:0.423" fill="#fe5251" d="M 208.5,214.5 C 205.899,218.771 202.566,222.437 198.5,225.5C 201.101,221.229 204.434,217.563 208.5,214.5 Z"/></g>
<g><path style="opacity:0.424" fill="#fe5251" d="M 329.5,217.5 C 326.899,221.771 323.566,225.437 319.5,228.5C 322.101,224.229 325.434,220.563 329.5,217.5 Z"/></g>
<g><path style="opacity:0.729" fill="#fe5756" d="M 377.5,217.5 C 375.234,221.436 372.234,224.769 368.5,227.5C 370.766,223.564 373.766,220.231 377.5,217.5 Z"/></g>
<g><path style="opacity:0.639" fill="#fe5656" d="M 246.5,225.5 C 244.234,229.436 241.234,232.769 237.5,235.5C 239.766,231.564 242.766,228.231 246.5,225.5 Z"/></g>
<g><path style="opacity:0.579" fill="#fe5757" d="M 198.5,225.5 C 196.234,229.436 193.234,232.769 189.5,235.5C 191.766,231.564 194.766,228.231 198.5,225.5 Z"/></g>
<g><path style="opacity:0.635" fill="#fe5656" d="M 367.5,228.5 C 365.234,232.436 362.234,235.769 358.5,238.5C 360.766,234.564 363.766,231.231 367.5,228.5 Z"/></g>
<g><path style="opacity:0.579" fill="#fe5757" d="M 319.5,228.5 C 317.234,232.436 314.234,235.769 310.5,238.5C 312.766,234.564 315.766,231.231 319.5,228.5 Z"/></g>
<g><path style="opacity:0.577" fill="#fe5352" d="M 358.5,238.5 C 355.899,242.771 352.566,246.437 348.5,249.5C 351.101,245.229 354.434,241.563 358.5,238.5 Z"/></g>
<g><path style="opacity:0.707" fill="#fe5554" d="M 237.5,235.5 C 234.899,239.771 231.566,243.437 227.5,246.5C 230.101,242.229 233.434,238.563 237.5,235.5 Z"/></g>
<g><path style="opacity:0.506" fill="#fe5453" d="M 310.5,238.5 C 307.899,242.771 304.566,246.437 300.5,249.5C 303.101,245.229 306.434,241.563 310.5,238.5 Z"/></g>
<g><path style="opacity:0.501" fill="#fe5656" d="M 414.5,250.5 C 409.198,250.119 404.198,251.119 399.5,253.5C 400.975,251.59 402.975,250.424 405.5,250C 408.696,249.195 411.696,249.362 414.5,250.5 Z"/></g>
<g><path style="opacity:0.729" fill="#fe5756" d="M 227.5,246.5 C 225.234,250.436 222.234,253.769 218.5,256.5C 220.766,252.564 223.766,249.231 227.5,246.5 Z"/></g>
<g><path style="opacity:0.617" fill="#fe5757" d="M 348.5,249.5 C 345.899,253.771 342.566,257.437 338.5,260.5C 341.101,256.229 344.434,252.563 348.5,249.5 Z"/></g>
<g><path style="opacity:0.757" fill="#fe5757" d="M 300.5,249.5 C 298.234,253.436 295.234,256.769 291.5,259.5C 293.766,255.564 296.766,252.231 300.5,249.5 Z"/></g>
<g><path style="opacity:0.619" fill="#fe5d5d" d="M 399.5,253.5 C 397.488,256.205 395.488,258.872 393.5,261.5C 394.063,257.689 396.063,255.023 399.5,253.5 Z"/></g>
<g><path style="opacity:0.067" fill="#fe5858" d="M 217.5,257.5 C 216.551,259.777 215.218,261.777 213.5,263.5C 213.622,260.708 214.956,258.708 217.5,257.5 Z"/></g>
<g><path style="opacity:0.591" fill="#fe5554" d="M 290.5,260.5 C 288.234,264.436 285.234,267.769 281.5,270.5C 283.766,266.564 286.766,263.231 290.5,260.5 Z"/></g>
<g><path style="opacity:0.584" fill="#fe5555" d="M 338.5,260.5 C 336.234,264.436 333.234,267.769 329.5,270.5C 331.766,266.564 334.766,263.231 338.5,260.5 Z"/></g>
<g><path style="opacity:0.467" fill="#fe5656" d="M 417.5,251.5 C 423.255,253.428 426.755,257.428 428,263.5C 428.667,323.5 428.667,383.5 428,443.5C 426.726,455.368 422.226,465.701 414.5,474.5C 421.143,464.869 425.309,454.202 427,442.5C 427.667,383.167 427.667,323.833 427,264.5C 425.512,258.858 422.345,254.525 417.5,251.5 Z"/></g>
<g><path style="opacity:0.122" fill="#fe5959" d="M 393.5,261.5 C 392.686,321.816 392.186,382.149 392,442.5C 391.768,443.737 391.268,444.737 390.5,445.5C 391.318,385.522 391.818,325.522 392,265.5C 392.21,263.942 392.71,262.609 393.5,261.5 Z"/></g>
<g><path style="opacity:0.461" fill="#fe5352" d="M 281.5,270.5 C 278.899,274.771 275.566,278.437 271.5,281.5C 274.101,277.229 277.434,273.563 281.5,270.5 Z"/></g>
<g><path style="opacity:0.65" fill="#fe5555" d="M 328.5,271.5 C 326.234,275.436 323.234,278.769 319.5,281.5C 321.766,277.564 324.766,274.231 328.5,271.5 Z"/></g>
<g><path style="opacity:0.533" fill="#fe5656" d="M 188.5,236.5 C 186.577,239.603 184.41,242.603 182,245.5C 175.053,277.067 168.553,308.733 162.5,340.5C 163.172,343.512 163.839,346.512 164.5,349.5C 161.802,345.637 160.969,341.304 162,336.5C 167.951,305.746 174.284,275.079 181,244.5C 183,241.334 185.5,238.668 188.5,236.5 Z"/></g>
<g><path style="opacity:0.634" fill="#fe5858" d="M 271.5,281.5 C 269.234,285.436 266.234,288.769 262.5,291.5C 264.766,287.564 267.766,284.231 271.5,281.5 Z"/></g>
<g><path style="opacity:0.64" fill="#fe5554" d="M 319.5,281.5 C 316.899,285.771 313.566,289.437 309.5,292.5C 312.101,288.229 315.434,284.563 319.5,281.5 Z"/></g>
<g><path style="opacity:0.729" fill="#fe504d" d="M 209.5,283.5 C 208.092,293.541 206.425,303.541 204.5,313.5C 205.833,313.5 207.167,313.5 208.5,313.5C 206.692,315.105 204.692,315.439 202.5,314.5C 204.726,304.02 207.06,293.687 209.5,283.5 Z"/></g>
<g><path style="opacity:0.594" fill="#fe5656" d="M 261.5,292.5 C 259.617,297.057 256.283,299.723 251.5,300.5C 255.075,298.271 258.408,295.605 261.5,292.5 Z"/></g>
<g><path style="opacity:0.767" fill="#fe5757" d="M 309.5,292.5 C 307.234,296.436 304.234,299.769 300.5,302.5C 302.766,298.564 305.766,295.231 309.5,292.5 Z"/></g>
<g><path style="opacity:0.552" fill="#fe5656" d="M 251.5,300.5 C 248.495,302.277 245.162,303.277 241.5,303.5C 244.505,301.723 247.838,300.723 251.5,300.5 Z"/></g>
<g><path style="opacity:0.632" fill="#fe5757" d="M 241.5,303.5 C 237.498,305.61 233.165,306.943 228.5,307.5C 232.502,305.39 236.835,304.057 241.5,303.5 Z"/></g>
<g><path style="opacity:0.584" fill="#fe5656" d="M 299.5,303.5 C 297.234,307.436 294.234,310.769 290.5,313.5C 292.766,309.564 295.766,306.231 299.5,303.5 Z"/></g>
<g><path style="opacity:0.552" fill="#fe5656" d="M 228.5,307.5 C 225.495,309.277 222.162,310.277 218.5,310.5C 221.505,308.723 224.838,307.723 228.5,307.5 Z"/></g>
<g><path style="opacity:0.638" fill="#fe5757" d="M 218.5,310.5 C 215.495,312.277 212.162,313.277 208.5,313.5C 211.505,311.723 214.838,310.723 218.5,310.5 Z"/></g>
<g><path style="opacity:0.709" fill="#fe5554" d="M 290.5,313.5 C 287.899,317.771 284.566,321.437 280.5,324.5C 283.101,320.229 286.434,316.563 290.5,313.5 Z"/></g>
<g><path style="opacity:0.659" fill="#fe5b5a" d="M 280.5,324.5 C 278.837,328.504 275.837,330.837 271.5,331.5C 274.642,329.42 277.642,327.086 280.5,324.5 Z"/></g>
<g><path style="opacity:0.541" fill="#fe5555" d="M 268.5,332.5 C 265.495,334.277 262.162,335.277 258.5,335.5C 261.505,333.723 264.838,332.723 268.5,332.5 Z"/></g>
<g><path style="opacity:0.532" fill="#fe5555" d="M 258.5,335.5 C 255.495,337.277 252.162,338.277 248.5,338.5C 251.505,336.723 254.838,335.723 258.5,335.5 Z"/></g>
<g><path style="opacity:0.688" fill="#fe5656" d="M 248.5,338.5 C 245.495,340.277 242.162,341.277 238.5,341.5C 241.505,339.723 244.838,338.723 248.5,338.5 Z"/></g>
<g><path style="opacity:0.588" fill="#fe5757" d="M 238.5,341.5 C 234.498,343.61 230.165,344.943 225.5,345.5C 229.502,343.39 233.835,342.057 238.5,341.5 Z"/></g>
<g><path style="opacity:0.534" fill="#fe5656" d="M 225.5,345.5 C 222.495,347.277 219.162,348.277 215.5,348.5C 218.505,346.723 221.838,345.723 225.5,345.5 Z"/></g>
<g><path style="opacity:0.534" fill="#fe5656" d="M 215.5,348.5 C 212.495,350.277 209.162,351.277 205.5,351.5C 208.505,349.723 211.838,348.723 215.5,348.5 Z"/></g>
<g><path style="opacity:0.688" fill="#fe5656" d="M 205.5,351.5 C 202.495,353.277 199.162,354.277 195.5,354.5C 198.505,352.723 201.838,351.723 205.5,351.5 Z"/></g>
<g><path style="opacity:0.704" fill="#fe5959" d="M 164.5,349.5 C 167.39,352.553 170.724,355.053 174.5,357C 178.167,357.667 181.833,357.667 185.5,357C 188.72,355.648 192.053,354.814 195.5,354.5C 187.119,359.054 178.452,359.554 169.5,356C 167.21,354.223 165.543,352.056 164.5,349.5 Z"/></g>
<g><path style="opacity:0.59" fill="#fe5757" d="M 390.5,445.5 C 390.445,448.614 389.112,450.948 386.5,452.5C 387.584,449.996 388.917,447.663 390.5,445.5 Z"/></g>
<g><path style="opacity:0.704" fill="#fe5656" d="M 42.5,453.5 C 43.8333,454.167 44.8333,455.167 45.5,456.5C 43.5,456.5 42.5,455.5 42.5,453.5 Z"/></g>
<g><path style="opacity:0.519" fill="#fe5d5c" d="M 45.5,456.5 C 47.4044,456.738 48.7377,457.738 49.5,459.5C 47.5956,459.262 46.2623,458.262 45.5,456.5 Z"/></g>
<g><path style="opacity:0.557" fill="#fe5656" d="M 49.5,459.5 C 51.153,459.66 52.4863,460.326 53.5,461.5C 51.6203,461.771 50.287,461.104 49.5,459.5 Z"/></g>
<g><path style="opacity:0.78" fill="#fe5656" d="M 386.5,452.5 C 381.703,460.068 374.703,463.735 365.5,463.5C 373.683,462.24 380.683,458.574 386.5,452.5 Z"/></g>
<g><path style="opacity:0.558" fill="#fe5757" d="M 11.5,471.5 C 13.2624,472.262 14.2624,473.596 14.5,475.5C 12.7376,474.738 11.7376,473.404 11.5,471.5 Z"/></g>
<g><path style="opacity:0.589" fill="#fe5655" d="M 414.5,474.5 C 411.833,479.167 408.167,482.833 403.5,485.5C 406.833,481.5 410.5,477.833 414.5,474.5 Z"/></g>
<g><path style="opacity:0.542" fill="#fe5351" d="M 14.5,475.5 C 19.5626,480.568 24.8959,485.235 30.5,489.5C 23.6097,486.61 18.2764,481.943 14.5,475.5 Z"/></g>
<g><path style="opacity:0.52" fill="#fe5656" d="M 403.5,485.5 C 402.738,487.262 401.404,488.262 399.5,488.5C 400.262,486.738 401.596,485.738 403.5,485.5 Z"/></g>
<g><path style="opacity:0.574" fill="#fe5454" d="M 399.5,488.5 C 398.341,490.25 396.674,491.25 394.5,491.5C 395.659,489.75 397.326,488.75 399.5,488.5 Z"/></g>
<g><path style="opacity:0.559" fill="#fe5656" d="M 390.5,493.5 C 389.22,494.931 387.553,495.598 385.5,495.5C 386.78,494.069 388.447,493.402 390.5,493.5 Z"/></g>
<g><path style="opacity:0.66" fill="#fe5656" d="M 30.5,489.5 C 38.364,493.622 46.6973,496.455 55.5,498C 163.181,498.821 270.848,498.654 378.5,497.5C 376.833,498.167 375.167,498.833 373.5,499.5C 267.167,499.5 160.833,499.5 54.5,499.5C 49.5772,498.18 44.5772,496.68 39.5,495C 36.1019,493.643 33.1019,491.81 30.5,489.5 Z"/></g>
</svg>
