<?xml version="1.0" encoding="UTF-8"?>
<!DOCTYPE svg PUBLIC "-//W3C//DTD SVG 1.1//EN" "http://www.w3.org/Graphics/SVG/1.1/DTD/svg11.dtd">
<svg xmlns="http://www.w3.org/2000/svg" version="1.1" width="500px" height="500px" style="shape-rendering:geometricPrecision; text-rendering:geometricPrecision; image-rendering:optimizeQuality; fill-rule:evenodd; clip-rule:evenodd" xmlns:xlink="http://www.w3.org/1999/xlink">
<g><path style="opacity:1" fill="#fffefe" d="M 227.5,-0.5 C 242.167,-0.5 256.833,-0.5 271.5,-0.5C 274.833,0.166667 278.167,0.833333 281.5,1.5C 285.591,2.89548 289.924,3.56214 294.5,3.5C 296.415,3.21552 298.081,3.54885 299.5,4.5C 303.547,6.25975 307.88,7.25975 312.5,7.5C 314.515,8.92381 316.848,9.59047 319.5,9.5C 325.216,12.072 331.216,14.072 337.5,15.5C 340.53,17.4032 343.863,18.7365 347.5,19.5C 350.751,21.9569 354.418,23.6236 358.5,24.5C 363.016,27.9266 368.016,30.5932 373.5,32.5C 377.323,35.9157 381.657,38.5824 386.5,40.5C 386.973,41.9063 387.973,42.573 389.5,42.5C 391.296,44.9 393.63,46.5667 396.5,47.5C 400.587,51.9225 405.254,55.5892 410.5,58.5C 412.239,61.2427 414.573,63.2427 417.5,64.5C 418.167,64.5 418.5,64.8333 418.5,65.5C 423.167,70.8333 428.167,75.8333 433.5,80.5C 434.167,80.5 434.5,80.8333 434.5,81.5C 435.757,84.4274 437.757,86.7607 440.5,88.5C 443.411,93.7461 447.078,98.4127 451.5,102.5C 452.433,105.37 454.1,107.704 456.5,109.5C 456.427,111.027 457.094,112.027 458.5,112.5C 465.758,125.348 472.758,138.348 479.5,151.5C 479.402,153.553 480.069,155.22 481.5,156.5C 481.402,158.553 482.069,160.22 483.5,161.5C 484.928,167.784 486.928,173.784 489.5,179.5C 493.297,195.48 496.297,211.48 498.5,227.5C 498.833,227.5 499.167,227.5 499.5,227.5C 499.5,242.167 499.5,256.833 499.5,271.5C 499.167,271.5 498.833,271.5 498.5,271.5C 496.297,287.52 493.297,303.52 489.5,319.5C 486.928,325.216 484.928,331.216 483.5,337.5C 481.597,340.53 480.263,343.863 479.5,347.5C 473.915,357.669 468.582,368.002 463.5,378.5C 461.05,380.629 459.383,383.296 458.5,386.5C 457.094,386.973 456.427,387.973 456.5,389.5C 454.1,391.296 452.433,393.63 451.5,396.5C 449.738,397.262 448.738,398.596 448.5,400.5C 445.355,403.46 442.688,406.793 440.5,410.5C 437.757,412.239 435.757,414.573 434.5,417.5C 434.167,418.5 433.5,419.167 432.5,419.5C 427.833,423.5 423.5,427.833 419.5,432.5C 419.167,433.5 418.5,434.167 417.5,434.5C 414.573,435.757 412.239,437.757 410.5,440.5C 406.793,442.688 403.46,445.355 400.5,448.5C 398.596,448.738 397.262,449.738 396.5,451.5C 393.63,452.433 391.296,454.1 389.5,456.5C 387.973,456.427 386.973,457.094 386.5,458.5C 373.652,465.758 360.652,472.758 347.5,479.5C 345.447,479.402 343.78,480.069 342.5,481.5C 340.447,481.402 338.78,482.069 337.5,483.5C 331.216,484.928 325.216,486.928 319.5,489.5C 316.848,489.41 314.515,490.076 312.5,491.5C 307.88,491.74 303.547,492.74 299.5,494.5C 289.994,495.572 280.661,496.906 271.5,498.5C 271.5,498.833 271.5,499.167 271.5,499.5C 256.833,499.5 242.167,499.5 227.5,499.5C 227.5,499.167 227.5,498.833 227.5,498.5C 218.339,496.906 209.006,495.572 199.5,494.5C 193.094,492.232 186.427,490.565 179.5,489.5C 173.784,486.928 167.784,484.928 161.5,483.5C 160.22,482.069 158.553,481.402 156.5,481.5C 154.574,479.707 152.241,478.707 149.5,478.5C 139.998,473.249 130.331,468.249 120.5,463.5C 117.35,460.421 113.683,458.087 109.5,456.5C 107.704,454.1 105.37,452.433 102.5,451.5C 101.738,449.738 100.404,448.738 98.5,448.5C 95.5405,445.355 92.2071,442.688 88.5,440.5C 86.7607,437.757 84.4274,435.757 81.5,434.5C 80.5,434.167 79.8333,433.5 79.5,432.5C 75.1667,427.5 70.5,422.833 65.5,418.5C 64.8333,418.5 64.5,418.167 64.5,417.5C 63.2427,414.573 61.2427,412.239 58.5,410.5C 55.5892,405.254 51.9225,400.587 47.5,396.5C 46.5667,393.63 44.9,391.296 42.5,389.5C 42.573,387.973 41.9063,386.973 40.5,386.5C 33.242,373.652 26.242,360.652 19.5,347.5C 19.5979,345.447 18.9313,343.78 17.5,342.5C 17.5979,340.447 16.9313,338.78 15.5,337.5C 14.072,331.216 12.072,325.216 9.5,319.5C -0.522306,279.868 -2.18897,239.868 4.5,199.5C 6.76831,193.094 8.43497,186.427 9.5,179.5C 12.072,173.784 14.072,167.784 15.5,161.5C 17.4032,158.47 18.7365,155.137 19.5,151.5C 26.242,138.348 33.242,125.348 40.5,112.5C 41.9063,112.027 42.573,111.027 42.5,109.5C 44.9,107.704 46.5667,105.37 47.5,102.5C 51.9225,98.4127 55.5892,93.7461 58.5,88.5C 61.2427,86.7607 63.2427,84.4274 64.5,81.5C 64.5,80.8333 64.8333,80.5 65.5,80.5C 70.8333,75.8333 75.8333,70.8333 80.5,65.5C 80.5,64.8333 80.8333,64.5 81.5,64.5C 84.4274,63.2427 86.7607,61.2427 88.5,58.5C 93.7461,55.5892 98.4127,51.9225 102.5,47.5C 105.37,46.5667 107.704,44.9 109.5,42.5C 111.027,42.573 112.027,41.9063 112.5,40.5C 124.682,33.5755 137.015,26.9088 149.5,20.5C 153.787,19.3517 157.787,17.685 161.5,15.5C 167.784,14.072 173.784,12.072 179.5,9.5C 186.427,8.43497 193.094,6.76831 199.5,4.5C 205.732,4.128 211.732,3.128 217.5,1.5C 220.833,0.833333 224.167,0.166667 227.5,-0.5 Z M 206.5,106.5 C 218.568,106.169 230.568,106.836 242.5,108.5C 244.905,109.768 247.572,110.435 250.5,110.5C 252.214,111.738 254.214,112.405 256.5,112.5C 264.461,116.481 272.461,120.481 280.5,124.5C 284.795,128.647 289.462,132.313 294.5,135.5C 294.5,136.167 294.833,136.5 295.5,136.5C 296.833,138.5 298.5,140.167 300.5,141.5C 300.5,142.167 300.833,142.5 301.5,142.5C 309.692,152.702 316.692,163.702 322.5,175.5C 325.982,186.425 328.649,197.425 330.5,208.5C 330.5,214.833 330.5,221.167 330.5,227.5C 329.356,231.964 328.69,236.63 328.5,241.5C 327.232,243.905 326.565,246.572 326.5,249.5C 324.928,252.215 323.928,255.215 323.5,258.5C 321.707,260.426 320.707,262.759 320.5,265.5C 318.659,267.849 317.326,270.515 316.5,273.5C 314.75,274.659 313.75,276.326 313.5,278.5C 312.094,278.973 311.427,279.973 311.5,281.5C 309.086,282.406 308.253,284.072 309,286.5C 332,309.5 355,332.5 378,355.5C 379.213,357.925 380.379,360.259 381.5,362.5C 381.5,364.167 381.5,365.833 381.5,367.5C 379.851,372.117 377.185,376.117 373.5,379.5C 371.597,379.796 369.93,380.463 368.5,381.5C 363.818,381.662 359.485,380.495 355.5,378C 332.5,355 309.5,332 286.5,309C 284.072,308.253 282.406,309.086 281.5,311.5C 279.973,311.427 278.973,312.094 278.5,313.5C 276.326,313.75 274.659,314.75 273.5,316.5C 269.849,317.659 266.515,319.326 263.5,321.5C 261.447,321.402 259.78,322.069 258.5,323.5C 251.064,325.523 243.73,327.523 236.5,329.5C 226.852,330.245 217.185,330.578 207.5,330.5C 202.025,329.141 196.358,328.141 190.5,327.5C 188.485,326.076 186.152,325.41 183.5,325.5C 182.791,324.596 181.791,324.263 180.5,324.5C 172.539,320.519 164.539,316.519 156.5,312.5C 152.205,308.353 147.538,304.687 142.5,301.5C 142.5,300.833 142.167,300.5 141.5,300.5C 140.167,298.5 138.5,296.833 136.5,295.5C 136.5,294.833 136.167,294.5 135.5,294.5C 132.313,289.462 128.647,284.795 124.5,280.5C 120.481,272.461 116.481,264.461 112.5,256.5C 112.405,254.214 111.738,252.214 110.5,250.5C 109.943,245.948 108.943,241.615 107.5,237.5C 106.695,227.188 106.362,216.854 106.5,206.5C 108.333,196.832 110.666,187.165 113.5,177.5C 115.293,175.574 116.293,173.241 116.5,170.5C 117.674,169.486 118.34,168.153 118.5,166.5C 120.588,164.664 121.921,162.331 122.5,159.5C 124.326,157.853 125.66,155.853 126.5,153.5C 129.209,150.792 131.542,147.792 133.5,144.5C 139.894,138.101 146.561,132.101 153.5,126.5C 155.853,125.66 157.853,124.326 159.5,122.5C 162.331,121.921 164.664,120.588 166.5,118.5C 168.153,118.34 169.486,117.674 170.5,116.5C 173.241,116.293 175.574,115.293 177.5,113.5C 187.165,110.666 196.832,108.333 206.5,106.5 Z"/></g>
<g><path style="opacity:0.514" fill="#fe5656" d="M 217.5,1.5 C 211.732,3.128 205.732,4.128 199.5,4.5C 205.233,2.65553 211.233,1.65553 217.5,1.5 Z"/></g>
<g><path style="opacity:0.616" fill="#fe5757" d="M 281.5,1.5 C 286.076,1.43786 290.409,2.10452 294.5,3.5C 289.924,3.56214 285.591,2.89548 281.5,1.5 Z"/></g>
<g><path style="opacity:0.611" fill="#fe5555" d="M 199.5,4.5 C 193.094,6.76831 186.427,8.43497 179.5,9.5C 185.83,6.91733 192.497,5.25067 199.5,4.5 Z"/></g>
<g><path style="opacity:0.198" fill="#fe5656" d="M 299.5,4.5 C 304.12,4.74025 308.453,5.74025 312.5,7.5C 307.88,7.25975 303.547,6.25975 299.5,4.5 Z"/></g>
<g><path style="opacity:0.58" fill="#fe5656" d="M 312.5,7.5 C 315.152,7.40953 317.485,8.07619 319.5,9.5C 316.848,9.59047 314.515,8.92381 312.5,7.5 Z"/></g>
<g><path style="opacity:0.561" fill="#fe5555" d="M 319.5,9.5 C 325.915,10.5271 331.915,12.5271 337.5,15.5C 331.216,14.072 325.216,12.072 319.5,9.5 Z"/></g>
<g><path style="opacity:0.546" fill="#fe5555" d="M 179.5,9.5 C 173.784,12.072 167.784,14.072 161.5,15.5C 167.085,12.5271 173.085,10.5271 179.5,9.5 Z"/></g>
<g><path style="opacity:0.555" fill="#fe5351" d="M 161.5,15.5 C 157.787,17.685 153.787,19.3517 149.5,20.5C 152.983,17.7633 156.983,16.0966 161.5,15.5 Z"/></g>
<g><path style="opacity:0.591" fill="#fe5453" d="M 337.5,15.5 C 341.297,15.8723 344.63,17.2057 347.5,19.5C 343.863,18.7365 340.53,17.4032 337.5,15.5 Z"/></g>
<g><path style="opacity:0.569" fill="#fe5656" d="M 149.5,20.5 C 137.015,26.9088 124.682,33.5755 112.5,40.5C 123.751,32.0376 136.085,25.3709 149.5,20.5 Z"/></g>
<g><path style="opacity:0.56" fill="#fe5454" d="M 347.5,19.5 C 351.582,20.3764 355.249,22.0431 358.5,24.5C 354.418,23.6236 350.751,21.9569 347.5,19.5 Z"/></g>
<g><path style="opacity:0.6" fill="#fe5555" d="M 358.5,24.5 C 363.984,26.4068 368.984,29.0734 373.5,32.5C 368.016,30.5932 363.016,27.9266 358.5,24.5 Z"/></g>
<g><path style="opacity:0.66" fill="#fe5453" d="M 373.5,32.5 C 378.368,34.3815 382.701,37.0482 386.5,40.5C 381.657,38.5824 377.323,35.9157 373.5,32.5 Z"/></g>
<g><path style="opacity:0.489" fill="#fe5555" d="M 112.5,40.5 C 112.027,41.9063 111.027,42.573 109.5,42.5C 109.973,41.0937 110.973,40.427 112.5,40.5 Z"/></g>
<g><path style="opacity:0.505" fill="#fe5656" d="M 386.5,40.5 C 388.027,40.427 389.027,41.0937 389.5,42.5C 387.973,42.573 386.973,41.9063 386.5,40.5 Z"/></g>
<g><path style="opacity:0.528" fill="#fe5555" d="M 389.5,42.5 C 392.37,43.4333 394.704,45.1 396.5,47.5C 393.63,46.5667 391.296,44.9 389.5,42.5 Z"/></g>
<g><path style="opacity:0.569" fill="#fe5353" d="M 109.5,42.5 C 107.704,44.9 105.37,46.5667 102.5,47.5C 104.296,45.1 106.63,43.4333 109.5,42.5 Z"/></g>
<g><path style="opacity:0.564" fill="#fe5454" d="M 102.5,47.5 C 98.4127,51.9225 93.7461,55.5892 88.5,58.5C 91.0435,55.2202 94.0435,52.3868 97.5,50C 99.0779,48.9055 100.745,48.0722 102.5,47.5 Z"/></g>
<g><path style="opacity:0.949" fill="#fe5757" d="M 396.5,47.5 C 398.255,48.0722 399.922,48.9055 401.5,50C 404.957,52.3868 407.957,55.2202 410.5,58.5C 405.254,55.5892 400.587,51.9225 396.5,47.5 Z"/></g>
<g><path style="opacity:0.564" fill="#fe5757" d="M 410.5,58.5 C 413.427,59.7573 415.761,61.7573 417.5,64.5C 414.573,63.2427 412.239,61.2427 410.5,58.5 Z"/></g>
<g><path style="opacity:0.652" fill="#fe5454" d="M 88.5,58.5 C 86.7607,61.2427 84.4274,63.2427 81.5,64.5C 83.2393,61.7573 85.5726,59.7573 88.5,58.5 Z"/></g>
<g><path style="opacity:0.554" fill="#fe5352" d="M 418.5,65.5 C 424.5,69.5 429.5,74.5 433.5,80.5C 428.167,75.8333 423.167,70.8333 418.5,65.5 Z"/></g>
<g><path style="opacity:0.399" fill="#fe504d" d="M 80.5,65.5 C 75.8333,70.8333 70.8333,75.8333 65.5,80.5C 69.5,74.5 74.5,69.5 80.5,65.5 Z"/></g>
<g><path style="opacity:0.58" fill="#fe5757" d="M 64.5,81.5 C 63.2427,84.4274 61.2427,86.7607 58.5,88.5C 59.7573,85.5726 61.7573,83.2393 64.5,81.5 Z"/></g>
<g><path style="opacity:0.598" fill="#fe5453" d="M 434.5,81.5 C 437.243,83.2393 439.243,85.5726 440.5,88.5C 437.757,86.7607 435.757,84.4274 434.5,81.5 Z"/></g>
<g><path style="opacity:0.566" fill="#fe5454" d="M 440.5,88.5 C 443.78,91.0435 446.613,94.0435 449,97.5C 450.094,99.0779 450.928,100.745 451.5,102.5C 447.078,98.4127 443.411,93.7461 440.5,88.5 Z"/></g>
<g><path style="opacity:0.646" fill="#fe5453" d="M 58.5,88.5 C 55.5892,93.7461 51.9225,98.4127 47.5,102.5C 48.0722,100.745 48.9055,99.0779 50,97.5C 52.3868,94.0435 55.2202,91.0435 58.5,88.5 Z"/></g>
<g><path style="opacity:0.667" fill="#fe5757" d="M 47.5,102.5 C 46.5667,105.37 44.9,107.704 42.5,109.5C 43.4333,106.63 45.1,104.296 47.5,102.5 Z"/></g>
<g><path style="opacity:0.655" fill="#fe5757" d="M 451.5,102.5 C 453.9,104.296 455.567,106.63 456.5,109.5C 454.1,107.704 452.433,105.37 451.5,102.5 Z"/></g>
<g><path style="opacity:0.65" fill="#fe5757" d="M 242.5,108.5 C 245.495,108.294 248.162,108.96 250.5,110.5C 247.572,110.435 244.905,109.768 242.5,108.5 Z"/></g>
<g><path style="opacity:0.602" fill="#fe5656" d="M 206.5,106.5 C 196.832,108.333 187.165,110.666 177.5,113.5C 186.568,109.15 196.235,106.817 206.5,106.5 Z"/></g>
<g><path style="opacity:0.495" fill="#fe5555" d="M 456.5,109.5 C 457.906,109.973 458.573,110.973 458.5,112.5C 457.094,112.027 456.427,111.027 456.5,109.5 Z"/></g>
<g><path style="opacity:0.733" fill="#fe5757" d="M 250.5,110.5 C 252.898,110.259 254.898,110.926 256.5,112.5C 254.214,112.405 252.214,111.738 250.5,110.5 Z"/></g>
<g><path style="opacity:0.651" fill="#fe5757" d="M 42.5,109.5 C 42.573,111.027 41.9063,112.027 40.5,112.5C 40.427,110.973 41.0937,109.973 42.5,109.5 Z"/></g>
<g><path style="opacity:0.515" fill="#fe5656" d="M 177.5,113.5 C 175.574,115.293 173.241,116.293 170.5,116.5C 172.426,114.707 174.759,113.707 177.5,113.5 Z"/></g>
<g><path style="opacity:0.493" fill="#fe5959" d="M 256.5,112.5 C 265.365,114.932 273.365,118.932 280.5,124.5C 272.461,120.481 264.461,116.481 256.5,112.5 Z"/></g>
<g><path style="opacity:0.11" fill="#fe5553" d="M 166.5,118.5 C 164.664,120.588 162.331,121.921 159.5,122.5C 161.336,120.412 163.669,119.079 166.5,118.5 Z"/></g>
<g><path style="opacity:0.554" fill="#fe5656" d="M 159.5,122.5 C 157.853,124.326 155.853,125.66 153.5,126.5C 154.802,124.178 156.802,122.845 159.5,122.5 Z"/></g>
<g><path style="opacity:0.547" fill="#fe514e" d="M 280.5,124.5 C 285.901,127.204 290.568,130.871 294.5,135.5C 289.462,132.313 284.795,128.647 280.5,124.5 Z"/></g>
<g><path style="opacity:0.786" fill="#fe5655" d="M 40.5,112.5 C 33.242,125.348 26.242,138.348 19.5,151.5C 24.7035,137.42 31.7035,124.42 40.5,112.5 Z"/></g>
<g><path style="opacity:0.65" fill="#fe5656" d="M 458.5,112.5 C 467.296,124.42 474.296,137.42 479.5,151.5C 472.758,138.348 465.758,125.348 458.5,112.5 Z"/></g>
<g><path style="opacity:0.692" fill="#fe5554" d="M 153.5,126.5 C 146.561,132.101 139.894,138.101 133.5,144.5C 138.598,136.735 145.264,130.735 153.5,126.5 Z"/></g>
<g><path style="opacity:0.654" fill="#fe5656" d="M 295.5,136.5 C 298.167,137.167 299.833,138.833 300.5,141.5C 298.5,140.167 296.833,138.5 295.5,136.5 Z"/></g>
<g><path style="opacity:1" fill="#fffefe" d="M 225.5,139.5 C 229.295,140.617 233.295,141.283 237.5,141.5C 239.515,142.924 241.848,143.59 244.5,143.5C 245.78,144.931 247.447,145.598 249.5,145.5C 253.666,148.084 258,150.417 262.5,152.5C 265.208,155.209 268.208,157.542 271.5,159.5C 272.833,161.5 274.5,163.167 276.5,164.5C 277.167,164.5 277.5,164.833 277.5,165.5C 279.458,168.792 281.791,171.792 284.5,174.5C 284.75,176.674 285.75,178.341 287.5,179.5C 287.992,181.819 288.992,183.819 290.5,185.5C 295.011,197.392 297.345,209.725 297.5,222.5C 297.762,228.835 296.762,234.835 294.5,240.5C 293.262,242.214 292.595,244.214 292.5,246.5C 290.707,248.426 289.707,250.759 289.5,253.5C 289.672,254.492 289.338,255.158 288.5,255.5C 284.174,261.495 279.84,267.495 275.5,273.5C 275.167,274.5 274.5,275.167 273.5,275.5C 267.495,279.84 261.495,284.174 255.5,288.5C 255.158,289.338 254.492,289.672 253.5,289.5C 250.759,289.707 248.426,290.707 246.5,292.5C 244.214,292.595 242.214,293.262 240.5,294.5C 233.473,296.772 226.14,298.105 218.5,298.5C 216.955,298.489 215.622,298.156 214.5,297.5C 204.675,296.295 195.008,293.961 185.5,290.5C 183.819,288.992 181.819,287.992 179.5,287.5C 175.117,283.786 170.45,280.453 165.5,277.5C 164.167,275.5 162.5,273.833 160.5,272.5C 159.833,272.5 159.5,272.167 159.5,271.5C 157.542,268.208 155.209,265.208 152.5,262.5C 152.25,260.326 151.25,258.659 149.5,257.5C 146.792,250.766 144.126,244.099 141.5,237.5C 140.549,236.081 140.216,234.415 140.5,232.5C 139.911,225.515 139.578,218.515 139.5,211.5C 140.812,205.28 142.145,198.947 143.5,192.5C 146.07,187.689 148.403,182.689 150.5,177.5C 152.326,175.853 153.66,173.853 154.5,171.5C 156.587,170.415 157.92,168.749 158.5,166.5C 161.5,164.167 164.167,161.5 166.5,158.5C 168.749,157.92 170.415,156.587 171.5,154.5C 173.853,153.66 175.853,152.326 177.5,150.5C 182.689,148.403 187.689,146.07 192.5,143.5C 193.209,142.596 194.209,142.263 195.5,142.5C 201.004,141.731 206.338,140.731 211.5,139.5C 216.167,138.167 220.833,138.167 225.5,139.5 Z"/></g>
<g><path style="opacity:0.473" fill="#fe5656" d="M 225.5,139.5 C 229.79,139.198 233.79,139.864 237.5,141.5C 233.295,141.283 229.295,140.617 225.5,139.5 Z"/></g>
<g><path style="opacity:0.523" fill="#fe5656" d="M 211.5,139.5 C 206.338,140.731 201.004,141.731 195.5,142.5C 200.473,140.24 205.806,139.24 211.5,139.5 Z"/></g>
<g><path style="opacity:0.765" fill="#fe5757" d="M 237.5,141.5 C 240.152,141.41 242.485,142.076 244.5,143.5C 241.848,143.59 239.515,142.924 237.5,141.5 Z"/></g>
<g><path style="opacity:0.618" fill="#fe5555" d="M 244.5,143.5 C 246.553,143.402 248.22,144.069 249.5,145.5C 247.447,145.598 245.78,144.931 244.5,143.5 Z"/></g>
<g><path style="opacity:0.067" fill="#fe5454" d="M 133.5,144.5 C 131.542,147.792 129.209,150.792 126.5,153.5C 127.694,149.637 130.027,146.637 133.5,144.5 Z"/></g>
<g><path style="opacity:0.523" fill="#fe5656" d="M 192.5,143.5 C 187.689,146.07 182.689,148.403 177.5,150.5C 181.808,146.848 186.808,144.514 192.5,143.5 Z"/></g>
<g><path style="opacity:0.665" fill="#fe5959" d="M 249.5,145.5 C 254.596,146.546 258.929,148.879 262.5,152.5C 258,150.417 253.666,148.084 249.5,145.5 Z"/></g>
<g><path style="opacity:0.503" fill="#fe5555" d="M 177.5,150.5 C 175.853,152.326 173.853,153.66 171.5,154.5C 172.802,152.178 174.802,150.845 177.5,150.5 Z"/></g>
<g><path style="opacity:0.5" fill="#fe5656" d="M 126.5,153.5 C 125.66,155.853 124.326,157.853 122.5,159.5C 122.845,156.802 124.178,154.802 126.5,153.5 Z"/></g>
<g><path style="opacity:0.528" fill="#fe5656" d="M 171.5,154.5 C 170.415,156.587 168.749,157.92 166.5,158.5C 167.585,156.413 169.251,155.08 171.5,154.5 Z"/></g>
<g><path style="opacity:0.631" fill="#fe5757" d="M 479.5,151.5 C 480.931,152.78 481.598,154.447 481.5,156.5C 480.069,155.22 479.402,153.553 479.5,151.5 Z"/></g>
<g><path style="opacity:0.588" fill="#fe5454" d="M 262.5,152.5 C 266.363,153.694 269.363,156.027 271.5,159.5C 268.208,157.542 265.208,155.209 262.5,152.5 Z"/></g>
<g><path style="opacity:0.637" fill="#fe514f" d="M 19.5,151.5 C 18.7365,155.137 17.4032,158.47 15.5,161.5C 15.8723,157.703 17.2057,154.37 19.5,151.5 Z"/></g>
<g><path style="opacity:0.53" fill="#fe5554" d="M 301.5,142.5 C 311.26,151.674 318.26,162.674 322.5,175.5C 316.692,163.702 309.692,152.702 301.5,142.5 Z"/></g>
<g><path style="opacity:0.405" fill="#fe5454" d="M 166.5,158.5 C 164.167,161.5 161.5,164.167 158.5,166.5C 160.167,162.833 162.833,160.167 166.5,158.5 Z"/></g>
<g><path style="opacity:0.602" fill="#fe5757" d="M 481.5,156.5 C 482.931,157.78 483.598,159.447 483.5,161.5C 482.069,160.22 481.402,158.553 481.5,156.5 Z"/></g>
<g><path style="opacity:0.54" fill="#fe5858" d="M 122.5,159.5 C 121.921,162.331 120.588,164.664 118.5,166.5C 119.079,163.669 120.412,161.336 122.5,159.5 Z"/></g>
<g><path style="opacity:0.008" fill="#ff5e59" d="M 271.5,159.5 C 274.167,160.167 275.833,161.833 276.5,164.5C 274.5,163.167 272.833,161.5 271.5,159.5 Z"/></g>
<g><path style="opacity:0.552" fill="#fe5656" d="M 158.5,166.5 C 157.92,168.749 156.587,170.415 154.5,171.5C 155.08,169.251 156.413,167.585 158.5,166.5 Z"/></g>
<g><path style="opacity:0.671" fill="#fe5757" d="M 277.5,165.5 C 280.973,167.637 283.306,170.637 284.5,174.5C 281.791,171.792 279.458,168.792 277.5,165.5 Z"/></g>
<g><path style="opacity:0.595" fill="#fe5454" d="M 116.5,170.5 C 116.293,173.241 115.293,175.574 113.5,177.5C 113.707,174.759 114.707,172.426 116.5,170.5 Z"/></g>
<g><path style="opacity:0.497" fill="#fe5656" d="M 15.5,161.5 C 14.072,167.784 12.072,173.784 9.5,179.5C 10.5271,173.085 12.5271,167.085 15.5,161.5 Z"/></g>
<g><path style="opacity:0.643" fill="#fe5757" d="M 483.5,161.5 C 486.473,167.085 488.473,173.085 489.5,179.5C 486.928,173.784 484.928,167.784 483.5,161.5 Z"/></g>
<g><path style="opacity:0.557" fill="#fe5959" d="M 154.5,171.5 C 153.66,173.853 152.326,175.853 150.5,177.5C 150.845,174.802 152.178,172.802 154.5,171.5 Z"/></g>
<g><path style="opacity:0.591" fill="#fe5757" d="M 284.5,174.5 C 286.25,175.659 287.25,177.326 287.5,179.5C 285.75,178.341 284.75,176.674 284.5,174.5 Z"/></g>
<g><path style="opacity:0.568" fill="#fe5757" d="M 150.5,177.5 C 148.403,182.689 146.07,187.689 143.5,192.5C 144.514,186.808 146.848,181.808 150.5,177.5 Z"/></g>
<g><path style="opacity:0.588" fill="#fe5d5c" d="M 287.5,179.5 C 289.539,180.911 290.539,182.911 290.5,185.5C 288.992,183.819 287.992,181.819 287.5,179.5 Z"/></g>
<g><path style="opacity:0.612" fill="#fe5656" d="M 9.5,179.5 C 8.43497,186.427 6.76831,193.094 4.5,199.5C 5.25067,192.497 6.91733,185.83 9.5,179.5 Z"/></g>
<g><path style="opacity:0.543" fill="#fe5656" d="M 489.5,179.5 C 494.789,194.952 497.789,210.952 498.5,227.5C 496.297,211.48 493.297,195.48 489.5,179.5 Z"/></g>
<g><path style="opacity:0.648" fill="#fe5453" d="M 143.5,192.5 C 142.145,198.947 140.812,205.28 139.5,211.5C 139.319,204.731 140.653,198.398 143.5,192.5 Z"/></g>
<g><path style="opacity:0.562" fill="#fe5656" d="M 113.5,177.5 C 110.666,187.165 108.333,196.832 106.5,206.5C 106.817,196.235 109.15,186.568 113.5,177.5 Z"/></g>
<g><path style="opacity:0.509" fill="#fe5555" d="M 322.5,175.5 C 327.498,185.829 330.165,196.829 330.5,208.5C 328.649,197.425 325.982,186.425 322.5,175.5 Z"/></g>
<g><path style="opacity:0.601" fill="#fe5555" d="M 290.5,185.5 C 293.93,191.288 296.097,197.621 297,204.5C 297.5,209 298,213.5 298.5,218C 298.492,219.707 298.158,221.207 297.5,222.5C 297.345,209.725 295.011,197.392 290.5,185.5 Z"/></g>
<g><path style="opacity:0.671" fill="#fe5656" d="M 139.5,211.5 C 139.578,218.515 139.911,225.515 140.5,232.5C 138.504,225.557 138.17,218.557 139.5,211.5 Z"/></g>
<g><path style="opacity:0.686" fill="#fe5555" d="M 4.5,199.5 C -2.18897,239.868 -0.522306,279.868 9.5,319.5C 4.6296,304.147 1.29627,288.481 -0.5,272.5C -0.5,257.167 -0.5,241.833 -0.5,226.5C 0.701938,217.422 2.3686,208.422 4.5,199.5 Z"/></g>
<g><path style="opacity:0.52" fill="#fe5656" d="M 330.5,227.5 C 330.771,232.434 330.104,237.1 328.5,241.5C 328.69,236.63 329.356,231.964 330.5,227.5 Z"/></g>
<g><path style="opacity:0.527" fill="#fe5656" d="M 107.5,237.5 C 108.943,241.615 109.943,245.948 110.5,250.5C 108.425,246.526 107.425,242.192 107.5,237.5 Z"/></g>
<g><path style="opacity:0.572" fill="#fe5656" d="M 328.5,241.5 C 328.706,244.495 328.04,247.162 326.5,249.5C 326.565,246.572 327.232,243.905 328.5,241.5 Z"/></g>
<g><path style="opacity:0.589" fill="#fe5555" d="M 141.5,237.5 C 144.126,244.099 146.792,250.766 149.5,257.5C 145.216,251.582 142.549,244.915 141.5,237.5 Z"/></g>
<g><path style="opacity:0.532" fill="#fe4e4b" d="M 294.5,240.5 C 294.741,242.898 294.074,244.898 292.5,246.5C 292.595,244.214 293.262,242.214 294.5,240.5 Z"/></g>
<g><path style="opacity:0.516" fill="#fe5656" d="M 292.5,246.5 C 292.293,249.241 291.293,251.574 289.5,253.5C 289.707,250.759 290.707,248.426 292.5,246.5 Z"/></g>
<g><path style="opacity:0.502" fill="#fe5656" d="M 110.5,250.5 C 111.738,252.214 112.405,254.214 112.5,256.5C 110.926,254.898 110.259,252.898 110.5,250.5 Z"/></g>
<g><path style="opacity:0.71" fill="#fe5757" d="M 326.5,249.5 C 326.472,252.916 325.472,255.916 323.5,258.5C 323.928,255.215 324.928,252.215 326.5,249.5 Z"/></g>
<g><path style="opacity:0.773" fill="#fe5757" d="M 149.5,257.5 C 151.25,258.659 152.25,260.326 152.5,262.5C 150.75,261.341 149.75,259.674 149.5,257.5 Z"/></g>
<g><path style="opacity:0.577" fill="#fe514f" d="M 323.5,258.5 C 323.293,261.241 322.293,263.574 320.5,265.5C 320.707,262.759 321.707,260.426 323.5,258.5 Z"/></g>
<g><path style="opacity:0.544" fill="#fe5857" d="M 152.5,262.5 C 155.209,265.208 157.542,268.208 159.5,271.5C 156.027,269.363 153.694,266.363 152.5,262.5 Z"/></g>
<g><path style="opacity:0.61" fill="#fe5756" d="M 288.5,255.5 C 285.709,262.623 281.375,268.623 275.5,273.5C 279.84,267.495 284.174,261.495 288.5,255.5 Z"/></g>
<g><path style="opacity:0.661" fill="#fe5656" d="M 320.5,265.5 C 320.206,268.754 318.873,271.421 316.5,273.5C 317.326,270.515 318.659,267.849 320.5,265.5 Z"/></g>
<g><path style="opacity:0.706" fill="#fe5a59" d="M 112.5,256.5 C 116.481,264.461 120.481,272.461 124.5,280.5C 118.932,273.365 114.932,265.365 112.5,256.5 Z"/></g>
<g><path style="opacity:0.413" fill="#ff453e" d="M 160.5,272.5 C 162.5,273.833 164.167,275.5 165.5,277.5C 162.833,276.833 161.167,275.167 160.5,272.5 Z"/></g>
<g><path style="opacity:0.539" fill="#fe5555" d="M 316.5,273.5 C 316.25,275.674 315.25,277.341 313.5,278.5C 313.75,276.326 314.75,274.659 316.5,273.5 Z"/></g>
<g><path style="opacity:0.703" fill="#fe5756" d="M 273.5,275.5 C 268.623,281.375 262.623,285.709 255.5,288.5C 261.495,284.174 267.495,279.84 273.5,275.5 Z"/></g>
<g><path style="opacity:0.635" fill="#fe5454" d="M 313.5,278.5 C 313.573,280.027 312.906,281.027 311.5,281.5C 311.427,279.973 312.094,278.973 313.5,278.5 Z"/></g>
<g><path style="opacity:0.544" fill="#fe5554" d="M 165.5,277.5 C 170.45,280.453 175.117,283.786 179.5,287.5C 173.993,285.323 169.326,281.99 165.5,277.5 Z"/></g>
<g><path style="opacity:0.55" fill="#fe504e" d="M 124.5,280.5 C 128.647,284.795 132.313,289.462 135.5,294.5C 130.871,290.568 127.204,285.901 124.5,280.5 Z"/></g>
<g><path style="opacity:0.496" fill="#fe5555" d="M 311.5,281.5 C 311.489,283.017 310.823,284.184 309.5,285C 332.667,308.167 355.833,331.333 379,354.5C 380.707,356.909 381.54,359.575 381.5,362.5C 380.379,360.259 379.213,357.925 378,355.5C 355,332.5 332,309.5 309,286.5C 308.253,284.072 309.086,282.406 311.5,281.5 Z"/></g>
<g><path style="opacity:0.499" fill="#fe5656" d="M 498.5,271.5 C 497.789,288.048 494.789,304.048 489.5,319.5C 493.297,303.52 496.297,287.52 498.5,271.5 Z"/></g>
<g><path style="opacity:0.588" fill="#fe5c5b" d="M 179.5,287.5 C 181.819,287.992 183.819,288.992 185.5,290.5C 182.911,290.539 180.911,289.539 179.5,287.5 Z"/></g>
<g><path style="opacity:0.598" fill="#fe5656" d="M 253.5,289.5 C 251.574,291.293 249.241,292.293 246.5,292.5C 248.426,290.707 250.759,289.707 253.5,289.5 Z"/></g>
<g><path style="opacity:0.712" fill="#fe4f4c" d="M 246.5,292.5 C 244.898,294.074 242.898,294.741 240.5,294.5C 242.214,293.262 244.214,292.595 246.5,292.5 Z"/></g>
<g><path style="opacity:0.665" fill="#fe5656" d="M 136.5,295.5 C 138.5,296.833 140.167,298.5 141.5,300.5C 138.833,299.833 137.167,298.167 136.5,295.5 Z"/></g>
<g><path style="opacity:0.791" fill="#fe5958" d="M 185.5,290.5 C 195.008,293.961 204.675,296.295 214.5,297.5C 204.08,297.811 194.413,295.478 185.5,290.5 Z"/></g>
<g><path style="opacity:0.612" fill="#fe5856" d="M 142.5,301.5 C 147.538,304.687 152.205,308.353 156.5,312.5C 151.099,309.796 146.432,306.129 142.5,301.5 Z"/></g>
<g><path style="opacity:0.6" fill="#fe5554" d="M 281.5,311.5 C 281.027,312.906 280.027,313.573 278.5,313.5C 278.973,312.094 279.973,311.427 281.5,311.5 Z"/></g>
<g><path style="opacity:0.564" fill="#fe5656" d="M 278.5,313.5 C 277.341,315.25 275.674,316.25 273.5,316.5C 274.659,314.75 276.326,313.75 278.5,313.5 Z"/></g>
<g><path style="opacity:0.6" fill="#fe5656" d="M 273.5,316.5 C 270.753,319.207 267.42,320.873 263.5,321.5C 266.515,319.326 269.849,317.659 273.5,316.5 Z"/></g>
<g><path style="opacity:0.521" fill="#fe5656" d="M 9.5,319.5 C 12.072,325.216 14.072,331.216 15.5,337.5C 12.5271,331.915 10.5271,325.915 9.5,319.5 Z"/></g>
<g><path style="opacity:0.529" fill="#fe5454" d="M 156.5,312.5 C 164.539,316.519 172.539,320.519 180.5,324.5C 171.635,322.068 163.635,318.068 156.5,312.5 Z"/></g>
<g><path style="opacity:0.747" fill="#fe5757" d="M 263.5,321.5 C 262.22,322.931 260.553,323.598 258.5,323.5C 259.78,322.069 261.447,321.402 263.5,321.5 Z"/></g>
<g><path style="opacity:0.472" fill="#fe5555" d="M 183.5,325.5 C 186.152,325.41 188.485,326.076 190.5,327.5C 187.848,327.59 185.515,326.924 183.5,325.5 Z"/></g>
<g><path style="opacity:0.636" fill="#fe5555" d="M 258.5,323.5 C 251.691,327.038 244.357,329.038 236.5,329.5C 243.73,327.523 251.064,325.523 258.5,323.5 Z"/></g>
<g><path style="opacity:0.535" fill="#fe5656" d="M 489.5,319.5 C 488.473,325.915 486.473,331.915 483.5,337.5C 484.928,331.216 486.928,325.216 489.5,319.5 Z"/></g>
<g><path style="opacity:0.706" fill="#fe5757" d="M 190.5,327.5 C 196.358,328.141 202.025,329.141 207.5,330.5C 201.511,330.633 195.844,329.633 190.5,327.5 Z"/></g>
<g><path style="opacity:0.533" fill="#fe5655" d="M 15.5,337.5 C 16.9313,338.78 17.5979,340.447 17.5,342.5C 16.0687,341.22 15.4021,339.553 15.5,337.5 Z"/></g>
<g><path style="opacity:0.59" fill="#fe5555" d="M 17.5,342.5 C 18.9313,343.78 19.5979,345.447 19.5,347.5C 18.0687,346.22 17.4021,344.553 17.5,342.5 Z"/></g>
<g><path style="opacity:0.452" fill="#fe5352" d="M 483.5,337.5 C 483.128,341.297 481.794,344.63 479.5,347.5C 480.263,343.863 481.597,340.53 483.5,337.5 Z"/></g>
<g><path style="opacity:0.635" fill="#fe5656" d="M 479.5,347.5 C 475.46,358.583 470.126,368.916 463.5,378.5C 468.582,368.002 473.915,357.669 479.5,347.5 Z"/></g>
<g><path style="opacity:0.604" fill="#fe5656" d="M 19.5,347.5 C 26.242,360.652 33.242,373.652 40.5,386.5C 31.7035,374.58 24.7035,361.58 19.5,347.5 Z"/></g>
<g><path style="opacity:0.535" fill="#fe5656" d="M 368.5,381.5 C 363.622,382.957 358.955,382.123 354.5,379C 331.333,355.833 308.167,332.667 285,309.5C 284.184,310.823 283.017,311.489 281.5,311.5C 282.406,309.086 284.072,308.253 286.5,309C 309.5,332 332.5,355 355.5,378C 359.485,380.495 363.818,381.662 368.5,381.5 Z"/></g>
<g><path style="opacity:0.925" fill="#fe5757" d="M 381.5,367.5 C 381.306,373.24 378.639,377.24 373.5,379.5C 377.185,376.117 379.851,372.117 381.5,367.5 Z"/></g>
<g><path style="opacity:0.635" fill="#fe5554" d="M 463.5,378.5 C 462.617,381.704 460.95,384.371 458.5,386.5C 459.383,383.296 461.05,380.629 463.5,378.5 Z"/></g>
<g><path style="opacity:0.633" fill="#fe5555" d="M 40.5,386.5 C 41.9063,386.973 42.573,387.973 42.5,389.5C 41.0937,389.027 40.427,388.027 40.5,386.5 Z"/></g>
<g><path style="opacity:0.078" fill="#fe5757" d="M 458.5,386.5 C 458.573,388.027 457.906,389.027 456.5,389.5C 456.427,387.973 457.094,386.973 458.5,386.5 Z"/></g>
<g><path style="opacity:0.565" fill="#fe5555" d="M 42.5,389.5 C 44.9,391.296 46.5667,393.63 47.5,396.5C 45.1,394.704 43.4333,392.37 42.5,389.5 Z"/></g>
<g><path style="opacity:0.145" fill="#fe5959" d="M 456.5,389.5 C 455.567,392.37 453.9,394.704 451.5,396.5C 452.433,393.63 454.1,391.296 456.5,389.5 Z"/></g>
<g><path style="opacity:0.547" fill="#fe5555" d="M 451.5,396.5 C 451.262,398.404 450.262,399.738 448.5,400.5C 448.738,398.596 449.738,397.262 451.5,396.5 Z"/></g>
<g><path style="opacity:0.558" fill="#fe5453" d="M 47.5,396.5 C 51.9225,400.587 55.5892,405.254 58.5,410.5C 55.2202,407.957 52.3868,404.957 50,401.5C 48.9055,399.922 48.0722,398.255 47.5,396.5 Z"/></g>
<g><path style="opacity:0.639" fill="#fe5656" d="M 448.5,400.5 C 446.792,404.572 444.126,407.905 440.5,410.5C 442.688,406.793 445.355,403.46 448.5,400.5 Z"/></g>
<g><path style="opacity:0.542" fill="#fe5454" d="M 440.5,410.5 C 439.243,413.427 437.243,415.761 434.5,417.5C 435.757,414.573 437.757,412.239 440.5,410.5 Z"/></g>
<g><path style="opacity:0.667" fill="#fe5656" d="M 58.5,410.5 C 61.2427,412.239 63.2427,414.573 64.5,417.5C 61.7573,415.761 59.7573,413.427 58.5,410.5 Z"/></g>
<g><path style="opacity:0.482" fill="#fe5351" d="M 65.5,418.5 C 70.5,422.833 75.1667,427.5 79.5,432.5C 73.8333,428.833 69.1667,424.167 65.5,418.5 Z"/></g>
<g><path style="opacity:0.463" fill="#fe5756" d="M 432.5,419.5 C 429.167,424.833 424.833,429.167 419.5,432.5C 423.5,427.833 427.833,423.5 432.5,419.5 Z"/></g>
<g><path style="opacity:0.66" fill="#fe5554" d="M 417.5,434.5 C 415.761,437.243 413.427,439.243 410.5,440.5C 412.239,437.757 414.573,435.757 417.5,434.5 Z"/></g>
<g><path style="opacity:0.431" fill="#fe5656" d="M 81.5,434.5 C 84.4274,435.757 86.7607,437.757 88.5,440.5C 85.5726,439.243 83.2393,437.243 81.5,434.5 Z"/></g>
<g><path style="opacity:0.674" fill="#fe5555" d="M 88.5,440.5 C 92.2071,442.688 95.5405,445.355 98.5,448.5C 94.4281,446.792 91.0948,444.126 88.5,440.5 Z"/></g>
<g><path style="opacity:0.633" fill="#fe5a59" d="M 410.5,440.5 C 407.905,444.126 404.572,446.792 400.5,448.5C 403.46,445.355 406.793,442.688 410.5,440.5 Z"/></g>
<g><path style="opacity:0.538" fill="#fe5656" d="M 98.5,448.5 C 100.404,448.738 101.738,449.738 102.5,451.5C 100.596,451.262 99.2623,450.262 98.5,448.5 Z"/></g>
<g><path style="opacity:0.551" fill="#fe5555" d="M 400.5,448.5 C 399.738,450.262 398.404,451.262 396.5,451.5C 397.262,449.738 398.596,448.738 400.5,448.5 Z"/></g>
<g><path style="opacity:0.643" fill="#fe5454" d="M 102.5,451.5 C 105.37,452.433 107.704,454.1 109.5,456.5C 106.63,455.567 104.296,453.9 102.5,451.5 Z"/></g>
<g><path style="opacity:0.66" fill="#fe5858" d="M 396.5,451.5 C 394.704,453.9 392.37,455.567 389.5,456.5C 391.296,454.1 393.63,452.433 396.5,451.5 Z"/></g>
<g><path style="opacity:0.583" fill="#fe5554" d="M 109.5,456.5 C 113.683,458.087 117.35,460.421 120.5,463.5C 116.317,461.913 112.65,459.579 109.5,456.5 Z"/></g>
<g><path style="opacity:0.078" fill="#fe5757" d="M 389.5,456.5 C 389.027,457.906 388.027,458.573 386.5,458.5C 386.973,457.094 387.973,456.427 389.5,456.5 Z"/></g>
<g><path style="opacity:0.735" fill="#fe5756" d="M 386.5,458.5 C 374.58,467.296 361.58,474.296 347.5,479.5C 360.652,472.758 373.652,465.758 386.5,458.5 Z"/></g>
<g><path style="opacity:0.629" fill="#fe5554" d="M 120.5,463.5 C 130.331,468.249 139.998,473.249 149.5,478.5C 139.083,474.793 129.416,469.793 120.5,463.5 Z"/></g>
<g><path style="opacity:0.614" fill="#fe5656" d="M 149.5,478.5 C 152.241,478.707 154.574,479.707 156.5,481.5C 153.759,481.293 151.426,480.293 149.5,478.5 Z"/></g>
<g><path style="opacity:0.522" fill="#fe5655" d="M 347.5,479.5 C 346.22,480.931 344.553,481.598 342.5,481.5C 343.78,480.069 345.447,479.402 347.5,479.5 Z"/></g>
<g><path style="opacity:0.514" fill="#fe5656" d="M 156.5,481.5 C 158.553,481.402 160.22,482.069 161.5,483.5C 159.447,483.598 157.78,482.931 156.5,481.5 Z"/></g>
<g><path style="opacity:0.618" fill="#fe5555" d="M 342.5,481.5 C 341.22,482.931 339.553,483.598 337.5,483.5C 338.78,482.069 340.447,481.402 342.5,481.5 Z"/></g>
<g><path style="opacity:0.55" fill="#fe5656" d="M 337.5,483.5 C 331.915,486.473 325.915,488.473 319.5,489.5C 325.216,486.928 331.216,484.928 337.5,483.5 Z"/></g>
<g><path style="opacity:0.507" fill="#fe5555" d="M 161.5,483.5 C 167.784,484.928 173.784,486.928 179.5,489.5C 173.085,488.473 167.085,486.473 161.5,483.5 Z"/></g>
<g><path style="opacity:0.294" fill="#fe5757" d="M 319.5,489.5 C 317.485,490.924 315.152,491.59 312.5,491.5C 314.515,490.076 316.848,489.41 319.5,489.5 Z"/></g>
<g><path style="opacity:0.647" fill="#fe5656" d="M 179.5,489.5 C 186.427,490.565 193.094,492.232 199.5,494.5C 192.497,493.749 185.83,492.083 179.5,489.5 Z"/></g>
<g><path style="opacity:0.642" fill="#fe5757" d="M 312.5,491.5 C 308.453,493.26 304.12,494.26 299.5,494.5C 303.547,492.74 307.88,491.74 312.5,491.5 Z"/></g>
<g><path style="opacity:0.574" fill="#fe5656" d="M 199.5,494.5 C 209.006,495.572 218.339,496.906 227.5,498.5C 217.866,498.362 208.533,497.029 199.5,494.5 Z"/></g>
<g><path style="opacity:0.588" fill="#fe5656" d="M 299.5,494.5 C 290.467,497.029 281.134,498.362 271.5,498.5C 280.661,496.906 289.994,495.572 299.5,494.5 Z"/></g>
</svg>
